M48
;Layer_Color=9474304
;FILE_FORMAT=2:5
INCH,LZ
;TYPE=PLATED
T01F00S00C0.00800
T02F00S00C0.08661
%
T01
X0004Y0036
X0012
X002
Y0044
Y0052
X0012
Y0044
X0004
Y0052
X0044
X0052Y00505
X00545
X0052Y0044
Y0036
X0044
X006
Y0044
X00595Y00505
X0057
X00565Y0074
X0059
X006Y0092
X0062Y009
X00645
X006Y01
Y0108
X0052
Y01
Y00855
Y0083
Y00805
X00515Y0074
X0044Y0076
X0045Y00815
X00425
X0036Y0076
X002498Y0072726
X0028Y0068
Y006
X0036
X002
X0021Y00625
X00185
X0016
X0013Y0058
X0012Y0068
Y0076
Y0084
X0013Y00875
X0012Y0092
X002
Y01
Y0108
X0012
Y01
X0004
Y0108
Y0092
Y0076
Y0068
X00275Y00855
Y009
X0044Y0108
T02
X0033465Y0043307
Y0102362
M30
