G04*
G04 #@! TF.GenerationSoftware,Altium Limited,Altium Designer,25.1.2 (22)*
G04*
G04 Layer_Physical_Order=1*
G04 Layer_Color=255*
%FSLAX25Y25*%
%MOIN*%
G70*
G04*
G04 #@! TF.SameCoordinates,42F2E889-0947-43C6-B176-334B337A30E9*
G04*
G04*
G04 #@! TF.FilePolarity,Positive*
G04*
G01*
G75*
%ADD10C,0.01000*%
%ADD13R,0.02362X0.02126*%
%ADD14R,0.01800X0.01200*%
%ADD15R,0.01200X0.01800*%
%ADD16R,0.02559X0.01772*%
%ADD17R,0.02126X0.02362*%
%ADD18R,0.02000X0.01100*%
%ADD19R,0.10630X0.03937*%
%ADD20R,0.06693X0.02362*%
%ADD21R,0.01400X0.01987*%
%ADD22R,0.02200X0.05000*%
%ADD29C,0.00800*%
%ADD30C,0.19685*%
%ADD31C,0.02000*%
G36*
X68898Y85213D02*
X68298Y85154D01*
X68254Y85375D01*
X68077Y85640D01*
X67812Y85817D01*
X67500Y85879D01*
X60316D01*
Y86600D01*
X60254Y86912D01*
X60077Y87177D01*
X59812Y87354D01*
X59500Y87416D01*
X55613D01*
X55608Y87415D01*
X55570Y87420D01*
X55026Y87688D01*
Y94400D01*
X55010Y94479D01*
Y95200D01*
X54289D01*
X54210Y95216D01*
X49500D01*
X49188Y95154D01*
X48923Y94977D01*
X48746Y94712D01*
X48684Y94400D01*
Y91316D01*
X36496D01*
X36401Y91916D01*
X37627Y92314D01*
X39147Y93089D01*
X40528Y94092D01*
X41735Y95299D01*
X42738Y96680D01*
X43513Y98200D01*
X44040Y99823D01*
X44307Y101509D01*
Y101862D01*
X33965D01*
Y91520D01*
X34053D01*
X34119Y91441D01*
X34318Y90920D01*
X34246Y90812D01*
X34184Y90500D01*
Y84316D01*
X15453D01*
X15141Y84254D01*
X14876Y84077D01*
X14699Y83812D01*
X14637Y83500D01*
Y79035D01*
X14653Y78957D01*
Y78235D01*
X15374D01*
X15453Y78220D01*
X39500D01*
X39812Y78282D01*
X40077Y78459D01*
X40254Y78723D01*
X40316Y79035D01*
Y85523D01*
X46500D01*
X46812Y85585D01*
X47077Y85762D01*
X47254Y86026D01*
X47316Y86339D01*
Y86684D01*
X54210D01*
X54213Y86685D01*
X54218Y86685D01*
X54245Y86681D01*
X54772Y86282D01*
X54797Y86236D01*
Y80000D01*
X54859Y79688D01*
X55036Y79423D01*
X55300Y79246D01*
X55613Y79184D01*
X61184D01*
Y62816D01*
X59735D01*
Y66041D01*
Y70810D01*
X56335D01*
Y68010D01*
Y63137D01*
X53255D01*
Y66969D01*
X53162Y67437D01*
X52897Y67834D01*
X51314Y69416D01*
X51463Y69776D01*
X51463D01*
Y73176D01*
X48663D01*
Y70810D01*
X46296D01*
Y70749D01*
X44548D01*
Y71123D01*
X40389D01*
Y68334D01*
X39789Y68085D01*
X38826Y69049D01*
Y70500D01*
X38725Y71007D01*
X38437Y71437D01*
X34863Y75012D01*
X34432Y75299D01*
X33925Y75400D01*
X33550D01*
Y75425D01*
X31824D01*
X31017Y76232D01*
X30587Y76520D01*
X30079Y76621D01*
X22946D01*
Y77276D01*
X14653D01*
Y73314D01*
X22946D01*
Y73970D01*
X29531D01*
X29950Y73550D01*
Y72875D01*
X29950Y72725D01*
X29950D01*
Y72299D01*
X29891Y71700D01*
X22946D01*
Y72355D01*
X14653D01*
Y68393D01*
X22946D01*
Y69049D01*
X30749D01*
X31256Y69150D01*
X31686Y69437D01*
X31824Y69575D01*
X33050D01*
X33674Y68951D01*
Y67500D01*
X33775Y66993D01*
X34063Y66563D01*
X40063Y60563D01*
X40493Y60275D01*
X41000Y60175D01*
X48111D01*
X48424Y59926D01*
X48568Y59575D01*
X48380Y59254D01*
X47563Y58437D01*
X47395Y58186D01*
X46420D01*
Y54814D01*
Y51468D01*
X50580D01*
Y52849D01*
X52344Y54614D01*
X52837D01*
X52876Y54621D01*
X67500D01*
X67812Y54683D01*
X68077Y54860D01*
X68254Y55125D01*
X68298Y55346D01*
X68898Y55287D01*
Y31496D01*
X0D01*
Y114173D01*
X68898D01*
Y85213D01*
D02*
G37*
G36*
X54210Y87500D02*
X46500D01*
Y86339D01*
X39500D01*
Y79035D01*
X15453D01*
Y83500D01*
X35000D01*
Y90500D01*
X49500D01*
Y94400D01*
X54210D01*
Y87500D01*
D02*
G37*
G36*
X59500Y85063D02*
X67500D01*
Y55437D01*
X51432D01*
Y59737D01*
X51463D01*
Y62337D01*
X52600D01*
Y59737D01*
X55400D01*
Y62000D01*
X62000D01*
Y80000D01*
X55613D01*
Y86600D01*
X59500D01*
Y85063D01*
D02*
G37*
%LPC*%
G36*
X34318Y113205D02*
X33965D01*
Y102862D01*
X44307D01*
Y103216D01*
X44040Y104901D01*
X43513Y106524D01*
X42738Y108045D01*
X41735Y109426D01*
X40528Y110632D01*
X39147Y111636D01*
X37627Y112410D01*
X36004Y112938D01*
X34318Y113205D01*
D02*
G37*
G36*
X32965D02*
X32611D01*
X30926Y112938D01*
X29302Y112410D01*
X27782Y111636D01*
X26401Y110632D01*
X25194Y109426D01*
X24191Y108045D01*
X23416Y106524D01*
X22889Y104901D01*
X22622Y103216D01*
Y102862D01*
X32965D01*
Y113205D01*
D02*
G37*
G36*
Y101862D02*
X22622D01*
Y101509D01*
X22889Y99823D01*
X23416Y98200D01*
X24191Y96680D01*
X25194Y95299D01*
X26401Y94092D01*
X27782Y93089D01*
X29302Y92314D01*
X30926Y91787D01*
X32611Y91520D01*
X32965D01*
Y101862D01*
D02*
G37*
G36*
X55863Y78481D02*
X52137D01*
Y74519D01*
X52675D01*
Y73176D01*
X52600D01*
Y69776D01*
X55400D01*
Y73176D01*
X55326D01*
Y74519D01*
X55863D01*
Y78481D01*
D02*
G37*
G36*
X34318Y54150D02*
X33965D01*
Y43807D01*
X44307D01*
Y44160D01*
X44040Y45846D01*
X43513Y47469D01*
X42738Y48990D01*
X41735Y50371D01*
X40528Y51577D01*
X39147Y52580D01*
X37627Y53355D01*
X36004Y53883D01*
X34318Y54150D01*
D02*
G37*
G36*
X32965D02*
X32611D01*
X30926Y53883D01*
X29302Y53355D01*
X27782Y52580D01*
X26401Y51577D01*
X25194Y50371D01*
X24191Y48990D01*
X23416Y47469D01*
X22889Y45846D01*
X22622Y44160D01*
Y43807D01*
X32965D01*
Y54150D01*
D02*
G37*
G36*
X44307Y42807D02*
X33965D01*
Y32465D01*
X34318D01*
X36004Y32732D01*
X37627Y33259D01*
X39147Y34034D01*
X40528Y35037D01*
X41735Y36244D01*
X42738Y37624D01*
X43513Y39145D01*
X44040Y40768D01*
X44307Y42454D01*
Y42807D01*
D02*
G37*
G36*
X32965D02*
X22622D01*
Y42454D01*
X22889Y40768D01*
X23416Y39145D01*
X24191Y37624D01*
X25194Y36244D01*
X26401Y35037D01*
X27782Y34034D01*
X29302Y33259D01*
X30926Y32732D01*
X32611Y32465D01*
X32965D01*
Y42807D01*
D02*
G37*
%LPD*%
D10*
X24980Y72500D02*
Y72726D01*
Y72500D02*
X27250D01*
X54000Y71476D02*
Y76500D01*
X54000Y76500D01*
X42469Y69437D02*
X42482Y69423D01*
X47982D01*
X47996Y69410D01*
X48500Y56500D02*
Y57500D01*
X50063Y59063D01*
Y61437D01*
X31300Y70925D02*
X33575D01*
X35000Y69500D01*
X50000Y61500D02*
X50063Y61437D01*
X41000Y61500D02*
X50000D01*
X35000Y67500D02*
X41000Y61500D01*
X35000Y67500D02*
Y69500D01*
X37500Y68500D02*
Y70500D01*
Y68500D02*
X39909Y66091D01*
X33925Y74075D02*
X37500Y70500D01*
X18799Y75295D02*
X30079D01*
X31300Y74075D01*
X33925D01*
X42469Y66091D02*
X42500Y66059D01*
Y64500D02*
Y66059D01*
Y64500D02*
X43500Y63500D01*
X44000D01*
X44004Y63504D01*
X47996D01*
X39909Y66091D02*
X42469D01*
X30749Y70374D02*
X31300Y70925D01*
X18799Y70374D02*
X30749D01*
D13*
X58000Y53098D02*
D03*
Y56500D02*
D03*
X53500Y53098D02*
D03*
Y56500D02*
D03*
X63000Y84000D02*
D03*
Y87402D02*
D03*
X43500D02*
D03*
Y84000D02*
D03*
D14*
X47996Y63504D02*
D03*
Y65472D02*
D03*
Y67441D02*
D03*
Y69410D02*
D03*
X58035D02*
D03*
Y67441D02*
D03*
Y65472D02*
D03*
Y63504D02*
D03*
D15*
X50063Y71476D02*
D03*
X52031D02*
D03*
X54000D02*
D03*
X55968D02*
D03*
Y61437D02*
D03*
X54000D02*
D03*
X52031D02*
D03*
X50063D02*
D03*
D16*
X42469Y69437D02*
D03*
Y66091D02*
D03*
X48500Y56500D02*
D03*
Y53154D02*
D03*
D17*
X57402Y76500D02*
D03*
X54000D02*
D03*
D18*
X27250Y72500D02*
D03*
X31750Y74075D02*
D03*
Y70925D02*
D03*
D19*
X6201Y87500D02*
D03*
Y58169D02*
D03*
D20*
X18799Y75295D02*
D03*
Y80216D02*
D03*
Y70374D02*
D03*
Y65453D02*
D03*
D21*
X27559Y81502D02*
D03*
Y87789D02*
D03*
D22*
X53110Y91900D02*
D03*
X56713Y84100D02*
D03*
X49508D02*
D03*
D29*
X49624Y69376D02*
X52031Y66969D01*
X47996Y69410D02*
X48029Y69376D01*
X49624D01*
X52031Y61437D02*
Y66969D01*
X48500Y53154D02*
X48986Y53639D01*
X49639D01*
X51837Y55837D01*
X52837D02*
X53500Y56500D01*
X51837Y55837D02*
X52837D01*
D30*
X33465Y102362D02*
D03*
Y43307D02*
D03*
D31*
X60000Y108000D02*
D03*
Y100000D02*
D03*
Y92000D02*
D03*
Y44000D02*
D03*
Y36000D02*
D03*
X52000Y108000D02*
D03*
Y100000D02*
D03*
Y44000D02*
D03*
Y36000D02*
D03*
X44000Y108000D02*
D03*
Y76000D02*
D03*
Y52000D02*
D03*
Y36000D02*
D03*
X36000Y76000D02*
D03*
Y60000D02*
D03*
X28000Y68000D02*
D03*
Y60000D02*
D03*
X20000Y108000D02*
D03*
Y100000D02*
D03*
Y92000D02*
D03*
Y60000D02*
D03*
Y52000D02*
D03*
Y44000D02*
D03*
Y36000D02*
D03*
X12000Y108000D02*
D03*
Y100000D02*
D03*
Y92000D02*
D03*
Y84000D02*
D03*
Y76000D02*
D03*
Y68000D02*
D03*
Y52000D02*
D03*
Y44000D02*
D03*
Y36000D02*
D03*
X4000Y108000D02*
D03*
Y100000D02*
D03*
Y92000D02*
D03*
Y76000D02*
D03*
Y68000D02*
D03*
Y52000D02*
D03*
Y44000D02*
D03*
Y36000D02*
D03*
X27500Y85500D02*
D03*
X24980Y72726D02*
D03*
X51500Y74000D02*
D03*
X59000D02*
D03*
X56500D02*
D03*
X59500Y50500D02*
D03*
X57000D02*
D03*
X54500D02*
D03*
X52000D02*
D03*
X64500Y90000D02*
D03*
X62000D02*
D03*
X52000Y85500D02*
D03*
Y83000D02*
D03*
Y80500D02*
D03*
X42500Y81500D02*
D03*
X45000D02*
D03*
X27500Y90000D02*
D03*
X13000Y58000D02*
D03*
Y87500D02*
D03*
X16000Y62500D02*
D03*
X18500D02*
D03*
X21000D02*
D03*
M02*
