G04*
G04 #@! TF.GenerationSoftware,Altium Limited,Altium Designer,25.1.2 (22)*
G04*
G04 Layer_Color=8421504*
%FSLAX25Y25*%
%MOIN*%
G70*
G04*
G04 #@! TF.SameCoordinates,42F2E889-0947-43C6-B176-334B337A30E9*
G04*
G04*
G04 #@! TF.FilePolarity,Positive*
G04*
G01*
G75*
%ADD13R,0.02362X0.02126*%
%ADD14R,0.01800X0.01200*%
%ADD15R,0.01200X0.01800*%
%ADD16R,0.02559X0.01772*%
%ADD17R,0.02126X0.02362*%
%ADD18R,0.02000X0.01100*%
%ADD19R,0.10630X0.03937*%
%ADD20R,0.06693X0.02362*%
%ADD21R,0.01400X0.01987*%
%ADD22R,0.02200X0.05000*%
D13*
X58000Y53098D02*
D03*
Y56500D02*
D03*
X53500Y53098D02*
D03*
Y56500D02*
D03*
X63000Y84000D02*
D03*
Y87402D02*
D03*
X43500D02*
D03*
Y84000D02*
D03*
D14*
X47996Y63504D02*
D03*
Y65472D02*
D03*
Y67441D02*
D03*
Y69410D02*
D03*
X58035D02*
D03*
Y67441D02*
D03*
Y65472D02*
D03*
Y63504D02*
D03*
D15*
X50063Y71476D02*
D03*
X52031D02*
D03*
X54000D02*
D03*
X55968D02*
D03*
Y61437D02*
D03*
X54000D02*
D03*
X52031D02*
D03*
X50063D02*
D03*
D16*
X42469Y69437D02*
D03*
Y66091D02*
D03*
X48500Y56500D02*
D03*
Y53154D02*
D03*
D17*
X57402Y76500D02*
D03*
X54000D02*
D03*
D18*
X27250Y72500D02*
D03*
X31750Y74075D02*
D03*
Y70925D02*
D03*
D19*
X6201Y87500D02*
D03*
Y58169D02*
D03*
D20*
X18799Y75295D02*
D03*
Y80216D02*
D03*
Y70374D02*
D03*
Y65453D02*
D03*
D21*
X27559Y81502D02*
D03*
Y87789D02*
D03*
D22*
X53110Y91900D02*
D03*
X56713Y84100D02*
D03*
X49508D02*
D03*
M02*
