G04*
G04 #@! TF.GenerationSoftware,Altium Limited,Altium Designer,25.1.2 (22)*
G04*
G04 Layer_Color=65535*
%FSLAX25Y25*%
%MOIN*%
G70*
G04*
G04 #@! TF.SameCoordinates,42F2E889-0947-43C6-B176-334B337A30E9*
G04*
G04*
G04 #@! TF.FilePolarity,Positive*
G04*
G01*
G75*
%ADD10C,0.01000*%
%ADD11C,0.00500*%
%ADD12C,0.00600*%
G36*
X3477Y94022D02*
X3510Y94019D01*
X3548Y94016D01*
X3590Y94013D01*
X3634Y94005D01*
X3729Y93987D01*
X3827Y93957D01*
X3877Y93939D01*
X3924Y93919D01*
X3969Y93895D01*
X4010Y93865D01*
X4013Y93862D01*
X4019Y93859D01*
X4031Y93848D01*
X4046Y93836D01*
X4064Y93821D01*
X4081Y93800D01*
X4102Y93777D01*
X4126Y93750D01*
X4149Y93720D01*
X4173Y93688D01*
X4197Y93652D01*
X4217Y93611D01*
X4241Y93569D01*
X4259Y93525D01*
X4277Y93475D01*
X4289Y93424D01*
X3877Y93347D01*
Y93350D01*
X3874Y93353D01*
X3868Y93371D01*
X3856Y93398D01*
X3839Y93433D01*
X3818Y93472D01*
X3788Y93510D01*
X3753Y93549D01*
X3711Y93584D01*
X3705Y93587D01*
X3691Y93599D01*
X3664Y93614D01*
X3631Y93629D01*
X3587Y93646D01*
X3537Y93658D01*
X3480Y93670D01*
X3415Y93673D01*
X3389D01*
X3371Y93670D01*
X3347Y93667D01*
X3321Y93664D01*
X3291Y93658D01*
X3258Y93652D01*
X3190Y93632D01*
X3155Y93617D01*
X3119Y93599D01*
X3084Y93578D01*
X3048Y93558D01*
X3016Y93528D01*
X2983Y93498D01*
X2980Y93495D01*
X2977Y93489D01*
X2968Y93481D01*
X2959Y93466D01*
X2948Y93448D01*
X2933Y93427D01*
X2918Y93401D01*
X2906Y93371D01*
X2891Y93336D01*
X2877Y93297D01*
X2862Y93256D01*
X2850Y93211D01*
X2841Y93161D01*
X2832Y93105D01*
X2829Y93049D01*
X2826Y92986D01*
Y92983D01*
Y92971D01*
Y92951D01*
X2829Y92927D01*
X2832Y92895D01*
X2835Y92862D01*
X2841Y92821D01*
X2847Y92779D01*
X2865Y92690D01*
X2894Y92599D01*
X2912Y92554D01*
X2933Y92513D01*
X2959Y92471D01*
X2986Y92436D01*
X2989Y92433D01*
X2995Y92427D01*
X3004Y92418D01*
X3016Y92406D01*
X3033Y92394D01*
X3051Y92377D01*
X3075Y92362D01*
X3101Y92344D01*
X3131Y92326D01*
X3161Y92311D01*
X3235Y92282D01*
X3276Y92270D01*
X3318Y92261D01*
X3365Y92255D01*
X3412Y92252D01*
X3436D01*
X3460Y92255D01*
X3495Y92258D01*
X3534Y92264D01*
X3578Y92273D01*
X3625Y92285D01*
X3673Y92303D01*
X3676D01*
X3679Y92305D01*
X3694Y92311D01*
X3720Y92323D01*
X3750Y92338D01*
X3785Y92356D01*
X3824Y92377D01*
X3862Y92400D01*
X3898Y92427D01*
Y92690D01*
X3424D01*
Y93037D01*
X4315D01*
Y92214D01*
X4309Y92208D01*
X4300Y92202D01*
X4291Y92193D01*
X4277Y92181D01*
X4262Y92169D01*
X4220Y92140D01*
X4164Y92107D01*
X4099Y92069D01*
X4025Y92030D01*
X3936Y91995D01*
X3933D01*
X3924Y91992D01*
X3913Y91986D01*
X3895Y91980D01*
X3871Y91974D01*
X3844Y91965D01*
X3815Y91956D01*
X3782Y91947D01*
X3708Y91930D01*
X3622Y91915D01*
X3534Y91903D01*
X3439Y91900D01*
X3406D01*
X3386Y91903D01*
X3356D01*
X3323Y91906D01*
X3288Y91912D01*
X3247Y91918D01*
X3161Y91933D01*
X3066Y91956D01*
X2968Y91989D01*
X2924Y92010D01*
X2877Y92033D01*
X2874Y92036D01*
X2868Y92039D01*
X2853Y92048D01*
X2838Y92060D01*
X2817Y92072D01*
X2797Y92089D01*
X2770Y92110D01*
X2743Y92134D01*
X2684Y92187D01*
X2625Y92255D01*
X2569Y92332D01*
X2518Y92421D01*
Y92424D01*
X2513Y92433D01*
X2507Y92448D01*
X2501Y92465D01*
X2492Y92489D01*
X2480Y92516D01*
X2471Y92548D01*
X2459Y92584D01*
X2447Y92622D01*
X2438Y92667D01*
X2418Y92758D01*
X2406Y92859D01*
X2400Y92969D01*
Y92971D01*
Y92983D01*
Y93001D01*
X2403Y93022D01*
Y93051D01*
X2406Y93084D01*
X2412Y93120D01*
X2418Y93161D01*
X2433Y93247D01*
X2456Y93344D01*
X2489Y93442D01*
X2510Y93489D01*
X2533Y93537D01*
X2536Y93540D01*
X2539Y93549D01*
X2548Y93561D01*
X2557Y93578D01*
X2572Y93599D01*
X2589Y93623D01*
X2610Y93649D01*
X2631Y93679D01*
X2657Y93709D01*
X2687Y93741D01*
X2720Y93774D01*
X2755Y93806D01*
X2794Y93836D01*
X2832Y93868D01*
X2924Y93922D01*
X2927D01*
X2933Y93928D01*
X2945Y93931D01*
X2959Y93939D01*
X2980Y93945D01*
X3001Y93954D01*
X3031Y93963D01*
X3060Y93975D01*
X3093Y93984D01*
X3131Y93993D01*
X3173Y94002D01*
X3214Y94011D01*
X3309Y94022D01*
X3415Y94025D01*
X3451D01*
X3477Y94022D01*
D02*
G37*
G36*
X6328Y91939D02*
X5914D01*
X5082Y93288D01*
Y91939D01*
X4700D01*
Y93987D01*
X5099D01*
X5946Y92607D01*
Y93987D01*
X6328D01*
Y91939D01*
D02*
G37*
G36*
X7607Y93984D02*
X7663Y93981D01*
X7725Y93978D01*
X7790Y93969D01*
X7852Y93960D01*
X7909Y93945D01*
X7912D01*
X7917Y93942D01*
X7926Y93939D01*
X7938Y93937D01*
X7974Y93922D01*
X8015Y93901D01*
X8062Y93874D01*
X8116Y93842D01*
X8166Y93803D01*
X8216Y93756D01*
X8219D01*
X8222Y93750D01*
X8237Y93732D01*
X8261Y93703D01*
X8287Y93664D01*
X8320Y93617D01*
X8353Y93561D01*
X8385Y93495D01*
X8412Y93424D01*
Y93421D01*
X8415Y93415D01*
X8418Y93404D01*
X8424Y93389D01*
X8427Y93371D01*
X8433Y93347D01*
X8438Y93321D01*
X8447Y93291D01*
X8453Y93259D01*
X8459Y93220D01*
X8465Y93182D01*
X8468Y93137D01*
X8477Y93046D01*
X8480Y92942D01*
Y92939D01*
Y92930D01*
Y92918D01*
Y92901D01*
X8477Y92877D01*
Y92853D01*
X8474Y92823D01*
X8471Y92791D01*
X8465Y92723D01*
X8453Y92652D01*
X8435Y92578D01*
X8415Y92507D01*
Y92504D01*
X8412Y92498D01*
X8406Y92486D01*
X8400Y92468D01*
X8394Y92451D01*
X8382Y92430D01*
X8359Y92377D01*
X8329Y92320D01*
X8290Y92258D01*
X8246Y92199D01*
X8196Y92143D01*
X8190Y92137D01*
X8175Y92125D01*
X8151Y92107D01*
X8119Y92084D01*
X8077Y92057D01*
X8030Y92030D01*
X7971Y92004D01*
X7906Y91980D01*
X7903D01*
X7900Y91977D01*
X7891D01*
X7882Y91974D01*
X7849Y91968D01*
X7808Y91959D01*
X7758Y91950D01*
X7695Y91944D01*
X7621Y91941D01*
X7542Y91939D01*
X6766D01*
Y93987D01*
X7583D01*
X7607Y93984D01*
D02*
G37*
G36*
X3285Y101022D02*
X3318Y101019D01*
X3356Y101016D01*
X3395Y101011D01*
X3439Y101005D01*
X3534Y100984D01*
X3581Y100969D01*
X3628Y100954D01*
X3676Y100934D01*
X3720Y100910D01*
X3762Y100883D01*
X3800Y100854D01*
X3803Y100851D01*
X3809Y100845D01*
X3818Y100836D01*
X3830Y100824D01*
X3844Y100806D01*
X3862Y100786D01*
X3880Y100762D01*
X3901Y100735D01*
X3918Y100703D01*
X3936Y100670D01*
X3954Y100632D01*
X3969Y100590D01*
X3984Y100549D01*
X3995Y100501D01*
X4004Y100454D01*
X4007Y100401D01*
X3593Y100386D01*
Y100389D01*
Y100392D01*
X3587Y100413D01*
X3581Y100439D01*
X3569Y100472D01*
X3554Y100510D01*
X3534Y100546D01*
X3507Y100581D01*
X3477Y100611D01*
X3475Y100614D01*
X3463Y100623D01*
X3442Y100635D01*
X3412Y100646D01*
X3377Y100658D01*
X3332Y100670D01*
X3279Y100679D01*
X3217Y100682D01*
X3187D01*
X3155Y100679D01*
X3116Y100673D01*
X3072Y100664D01*
X3025Y100649D01*
X2980Y100632D01*
X2939Y100605D01*
X2936Y100602D01*
X2930Y100596D01*
X2918Y100587D01*
X2906Y100572D01*
X2894Y100555D01*
X2882Y100531D01*
X2877Y100507D01*
X2874Y100478D01*
Y100475D01*
Y100466D01*
X2877Y100451D01*
X2882Y100436D01*
X2888Y100416D01*
X2897Y100395D01*
X2912Y100374D01*
X2933Y100353D01*
X2936Y100350D01*
X2951Y100341D01*
X2959Y100336D01*
X2974Y100330D01*
X2989Y100321D01*
X3010Y100312D01*
X3033Y100303D01*
X3060Y100291D01*
X3093Y100279D01*
X3125Y100268D01*
X3167Y100256D01*
X3211Y100244D01*
X3258Y100232D01*
X3312Y100217D01*
X3315D01*
X3326Y100214D01*
X3341Y100211D01*
X3362Y100205D01*
X3386Y100199D01*
X3415Y100191D01*
X3448Y100182D01*
X3480Y100173D01*
X3551Y100149D01*
X3625Y100125D01*
X3697Y100099D01*
X3726Y100084D01*
X3756Y100069D01*
X3759D01*
X3762Y100066D01*
X3779Y100054D01*
X3806Y100037D01*
X3839Y100013D01*
X3874Y99983D01*
X3913Y99948D01*
X3951Y99906D01*
X3984Y99859D01*
X3987Y99853D01*
X3995Y99835D01*
X4010Y99809D01*
X4025Y99770D01*
X4040Y99723D01*
X4055Y99667D01*
X4064Y99604D01*
X4067Y99533D01*
Y99531D01*
Y99525D01*
Y99516D01*
Y99504D01*
X4064Y99489D01*
X4061Y99468D01*
X4055Y99427D01*
X4043Y99374D01*
X4025Y99317D01*
X3998Y99261D01*
X3966Y99202D01*
Y99199D01*
X3960Y99196D01*
X3948Y99178D01*
X3924Y99149D01*
X3895Y99116D01*
X3856Y99078D01*
X3806Y99042D01*
X3753Y99007D01*
X3688Y98974D01*
X3685D01*
X3679Y98971D01*
X3670Y98968D01*
X3655Y98962D01*
X3637Y98956D01*
X3617Y98950D01*
X3593Y98944D01*
X3566Y98939D01*
X3534Y98930D01*
X3501Y98924D01*
X3424Y98912D01*
X3338Y98903D01*
X3244Y98900D01*
X3205D01*
X3179Y98903D01*
X3146Y98906D01*
X3110Y98909D01*
X3069Y98915D01*
X3025Y98924D01*
X2927Y98944D01*
X2877Y98959D01*
X2829Y98974D01*
X2779Y98995D01*
X2732Y99018D01*
X2687Y99045D01*
X2646Y99078D01*
X2643Y99081D01*
X2637Y99086D01*
X2625Y99095D01*
X2613Y99110D01*
X2595Y99131D01*
X2578Y99155D01*
X2557Y99181D01*
X2536Y99211D01*
X2515Y99246D01*
X2495Y99285D01*
X2474Y99329D01*
X2453Y99377D01*
X2438Y99427D01*
X2421Y99483D01*
X2409Y99542D01*
X2400Y99604D01*
X2803Y99643D01*
Y99640D01*
X2805Y99634D01*
Y99622D01*
X2809Y99610D01*
X2820Y99575D01*
X2835Y99531D01*
X2853Y99480D01*
X2880Y99430D01*
X2909Y99385D01*
X2948Y99344D01*
X2953Y99341D01*
X2968Y99329D01*
X2992Y99314D01*
X3028Y99297D01*
X3072Y99279D01*
X3122Y99264D01*
X3181Y99252D01*
X3249Y99249D01*
X3282D01*
X3318Y99255D01*
X3362Y99261D01*
X3409Y99270D01*
X3460Y99285D01*
X3507Y99305D01*
X3548Y99332D01*
X3554Y99335D01*
X3566Y99347D01*
X3581Y99365D01*
X3602Y99388D01*
X3619Y99418D01*
X3637Y99454D01*
X3649Y99489D01*
X3652Y99531D01*
Y99533D01*
Y99542D01*
X3649Y99557D01*
X3646Y99575D01*
X3640Y99593D01*
X3634Y99613D01*
X3622Y99634D01*
X3608Y99655D01*
X3605Y99658D01*
X3599Y99664D01*
X3590Y99673D01*
X3575Y99684D01*
X3554Y99699D01*
X3528Y99714D01*
X3498Y99729D01*
X3460Y99744D01*
X3457D01*
X3445Y99749D01*
X3424Y99755D01*
X3409Y99761D01*
X3392Y99764D01*
X3371Y99770D01*
X3347Y99779D01*
X3321Y99785D01*
X3291Y99794D01*
X3255Y99803D01*
X3217Y99812D01*
X3176Y99823D01*
X3128Y99835D01*
X3125D01*
X3113Y99838D01*
X3096Y99844D01*
X3075Y99850D01*
X3048Y99859D01*
X3016Y99868D01*
X2983Y99880D01*
X2945Y99892D01*
X2868Y99921D01*
X2794Y99957D01*
X2755Y99975D01*
X2723Y99995D01*
X2690Y100016D01*
X2663Y100037D01*
X2661Y100040D01*
X2655Y100046D01*
X2646Y100054D01*
X2634Y100066D01*
X2619Y100084D01*
X2604Y100105D01*
X2586Y100125D01*
X2572Y100152D01*
X2536Y100214D01*
X2507Y100285D01*
X2495Y100324D01*
X2486Y100362D01*
X2480Y100407D01*
X2477Y100451D01*
Y100454D01*
Y100457D01*
Y100466D01*
Y100478D01*
X2483Y100507D01*
X2489Y100546D01*
X2498Y100590D01*
X2513Y100640D01*
X2533Y100694D01*
X2563Y100744D01*
Y100747D01*
X2566Y100750D01*
X2581Y100768D01*
X2598Y100791D01*
X2628Y100821D01*
X2663Y100854D01*
X2708Y100889D01*
X2758Y100922D01*
X2817Y100951D01*
X2820D01*
X2826Y100954D01*
X2835Y100957D01*
X2847Y100963D01*
X2865Y100969D01*
X2882Y100975D01*
X2906Y100981D01*
X2933Y100990D01*
X2992Y101002D01*
X3060Y101013D01*
X3137Y101022D01*
X3223Y101025D01*
X3258D01*
X3285Y101022D01*
D02*
G37*
G36*
X8329Y98939D02*
X7882D01*
X7704Y99403D01*
X6881D01*
X6713Y98939D01*
X6275D01*
X7068Y100987D01*
X7506D01*
X8329Y98939D01*
D02*
G37*
G36*
X5259Y100984D02*
X5316Y100981D01*
X5378Y100978D01*
X5443Y100969D01*
X5505Y100960D01*
X5561Y100945D01*
X5564D01*
X5570Y100942D01*
X5579Y100939D01*
X5591Y100936D01*
X5626Y100922D01*
X5668Y100901D01*
X5715Y100874D01*
X5768Y100842D01*
X5819Y100803D01*
X5869Y100756D01*
X5872D01*
X5875Y100750D01*
X5890Y100732D01*
X5914Y100703D01*
X5940Y100664D01*
X5973Y100617D01*
X6005Y100561D01*
X6038Y100495D01*
X6064Y100424D01*
Y100421D01*
X6067Y100416D01*
X6070Y100404D01*
X6076Y100389D01*
X6079Y100371D01*
X6085Y100347D01*
X6091Y100321D01*
X6100Y100291D01*
X6106Y100259D01*
X6112Y100220D01*
X6118Y100182D01*
X6121Y100137D01*
X6130Y100046D01*
X6133Y99942D01*
Y99939D01*
Y99930D01*
Y99918D01*
Y99901D01*
X6130Y99877D01*
Y99853D01*
X6127Y99823D01*
X6124Y99791D01*
X6118Y99723D01*
X6106Y99652D01*
X6088Y99578D01*
X6067Y99507D01*
Y99504D01*
X6064Y99498D01*
X6059Y99486D01*
X6053Y99468D01*
X6047Y99451D01*
X6035Y99430D01*
X6011Y99377D01*
X5982Y99320D01*
X5943Y99258D01*
X5899Y99199D01*
X5848Y99143D01*
X5843Y99137D01*
X5828Y99125D01*
X5804Y99107D01*
X5771Y99084D01*
X5730Y99057D01*
X5683Y99030D01*
X5623Y99004D01*
X5558Y98980D01*
X5555D01*
X5552Y98977D01*
X5544D01*
X5535Y98974D01*
X5502Y98968D01*
X5461Y98959D01*
X5410Y98950D01*
X5348Y98944D01*
X5274Y98941D01*
X5194Y98939D01*
X4419D01*
Y100987D01*
X5236D01*
X5259Y100984D01*
D02*
G37*
G36*
X3285Y97522D02*
X3318Y97519D01*
X3356Y97516D01*
X3395Y97510D01*
X3439Y97505D01*
X3534Y97484D01*
X3581Y97469D01*
X3628Y97454D01*
X3676Y97434D01*
X3720Y97410D01*
X3762Y97383D01*
X3800Y97354D01*
X3803Y97351D01*
X3809Y97345D01*
X3818Y97336D01*
X3830Y97324D01*
X3844Y97306D01*
X3862Y97285D01*
X3880Y97262D01*
X3901Y97235D01*
X3918Y97203D01*
X3936Y97170D01*
X3954Y97132D01*
X3969Y97090D01*
X3984Y97049D01*
X3995Y97001D01*
X4004Y96954D01*
X4007Y96901D01*
X3593Y96886D01*
Y96889D01*
Y96892D01*
X3587Y96913D01*
X3581Y96939D01*
X3569Y96972D01*
X3554Y97010D01*
X3534Y97046D01*
X3507Y97081D01*
X3477Y97111D01*
X3475Y97114D01*
X3463Y97123D01*
X3442Y97135D01*
X3412Y97146D01*
X3377Y97158D01*
X3332Y97170D01*
X3279Y97179D01*
X3217Y97182D01*
X3187D01*
X3155Y97179D01*
X3116Y97173D01*
X3072Y97164D01*
X3025Y97149D01*
X2980Y97132D01*
X2939Y97105D01*
X2936Y97102D01*
X2930Y97096D01*
X2918Y97087D01*
X2906Y97072D01*
X2894Y97055D01*
X2882Y97031D01*
X2877Y97007D01*
X2874Y96978D01*
Y96975D01*
Y96966D01*
X2877Y96951D01*
X2882Y96936D01*
X2888Y96916D01*
X2897Y96895D01*
X2912Y96874D01*
X2933Y96853D01*
X2936Y96850D01*
X2951Y96842D01*
X2959Y96836D01*
X2974Y96830D01*
X2989Y96821D01*
X3010Y96812D01*
X3033Y96803D01*
X3060Y96791D01*
X3093Y96779D01*
X3125Y96767D01*
X3167Y96756D01*
X3211Y96744D01*
X3258Y96732D01*
X3312Y96717D01*
X3315D01*
X3326Y96714D01*
X3341Y96711D01*
X3362Y96705D01*
X3386Y96699D01*
X3415Y96691D01*
X3448Y96682D01*
X3480Y96673D01*
X3551Y96649D01*
X3625Y96625D01*
X3697Y96599D01*
X3726Y96584D01*
X3756Y96569D01*
X3759D01*
X3762Y96566D01*
X3779Y96554D01*
X3806Y96537D01*
X3839Y96513D01*
X3874Y96483D01*
X3913Y96448D01*
X3951Y96406D01*
X3984Y96359D01*
X3987Y96353D01*
X3995Y96335D01*
X4010Y96309D01*
X4025Y96270D01*
X4040Y96223D01*
X4055Y96167D01*
X4064Y96105D01*
X4067Y96033D01*
Y96030D01*
Y96025D01*
Y96016D01*
Y96004D01*
X4064Y95989D01*
X4061Y95968D01*
X4055Y95927D01*
X4043Y95874D01*
X4025Y95817D01*
X3998Y95761D01*
X3966Y95702D01*
Y95699D01*
X3960Y95696D01*
X3948Y95678D01*
X3924Y95649D01*
X3895Y95616D01*
X3856Y95578D01*
X3806Y95542D01*
X3753Y95507D01*
X3688Y95474D01*
X3685D01*
X3679Y95471D01*
X3670Y95468D01*
X3655Y95462D01*
X3637Y95456D01*
X3617Y95450D01*
X3593Y95444D01*
X3566Y95438D01*
X3534Y95430D01*
X3501Y95424D01*
X3424Y95412D01*
X3338Y95403D01*
X3244Y95400D01*
X3205D01*
X3179Y95403D01*
X3146Y95406D01*
X3110Y95409D01*
X3069Y95415D01*
X3025Y95424D01*
X2927Y95444D01*
X2877Y95459D01*
X2829Y95474D01*
X2779Y95495D01*
X2732Y95518D01*
X2687Y95545D01*
X2646Y95578D01*
X2643Y95581D01*
X2637Y95587D01*
X2625Y95595D01*
X2613Y95610D01*
X2595Y95631D01*
X2578Y95655D01*
X2557Y95681D01*
X2536Y95711D01*
X2515Y95746D01*
X2495Y95785D01*
X2474Y95829D01*
X2453Y95877D01*
X2438Y95927D01*
X2421Y95983D01*
X2409Y96042D01*
X2400Y96105D01*
X2803Y96143D01*
Y96140D01*
X2805Y96134D01*
Y96122D01*
X2809Y96110D01*
X2820Y96075D01*
X2835Y96030D01*
X2853Y95980D01*
X2880Y95930D01*
X2909Y95885D01*
X2948Y95844D01*
X2953Y95841D01*
X2968Y95829D01*
X2992Y95814D01*
X3028Y95797D01*
X3072Y95779D01*
X3122Y95764D01*
X3181Y95752D01*
X3249Y95749D01*
X3282D01*
X3318Y95755D01*
X3362Y95761D01*
X3409Y95770D01*
X3460Y95785D01*
X3507Y95806D01*
X3548Y95832D01*
X3554Y95835D01*
X3566Y95847D01*
X3581Y95865D01*
X3602Y95888D01*
X3619Y95918D01*
X3637Y95954D01*
X3649Y95989D01*
X3652Y96030D01*
Y96033D01*
Y96042D01*
X3649Y96057D01*
X3646Y96075D01*
X3640Y96093D01*
X3634Y96113D01*
X3622Y96134D01*
X3608Y96155D01*
X3605Y96158D01*
X3599Y96164D01*
X3590Y96173D01*
X3575Y96184D01*
X3554Y96199D01*
X3528Y96214D01*
X3498Y96229D01*
X3460Y96244D01*
X3457D01*
X3445Y96250D01*
X3424Y96255D01*
X3409Y96261D01*
X3392Y96264D01*
X3371Y96270D01*
X3347Y96279D01*
X3321Y96285D01*
X3291Y96294D01*
X3255Y96303D01*
X3217Y96312D01*
X3176Y96324D01*
X3128Y96335D01*
X3125D01*
X3113Y96338D01*
X3096Y96344D01*
X3075Y96350D01*
X3048Y96359D01*
X3016Y96368D01*
X2983Y96380D01*
X2945Y96392D01*
X2868Y96421D01*
X2794Y96457D01*
X2755Y96474D01*
X2723Y96495D01*
X2690Y96516D01*
X2663Y96537D01*
X2661Y96540D01*
X2655Y96545D01*
X2646Y96554D01*
X2634Y96566D01*
X2619Y96584D01*
X2604Y96605D01*
X2586Y96625D01*
X2572Y96652D01*
X2536Y96714D01*
X2507Y96785D01*
X2495Y96824D01*
X2486Y96862D01*
X2480Y96907D01*
X2477Y96951D01*
Y96954D01*
Y96957D01*
Y96966D01*
Y96978D01*
X2483Y97007D01*
X2489Y97046D01*
X2498Y97090D01*
X2513Y97141D01*
X2533Y97194D01*
X2563Y97244D01*
Y97247D01*
X2566Y97250D01*
X2581Y97268D01*
X2598Y97291D01*
X2628Y97321D01*
X2663Y97354D01*
X2708Y97389D01*
X2758Y97422D01*
X2817Y97451D01*
X2820D01*
X2826Y97454D01*
X2835Y97457D01*
X2847Y97463D01*
X2865Y97469D01*
X2882Y97475D01*
X2906Y97481D01*
X2933Y97490D01*
X2992Y97502D01*
X3060Y97513D01*
X3137Y97522D01*
X3223Y97525D01*
X3258D01*
X3285Y97522D01*
D02*
G37*
G36*
X5363D02*
X5395Y97519D01*
X5431Y97513D01*
X5472Y97508D01*
X5517Y97499D01*
X5564Y97487D01*
X5615Y97472D01*
X5665Y97454D01*
X5718Y97431D01*
X5768Y97407D01*
X5816Y97377D01*
X5866Y97342D01*
X5911Y97303D01*
X5914D01*
X5917Y97297D01*
X5925Y97289D01*
X5934Y97280D01*
X5946Y97265D01*
X5958Y97247D01*
X5991Y97206D01*
X6023Y97152D01*
X6059Y97087D01*
X6091Y97013D01*
X6121Y96927D01*
X5712Y96830D01*
Y96833D01*
X5709Y96836D01*
Y96845D01*
X5703Y96856D01*
X5694Y96883D01*
X5680Y96918D01*
X5659Y96960D01*
X5632Y97001D01*
X5597Y97043D01*
X5558Y97078D01*
X5552Y97081D01*
X5538Y97093D01*
X5514Y97108D01*
X5481Y97126D01*
X5440Y97143D01*
X5393Y97158D01*
X5339Y97170D01*
X5280Y97173D01*
X5259D01*
X5242Y97170D01*
X5224Y97167D01*
X5200Y97164D01*
X5150Y97152D01*
X5091Y97132D01*
X5029Y97102D01*
X4996Y97084D01*
X4966Y97063D01*
X4937Y97037D01*
X4910Y97007D01*
Y97004D01*
X4904Y96998D01*
X4898Y96990D01*
X4889Y96975D01*
X4877Y96957D01*
X4866Y96936D01*
X4854Y96910D01*
X4842Y96880D01*
X4827Y96845D01*
X4815Y96806D01*
X4803Y96762D01*
X4792Y96714D01*
X4783Y96661D01*
X4777Y96605D01*
X4774Y96543D01*
X4771Y96474D01*
Y96472D01*
Y96457D01*
Y96436D01*
X4774Y96412D01*
Y96380D01*
X4780Y96341D01*
X4783Y96303D01*
X4789Y96258D01*
X4806Y96167D01*
X4830Y96075D01*
X4845Y96030D01*
X4866Y95989D01*
X4886Y95951D01*
X4910Y95918D01*
X4913Y95915D01*
X4916Y95912D01*
X4925Y95903D01*
X4937Y95891D01*
X4966Y95868D01*
X5008Y95838D01*
X5058Y95806D01*
X5120Y95782D01*
X5191Y95761D01*
X5230Y95758D01*
X5271Y95755D01*
X5286D01*
X5298Y95758D01*
X5330Y95761D01*
X5369Y95767D01*
X5410Y95782D01*
X5458Y95800D01*
X5505Y95823D01*
X5552Y95859D01*
X5558Y95865D01*
X5573Y95880D01*
X5594Y95903D01*
X5618Y95939D01*
X5647Y95986D01*
X5674Y96042D01*
X5700Y96110D01*
X5724Y96190D01*
X6127Y96066D01*
Y96063D01*
X6124Y96051D01*
X6118Y96033D01*
X6109Y96010D01*
X6097Y95983D01*
X6085Y95951D01*
X6070Y95915D01*
X6053Y95877D01*
X6011Y95797D01*
X5958Y95714D01*
X5893Y95634D01*
X5857Y95598D01*
X5819Y95566D01*
X5816Y95563D01*
X5810Y95560D01*
X5798Y95551D01*
X5780Y95539D01*
X5760Y95527D01*
X5733Y95515D01*
X5703Y95501D01*
X5671Y95486D01*
X5632Y95468D01*
X5591Y95453D01*
X5547Y95441D01*
X5499Y95430D01*
X5449Y95418D01*
X5393Y95409D01*
X5336Y95406D01*
X5274Y95403D01*
X5256D01*
X5236Y95406D01*
X5206Y95409D01*
X5173Y95412D01*
X5132Y95418D01*
X5088Y95427D01*
X5037Y95438D01*
X4987Y95453D01*
X4934Y95471D01*
X4877Y95495D01*
X4821Y95521D01*
X4765Y95551D01*
X4709Y95589D01*
X4656Y95631D01*
X4605Y95681D01*
X4602Y95684D01*
X4593Y95693D01*
X4581Y95711D01*
X4564Y95732D01*
X4546Y95761D01*
X4522Y95794D01*
X4499Y95835D01*
X4475Y95882D01*
X4451Y95933D01*
X4428Y95989D01*
X4404Y96054D01*
X4386Y96122D01*
X4368Y96193D01*
X4357Y96273D01*
X4348Y96356D01*
X4345Y96445D01*
Y96448D01*
Y96451D01*
Y96469D01*
X4348Y96495D01*
Y96531D01*
X4354Y96572D01*
X4360Y96623D01*
X4365Y96676D01*
X4377Y96738D01*
X4392Y96800D01*
X4410Y96865D01*
X4431Y96930D01*
X4457Y96998D01*
X4487Y97063D01*
X4522Y97126D01*
X4561Y97185D01*
X4608Y97241D01*
X4611Y97244D01*
X4620Y97253D01*
X4635Y97268D01*
X4656Y97285D01*
X4682Y97306D01*
X4715Y97330D01*
X4750Y97357D01*
X4795Y97383D01*
X4842Y97410D01*
X4892Y97436D01*
X4952Y97460D01*
X5011Y97481D01*
X5079Y97499D01*
X5147Y97513D01*
X5224Y97522D01*
X5301Y97525D01*
X5336D01*
X5363Y97522D01*
D02*
G37*
G36*
X6908Y95785D02*
X7938D01*
Y95438D01*
X6494D01*
Y97472D01*
X6908D01*
Y95785D01*
D02*
G37*
G36*
X5046Y102438D02*
X4599D01*
X3865Y104487D01*
X4312D01*
X4833Y102971D01*
X5333Y104487D01*
X5774D01*
X5046Y102438D01*
D02*
G37*
G36*
X3688Y104093D02*
X2945D01*
X2882Y103744D01*
X2885D01*
X2888Y103747D01*
X2906Y103756D01*
X2933Y103765D01*
X2965Y103779D01*
X3007Y103791D01*
X3051Y103800D01*
X3101Y103809D01*
X3152Y103812D01*
X3179D01*
X3196Y103809D01*
X3217Y103806D01*
X3244Y103803D01*
X3273Y103797D01*
X3306Y103788D01*
X3374Y103765D01*
X3412Y103750D01*
X3448Y103732D01*
X3486Y103708D01*
X3525Y103682D01*
X3560Y103652D01*
X3596Y103620D01*
X3599Y103617D01*
X3605Y103611D01*
X3614Y103599D01*
X3625Y103584D01*
X3637Y103566D01*
X3655Y103543D01*
X3670Y103516D01*
X3688Y103486D01*
X3705Y103454D01*
X3720Y103415D01*
X3738Y103374D01*
X3750Y103332D01*
X3762Y103285D01*
X3771Y103235D01*
X3776Y103181D01*
X3779Y103125D01*
Y103122D01*
Y103113D01*
Y103102D01*
X3776Y103084D01*
Y103060D01*
X3771Y103033D01*
X3768Y103004D01*
X3762Y102974D01*
X3744Y102903D01*
X3717Y102826D01*
X3699Y102785D01*
X3682Y102746D01*
X3658Y102708D01*
X3631Y102669D01*
X3628Y102666D01*
X3622Y102657D01*
X3611Y102646D01*
X3596Y102628D01*
X3575Y102607D01*
X3548Y102584D01*
X3519Y102560D01*
X3486Y102536D01*
X3448Y102509D01*
X3406Y102486D01*
X3362Y102462D01*
X3312Y102441D01*
X3258Y102424D01*
X3202Y102412D01*
X3140Y102403D01*
X3075Y102400D01*
X3048D01*
X3028Y102403D01*
X3004Y102406D01*
X2974Y102409D01*
X2945Y102412D01*
X2909Y102418D01*
X2838Y102436D01*
X2758Y102465D01*
X2720Y102480D01*
X2681Y102501D01*
X2646Y102524D01*
X2610Y102551D01*
X2607Y102554D01*
X2601Y102557D01*
X2592Y102566D01*
X2581Y102578D01*
X2569Y102595D01*
X2551Y102613D01*
X2536Y102634D01*
X2518Y102657D01*
X2498Y102687D01*
X2480Y102717D01*
X2447Y102788D01*
X2418Y102868D01*
X2409Y102912D01*
X2400Y102959D01*
X2791Y103001D01*
Y102995D01*
X2794Y102980D01*
X2800Y102954D01*
X2809Y102924D01*
X2820Y102891D01*
X2838Y102856D01*
X2862Y102823D01*
X2888Y102791D01*
X2891Y102788D01*
X2903Y102779D01*
X2921Y102767D01*
X2945Y102752D01*
X2971Y102737D01*
X3004Y102726D01*
X3042Y102717D01*
X3081Y102714D01*
X3087D01*
X3101Y102717D01*
X3125Y102720D01*
X3155Y102726D01*
X3187Y102737D01*
X3223Y102755D01*
X3258Y102782D01*
X3291Y102814D01*
X3294Y102820D01*
X3306Y102832D01*
X3318Y102856D01*
X3335Y102891D01*
X3350Y102933D01*
X3365Y102983D01*
X3374Y103045D01*
X3377Y103116D01*
Y103119D01*
Y103125D01*
Y103134D01*
Y103149D01*
X3374Y103181D01*
X3365Y103223D01*
X3356Y103270D01*
X3341Y103318D01*
X3321Y103362D01*
X3291Y103401D01*
X3288Y103403D01*
X3276Y103415D01*
X3255Y103430D01*
X3232Y103451D01*
X3199Y103469D01*
X3161Y103483D01*
X3116Y103495D01*
X3069Y103498D01*
X3051D01*
X3039Y103495D01*
X3010Y103489D01*
X2968Y103480D01*
X2921Y103463D01*
X2871Y103436D01*
X2844Y103418D01*
X2817Y103398D01*
X2791Y103374D01*
X2764Y103347D01*
X2447Y103392D01*
X2649Y104460D01*
X3688D01*
Y104093D01*
D02*
G37*
G36*
X3563Y43258D02*
Y42400D01*
X3149D01*
Y43261D01*
X2400Y44448D01*
X2882D01*
X3365Y43637D01*
X3836Y44448D01*
X4312D01*
X3563Y43258D01*
D02*
G37*
G36*
X11599Y34966D02*
X12303Y33900D01*
X11806D01*
X11353Y34593D01*
X10897Y33900D01*
X10400D01*
X11107Y34966D01*
X10465Y35948D01*
X10948D01*
X11353Y35336D01*
X11759Y35948D01*
X12241D01*
X11599Y34966D01*
D02*
G37*
G36*
X67500Y33000D02*
X64009D01*
Y73088D01*
X67500D01*
Y33000D01*
D02*
G37*
G36*
X27443Y91461D02*
Y91458D01*
Y91447D01*
Y91428D01*
Y91406D01*
Y91378D01*
X27440Y91345D01*
Y91309D01*
Y91273D01*
X27435Y91193D01*
X27429Y91109D01*
X27427Y91073D01*
X27421Y91037D01*
X27415Y91004D01*
X27410Y90974D01*
Y90971D01*
X27407Y90968D01*
Y90960D01*
X27404Y90952D01*
X27396Y90924D01*
X27385Y90891D01*
X27368Y90852D01*
X27349Y90813D01*
X27324Y90772D01*
X27294Y90733D01*
X27291Y90727D01*
X27280Y90716D01*
X27260Y90699D01*
X27235Y90677D01*
X27202Y90652D01*
X27163Y90627D01*
X27119Y90600D01*
X27069Y90578D01*
X27066D01*
X27064Y90575D01*
X27055Y90572D01*
X27044Y90569D01*
X27031Y90564D01*
X27014Y90558D01*
X26992Y90553D01*
X26970Y90550D01*
X26917Y90539D01*
X26853Y90528D01*
X26781Y90522D01*
X26701Y90519D01*
X26656D01*
X26632Y90522D01*
X26607D01*
X26576Y90525D01*
X26546Y90528D01*
X26479Y90533D01*
X26410Y90544D01*
X26341Y90561D01*
X26310Y90569D01*
X26283Y90580D01*
X26280D01*
X26277Y90583D01*
X26260Y90591D01*
X26233Y90605D01*
X26202Y90625D01*
X26166Y90650D01*
X26127Y90677D01*
X26092Y90711D01*
X26058Y90747D01*
X26055Y90752D01*
X26044Y90763D01*
X26030Y90785D01*
X26014Y90813D01*
X25997Y90843D01*
X25978Y90879D01*
X25964Y90918D01*
X25950Y90960D01*
Y90963D01*
X25947Y90968D01*
Y90977D01*
X25945Y90990D01*
X25942Y91007D01*
X25939Y91029D01*
X25936Y91054D01*
X25934Y91082D01*
X25928Y91115D01*
X25925Y91151D01*
X25923Y91190D01*
X25920Y91234D01*
X25917Y91281D01*
Y91334D01*
X25914Y91389D01*
Y91447D01*
Y92472D01*
X26302D01*
Y91431D01*
Y91428D01*
Y91420D01*
Y91409D01*
Y91392D01*
Y91370D01*
Y91348D01*
X26305Y91298D01*
Y91242D01*
X26307Y91190D01*
X26310Y91165D01*
Y91143D01*
X26313Y91126D01*
X26316Y91109D01*
Y91104D01*
X26321Y91090D01*
X26330Y91068D01*
X26341Y91040D01*
X26355Y91010D01*
X26377Y90979D01*
X26402Y90946D01*
X26432Y90918D01*
X26438Y90916D01*
X26449Y90907D01*
X26471Y90896D01*
X26499Y90885D01*
X26537Y90871D01*
X26582Y90860D01*
X26632Y90852D01*
X26690Y90849D01*
X26717D01*
X26745Y90852D01*
X26781Y90857D01*
X26823Y90866D01*
X26862Y90877D01*
X26903Y90893D01*
X26936Y90916D01*
X26939Y90918D01*
X26950Y90927D01*
X26964Y90940D01*
X26981Y90960D01*
X26997Y90985D01*
X27014Y91013D01*
X27028Y91043D01*
X27036Y91079D01*
Y91084D01*
X27039Y91098D01*
X27042Y91123D01*
X27047Y91157D01*
Y91179D01*
X27050Y91204D01*
Y91231D01*
X27053Y91259D01*
Y91292D01*
X27055Y91328D01*
Y91367D01*
Y91409D01*
Y92472D01*
X27443D01*
Y91461D01*
D02*
G37*
G36*
X28848Y91262D02*
X29086D01*
Y90940D01*
X28848D01*
Y90555D01*
X28493D01*
Y90940D01*
X27706D01*
Y91259D01*
X28537Y92481D01*
X28848D01*
Y91262D01*
D02*
G37*
G36*
X29971Y66960D02*
Y66957D01*
Y66946D01*
Y66927D01*
Y66904D01*
Y66877D01*
X29968Y66843D01*
Y66808D01*
Y66772D01*
X29963Y66691D01*
X29957Y66608D01*
X29954Y66572D01*
X29949Y66536D01*
X29943Y66503D01*
X29938Y66472D01*
Y66470D01*
X29935Y66467D01*
Y66458D01*
X29932Y66450D01*
X29924Y66422D01*
X29913Y66389D01*
X29896Y66350D01*
X29877Y66312D01*
X29852Y66270D01*
X29821Y66231D01*
X29819Y66226D01*
X29807Y66215D01*
X29788Y66198D01*
X29763Y66176D01*
X29730Y66151D01*
X29691Y66126D01*
X29647Y66098D01*
X29597Y66076D01*
X29594D01*
X29591Y66073D01*
X29583Y66071D01*
X29572Y66068D01*
X29558Y66062D01*
X29542Y66057D01*
X29519Y66051D01*
X29497Y66049D01*
X29445Y66037D01*
X29381Y66026D01*
X29309Y66021D01*
X29229Y66018D01*
X29184D01*
X29159Y66021D01*
X29134D01*
X29104Y66024D01*
X29073Y66026D01*
X29007Y66032D01*
X28938Y66043D01*
X28868Y66060D01*
X28838Y66068D01*
X28810Y66079D01*
X28808D01*
X28805Y66082D01*
X28788Y66090D01*
X28760Y66104D01*
X28730Y66123D01*
X28694Y66148D01*
X28655Y66176D01*
X28619Y66209D01*
X28586Y66245D01*
X28583Y66251D01*
X28572Y66262D01*
X28558Y66284D01*
X28542Y66312D01*
X28525Y66342D01*
X28506Y66378D01*
X28492Y66417D01*
X28478Y66458D01*
Y66461D01*
X28475Y66467D01*
Y66475D01*
X28472Y66489D01*
X28470Y66506D01*
X28467Y66528D01*
X28464Y66553D01*
X28461Y66580D01*
X28456Y66614D01*
X28453Y66650D01*
X28450Y66688D01*
X28447Y66733D01*
X28445Y66780D01*
Y66832D01*
X28442Y66888D01*
Y66946D01*
Y67971D01*
X28830D01*
Y66929D01*
Y66927D01*
Y66918D01*
Y66907D01*
Y66891D01*
Y66868D01*
Y66846D01*
X28833Y66796D01*
Y66741D01*
X28835Y66688D01*
X28838Y66663D01*
Y66641D01*
X28841Y66625D01*
X28844Y66608D01*
Y66602D01*
X28849Y66589D01*
X28857Y66566D01*
X28868Y66539D01*
X28882Y66508D01*
X28905Y66478D01*
X28929Y66445D01*
X28960Y66417D01*
X28965Y66414D01*
X28977Y66406D01*
X28999Y66395D01*
X29026Y66384D01*
X29065Y66370D01*
X29109Y66359D01*
X29159Y66350D01*
X29217Y66348D01*
X29245D01*
X29273Y66350D01*
X29309Y66356D01*
X29350Y66364D01*
X29389Y66375D01*
X29431Y66392D01*
X29464Y66414D01*
X29467Y66417D01*
X29478Y66425D01*
X29492Y66439D01*
X29508Y66458D01*
X29525Y66483D01*
X29542Y66511D01*
X29555Y66542D01*
X29564Y66578D01*
Y66583D01*
X29566Y66597D01*
X29569Y66622D01*
X29575Y66655D01*
Y66677D01*
X29578Y66702D01*
Y66730D01*
X29580Y66758D01*
Y66791D01*
X29583Y66827D01*
Y66866D01*
Y66907D01*
Y67971D01*
X29971D01*
Y66960D01*
D02*
G37*
G36*
X30946Y67979D02*
X30971Y67976D01*
X30996Y67974D01*
X31026Y67968D01*
X31057Y67960D01*
X31126Y67940D01*
X31162Y67927D01*
X31201Y67907D01*
X31237Y67888D01*
X31270Y67866D01*
X31306Y67838D01*
X31337Y67808D01*
X31339Y67805D01*
X31342Y67802D01*
X31350Y67794D01*
X31359Y67782D01*
X31381Y67755D01*
X31406Y67716D01*
X31431Y67669D01*
X31450Y67614D01*
X31467Y67553D01*
X31470Y67522D01*
X31472Y67489D01*
Y67486D01*
Y67478D01*
X31470Y67464D01*
X31467Y67447D01*
X31464Y67425D01*
X31458Y67400D01*
X31450Y67373D01*
X31439Y67342D01*
X31422Y67312D01*
X31406Y67278D01*
X31384Y67245D01*
X31356Y67212D01*
X31323Y67179D01*
X31287Y67145D01*
X31245Y67115D01*
X31195Y67084D01*
X31198D01*
X31204Y67082D01*
X31212D01*
X31223Y67076D01*
X31253Y67068D01*
X31289Y67051D01*
X31331Y67029D01*
X31375Y67001D01*
X31420Y66965D01*
X31458Y66924D01*
X31464Y66918D01*
X31475Y66902D01*
X31489Y66877D01*
X31508Y66841D01*
X31528Y66799D01*
X31541Y66747D01*
X31553Y66691D01*
X31558Y66627D01*
Y66625D01*
Y66616D01*
Y66602D01*
X31555Y66586D01*
X31553Y66564D01*
X31547Y66539D01*
X31541Y66508D01*
X31536Y66478D01*
X31514Y66411D01*
X31497Y66375D01*
X31481Y66337D01*
X31458Y66301D01*
X31433Y66265D01*
X31406Y66229D01*
X31372Y66195D01*
X31370Y66193D01*
X31364Y66187D01*
X31353Y66179D01*
X31339Y66168D01*
X31320Y66154D01*
X31301Y66140D01*
X31273Y66123D01*
X31245Y66107D01*
X31215Y66090D01*
X31179Y66073D01*
X31140Y66060D01*
X31101Y66046D01*
X31057Y66035D01*
X31012Y66026D01*
X30963Y66021D01*
X30913Y66018D01*
X30888D01*
X30868Y66021D01*
X30846Y66024D01*
X30821Y66026D01*
X30794Y66032D01*
X30760Y66037D01*
X30694Y66054D01*
X30622Y66082D01*
X30583Y66098D01*
X30550Y66118D01*
X30514Y66143D01*
X30481Y66168D01*
X30478Y66170D01*
X30472Y66176D01*
X30464Y66184D01*
X30453Y66195D01*
X30439Y66209D01*
X30425Y66229D01*
X30409Y66248D01*
X30392Y66273D01*
X30375Y66301D01*
X30356Y66328D01*
X30325Y66395D01*
X30301Y66472D01*
X30290Y66514D01*
X30284Y66558D01*
X30639Y66602D01*
Y66600D01*
Y66597D01*
X30641Y66580D01*
X30647Y66555D01*
X30655Y66525D01*
X30669Y66492D01*
X30683Y66456D01*
X30705Y66422D01*
X30730Y66392D01*
X30733Y66389D01*
X30744Y66381D01*
X30760Y66370D01*
X30780Y66359D01*
X30808Y66345D01*
X30838Y66334D01*
X30871Y66325D01*
X30910Y66323D01*
X30915D01*
X30929Y66325D01*
X30949Y66328D01*
X30976Y66334D01*
X31007Y66345D01*
X31037Y66359D01*
X31071Y66381D01*
X31101Y66409D01*
X31104Y66411D01*
X31115Y66425D01*
X31126Y66445D01*
X31143Y66470D01*
X31157Y66503D01*
X31170Y66544D01*
X31179Y66591D01*
X31181Y66644D01*
Y66647D01*
Y66650D01*
Y66666D01*
X31179Y66691D01*
X31173Y66724D01*
X31162Y66760D01*
X31148Y66796D01*
X31129Y66832D01*
X31104Y66866D01*
X31101Y66868D01*
X31090Y66879D01*
X31073Y66893D01*
X31054Y66907D01*
X31026Y66924D01*
X30996Y66935D01*
X30963Y66946D01*
X30924Y66949D01*
X30896D01*
X30877Y66946D01*
X30852Y66943D01*
X30821Y66938D01*
X30791Y66929D01*
X30755Y66921D01*
X30794Y67217D01*
X30819D01*
X30846Y67220D01*
X30880Y67223D01*
X30915Y67231D01*
X30954Y67242D01*
X30990Y67259D01*
X31023Y67281D01*
X31026Y67284D01*
X31037Y67295D01*
X31049Y67309D01*
X31065Y67331D01*
X31079Y67356D01*
X31093Y67386D01*
X31101Y67422D01*
X31104Y67464D01*
Y67470D01*
Y67481D01*
X31101Y67497D01*
X31095Y67519D01*
X31090Y67544D01*
X31079Y67569D01*
X31065Y67597D01*
X31046Y67619D01*
X31043Y67622D01*
X31035Y67627D01*
X31023Y67638D01*
X31004Y67650D01*
X30982Y67658D01*
X30957Y67669D01*
X30924Y67674D01*
X30891Y67677D01*
X30874D01*
X30857Y67674D01*
X30835Y67669D01*
X30810Y67661D01*
X30782Y67650D01*
X30755Y67633D01*
X30730Y67611D01*
X30727Y67608D01*
X30719Y67600D01*
X30708Y67583D01*
X30694Y67561D01*
X30680Y67536D01*
X30669Y67503D01*
X30658Y67464D01*
X30650Y67420D01*
X30312Y67475D01*
Y67478D01*
X30314Y67483D01*
Y67492D01*
X30317Y67506D01*
X30325Y67536D01*
X30337Y67577D01*
X30353Y67622D01*
X30370Y67669D01*
X30392Y67713D01*
X30417Y67755D01*
X30420Y67760D01*
X30431Y67772D01*
X30447Y67791D01*
X30470Y67816D01*
X30497Y67841D01*
X30531Y67868D01*
X30572Y67896D01*
X30616Y67921D01*
X30619D01*
X30622Y67924D01*
X30639Y67929D01*
X30666Y67940D01*
X30699Y67952D01*
X30741Y67963D01*
X30791Y67974D01*
X30843Y67979D01*
X30902Y67982D01*
X30927D01*
X30946Y67979D01*
D02*
G37*
G36*
X47981Y76460D02*
Y76457D01*
Y76446D01*
Y76427D01*
Y76404D01*
Y76377D01*
X47978Y76344D01*
Y76307D01*
Y76271D01*
X47972Y76191D01*
X47967Y76108D01*
X47964Y76072D01*
X47958Y76036D01*
X47953Y76003D01*
X47947Y75972D01*
Y75970D01*
X47945Y75967D01*
Y75959D01*
X47942Y75950D01*
X47934Y75923D01*
X47922Y75889D01*
X47906Y75850D01*
X47886Y75812D01*
X47861Y75770D01*
X47831Y75731D01*
X47828Y75726D01*
X47817Y75715D01*
X47798Y75698D01*
X47773Y75676D01*
X47740Y75651D01*
X47701Y75626D01*
X47657Y75598D01*
X47607Y75576D01*
X47604D01*
X47601Y75573D01*
X47593Y75571D01*
X47582Y75568D01*
X47568Y75562D01*
X47551Y75557D01*
X47529Y75551D01*
X47507Y75548D01*
X47454Y75537D01*
X47391Y75526D01*
X47319Y75521D01*
X47238Y75518D01*
X47194D01*
X47169Y75521D01*
X47144D01*
X47114Y75524D01*
X47083Y75526D01*
X47017Y75532D01*
X46947Y75543D01*
X46878Y75560D01*
X46848Y75568D01*
X46820Y75579D01*
X46817D01*
X46814Y75582D01*
X46798Y75590D01*
X46770Y75604D01*
X46740Y75623D01*
X46704Y75648D01*
X46665Y75676D01*
X46629Y75709D01*
X46596Y75745D01*
X46593Y75751D01*
X46582Y75762D01*
X46568Y75784D01*
X46551Y75812D01*
X46535Y75842D01*
X46515Y75878D01*
X46501Y75917D01*
X46488Y75959D01*
Y75961D01*
X46485Y75967D01*
Y75975D01*
X46482Y75989D01*
X46479Y76006D01*
X46477Y76028D01*
X46474Y76053D01*
X46471Y76080D01*
X46465Y76114D01*
X46463Y76150D01*
X46460Y76188D01*
X46457Y76233D01*
X46454Y76280D01*
Y76332D01*
X46452Y76388D01*
Y76446D01*
Y77471D01*
X46839D01*
Y76429D01*
Y76427D01*
Y76418D01*
Y76407D01*
Y76391D01*
Y76368D01*
Y76346D01*
X46842Y76296D01*
Y76241D01*
X46845Y76188D01*
X46848Y76164D01*
Y76141D01*
X46850Y76125D01*
X46853Y76108D01*
Y76103D01*
X46859Y76089D01*
X46867Y76066D01*
X46878Y76039D01*
X46892Y76008D01*
X46914Y75978D01*
X46939Y75945D01*
X46970Y75917D01*
X46975Y75914D01*
X46986Y75906D01*
X47008Y75895D01*
X47036Y75884D01*
X47075Y75870D01*
X47119Y75859D01*
X47169Y75850D01*
X47227Y75848D01*
X47255D01*
X47283Y75850D01*
X47319Y75856D01*
X47360Y75864D01*
X47399Y75875D01*
X47440Y75892D01*
X47474Y75914D01*
X47477Y75917D01*
X47488Y75925D01*
X47501Y75939D01*
X47518Y75959D01*
X47535Y75983D01*
X47551Y76011D01*
X47565Y76042D01*
X47573Y76078D01*
Y76083D01*
X47576Y76097D01*
X47579Y76122D01*
X47585Y76155D01*
Y76177D01*
X47587Y76202D01*
Y76230D01*
X47590Y76258D01*
Y76291D01*
X47593Y76327D01*
Y76366D01*
Y76407D01*
Y77471D01*
X47981D01*
Y76460D01*
D02*
G37*
G36*
X48986Y77479D02*
X49011Y77476D01*
X49039Y77474D01*
X49069Y77468D01*
X49103Y77463D01*
X49174Y77443D01*
X49246Y77416D01*
X49285Y77399D01*
X49319Y77380D01*
X49354Y77355D01*
X49385Y77327D01*
X49388Y77324D01*
X49393Y77321D01*
X49399Y77310D01*
X49410Y77299D01*
X49424Y77285D01*
X49438Y77266D01*
X49452Y77246D01*
X49468Y77222D01*
X49496Y77166D01*
X49523Y77103D01*
X49535Y77066D01*
X49540Y77028D01*
X49546Y76986D01*
X49548Y76945D01*
Y76939D01*
Y76922D01*
X49546Y76898D01*
X49543Y76867D01*
X49537Y76828D01*
X49529Y76787D01*
X49518Y76742D01*
X49501Y76698D01*
X49499Y76692D01*
X49493Y76679D01*
X49482Y76654D01*
X49465Y76623D01*
X49446Y76587D01*
X49421Y76546D01*
X49391Y76501D01*
X49354Y76454D01*
X49352Y76451D01*
X49341Y76438D01*
X49324Y76418D01*
X49299Y76391D01*
X49266Y76357D01*
X49224Y76313D01*
X49174Y76266D01*
X49114Y76208D01*
X49111Y76205D01*
X49105Y76202D01*
X49097Y76194D01*
X49086Y76183D01*
X49055Y76155D01*
X49019Y76122D01*
X48983Y76086D01*
X48947Y76050D01*
X48914Y76019D01*
X48903Y76006D01*
X48892Y75994D01*
X48889Y75992D01*
X48884Y75986D01*
X48875Y75975D01*
X48864Y75961D01*
X48839Y75931D01*
X48817Y75895D01*
X49548D01*
Y75554D01*
X48260D01*
Y75557D01*
Y75562D01*
X48263Y75573D01*
X48266Y75587D01*
X48269Y75604D01*
X48272Y75623D01*
X48283Y75673D01*
X48299Y75729D01*
X48321Y75789D01*
X48349Y75856D01*
X48385Y75920D01*
Y75923D01*
X48391Y75928D01*
X48396Y75939D01*
X48407Y75950D01*
X48418Y75970D01*
X48435Y75989D01*
X48454Y76014D01*
X48476Y76042D01*
X48501Y76075D01*
X48532Y76108D01*
X48565Y76147D01*
X48604Y76188D01*
X48645Y76230D01*
X48693Y76277D01*
X48742Y76327D01*
X48798Y76380D01*
X48801Y76382D01*
X48809Y76391D01*
X48820Y76402D01*
X48836Y76418D01*
X48859Y76435D01*
X48881Y76457D01*
X48931Y76507D01*
X48981Y76560D01*
X49030Y76612D01*
X49053Y76634D01*
X49075Y76659D01*
X49091Y76679D01*
X49103Y76695D01*
X49105Y76701D01*
X49114Y76715D01*
X49127Y76737D01*
X49141Y76767D01*
X49155Y76801D01*
X49169Y76839D01*
X49177Y76878D01*
X49180Y76920D01*
Y76922D01*
Y76925D01*
Y76939D01*
X49177Y76964D01*
X49172Y76992D01*
X49163Y77022D01*
X49152Y77053D01*
X49136Y77083D01*
X49114Y77111D01*
X49111Y77114D01*
X49103Y77122D01*
X49086Y77133D01*
X49066Y77144D01*
X49039Y77155D01*
X49008Y77166D01*
X48972Y77175D01*
X48931Y77177D01*
X48911D01*
X48889Y77175D01*
X48864Y77169D01*
X48834Y77161D01*
X48803Y77147D01*
X48773Y77130D01*
X48745Y77108D01*
X48742Y77105D01*
X48734Y77094D01*
X48723Y77078D01*
X48712Y77053D01*
X48698Y77022D01*
X48687Y76981D01*
X48676Y76933D01*
X48670Y76878D01*
X48305Y76914D01*
Y76917D01*
X48307Y76928D01*
Y76942D01*
X48313Y76964D01*
X48316Y76989D01*
X48324Y77017D01*
X48332Y77047D01*
X48341Y77083D01*
X48368Y77152D01*
X48402Y77224D01*
X48424Y77260D01*
X48449Y77294D01*
X48476Y77321D01*
X48507Y77349D01*
X48510Y77352D01*
X48515Y77355D01*
X48524Y77360D01*
X48537Y77371D01*
X48554Y77380D01*
X48576Y77391D01*
X48598Y77404D01*
X48626Y77416D01*
X48656Y77429D01*
X48690Y77440D01*
X48762Y77463D01*
X48848Y77476D01*
X48892Y77479D01*
X48939Y77482D01*
X48967D01*
X48986Y77479D01*
D02*
G37*
G36*
X57632Y94960D02*
Y94957D01*
Y94946D01*
Y94927D01*
Y94904D01*
Y94877D01*
X57629Y94844D01*
Y94807D01*
Y94771D01*
X57623Y94691D01*
X57618Y94608D01*
X57615Y94572D01*
X57609Y94536D01*
X57604Y94503D01*
X57598Y94472D01*
Y94470D01*
X57596Y94467D01*
Y94459D01*
X57593Y94450D01*
X57585Y94423D01*
X57573Y94389D01*
X57557Y94350D01*
X57537Y94312D01*
X57512Y94270D01*
X57482Y94231D01*
X57479Y94226D01*
X57468Y94215D01*
X57449Y94198D01*
X57424Y94176D01*
X57391Y94151D01*
X57352Y94126D01*
X57307Y94098D01*
X57258Y94076D01*
X57255D01*
X57252Y94073D01*
X57244Y94071D01*
X57233Y94068D01*
X57219Y94062D01*
X57202Y94057D01*
X57180Y94051D01*
X57158Y94049D01*
X57105Y94037D01*
X57042Y94026D01*
X56970Y94021D01*
X56889Y94018D01*
X56845D01*
X56820Y94021D01*
X56795D01*
X56765Y94024D01*
X56734Y94026D01*
X56668Y94032D01*
X56598Y94043D01*
X56529Y94060D01*
X56499Y94068D01*
X56471Y94079D01*
X56468D01*
X56465Y94082D01*
X56449Y94090D01*
X56421Y94104D01*
X56391Y94123D01*
X56355Y94148D01*
X56316Y94176D01*
X56280Y94209D01*
X56247Y94245D01*
X56244Y94251D01*
X56233Y94262D01*
X56219Y94284D01*
X56202Y94312D01*
X56186Y94342D01*
X56166Y94378D01*
X56152Y94417D01*
X56138Y94459D01*
Y94461D01*
X56136Y94467D01*
Y94475D01*
X56133Y94489D01*
X56130Y94506D01*
X56128Y94528D01*
X56125Y94553D01*
X56122Y94580D01*
X56116Y94614D01*
X56114Y94650D01*
X56111Y94688D01*
X56108Y94733D01*
X56105Y94780D01*
Y94832D01*
X56103Y94888D01*
Y94946D01*
Y95971D01*
X56490D01*
Y94929D01*
Y94927D01*
Y94918D01*
Y94907D01*
Y94891D01*
Y94868D01*
Y94846D01*
X56493Y94796D01*
Y94741D01*
X56496Y94688D01*
X56499Y94664D01*
Y94641D01*
X56501Y94625D01*
X56504Y94608D01*
Y94603D01*
X56510Y94589D01*
X56518Y94567D01*
X56529Y94539D01*
X56543Y94508D01*
X56565Y94478D01*
X56590Y94445D01*
X56621Y94417D01*
X56626Y94414D01*
X56637Y94406D01*
X56659Y94395D01*
X56687Y94384D01*
X56726Y94370D01*
X56770Y94359D01*
X56820Y94350D01*
X56878Y94348D01*
X56906D01*
X56933Y94350D01*
X56970Y94356D01*
X57011Y94364D01*
X57050Y94375D01*
X57091Y94392D01*
X57125Y94414D01*
X57127Y94417D01*
X57139Y94425D01*
X57152Y94439D01*
X57169Y94459D01*
X57186Y94483D01*
X57202Y94511D01*
X57216Y94542D01*
X57224Y94578D01*
Y94583D01*
X57227Y94597D01*
X57230Y94622D01*
X57235Y94655D01*
Y94677D01*
X57238Y94702D01*
Y94730D01*
X57241Y94758D01*
Y94791D01*
X57244Y94827D01*
Y94866D01*
Y94907D01*
Y95971D01*
X57632D01*
Y94960D01*
D02*
G37*
G36*
X58898Y94054D02*
X58529D01*
Y95442D01*
X58526Y95439D01*
X58521Y95433D01*
X58510Y95425D01*
X58493Y95411D01*
X58474Y95395D01*
X58451Y95378D01*
X58424Y95359D01*
X58393Y95337D01*
X58360Y95314D01*
X58324Y95292D01*
X58285Y95267D01*
X58244Y95245D01*
X58155Y95204D01*
X58055Y95165D01*
Y95497D01*
X58058D01*
X58061Y95500D01*
X58069Y95503D01*
X58080Y95505D01*
X58108Y95519D01*
X58147Y95536D01*
X58194Y95558D01*
X58246Y95589D01*
X58305Y95627D01*
X58366Y95672D01*
X58368Y95675D01*
X58374Y95677D01*
X58382Y95686D01*
X58393Y95697D01*
X58424Y95724D01*
X58457Y95760D01*
X58496Y95805D01*
X58535Y95860D01*
X58571Y95918D01*
X58598Y95982D01*
X58898D01*
Y94054D01*
D02*
G37*
G36*
X43483Y73461D02*
X43508Y73458D01*
X43536Y73456D01*
X43566Y73450D01*
X43600Y73445D01*
X43672Y73425D01*
X43744Y73397D01*
X43782Y73381D01*
X43816Y73361D01*
X43852Y73336D01*
X43882Y73309D01*
X43885Y73306D01*
X43891Y73303D01*
X43896Y73292D01*
X43907Y73281D01*
X43921Y73267D01*
X43935Y73248D01*
X43949Y73229D01*
X43965Y73204D01*
X43993Y73148D01*
X44021Y73084D01*
X44032Y73049D01*
X44037Y73010D01*
X44043Y72968D01*
X44046Y72927D01*
Y72921D01*
Y72904D01*
X44043Y72879D01*
X44040Y72849D01*
X44035Y72810D01*
X44026Y72769D01*
X44015Y72724D01*
X43999Y72680D01*
X43996Y72675D01*
X43990Y72661D01*
X43979Y72636D01*
X43963Y72605D01*
X43943Y72569D01*
X43918Y72528D01*
X43888Y72483D01*
X43852Y72436D01*
X43849Y72434D01*
X43838Y72420D01*
X43821Y72400D01*
X43796Y72373D01*
X43763Y72339D01*
X43722Y72295D01*
X43672Y72248D01*
X43611Y72190D01*
X43608Y72187D01*
X43602Y72184D01*
X43594Y72176D01*
X43583Y72165D01*
X43553Y72137D01*
X43517Y72104D01*
X43481Y72068D01*
X43445Y72032D01*
X43411Y72001D01*
X43400Y71987D01*
X43389Y71977D01*
X43386Y71974D01*
X43381Y71968D01*
X43373Y71957D01*
X43361Y71943D01*
X43336Y71913D01*
X43314Y71877D01*
X44046D01*
Y71536D01*
X42758D01*
Y71539D01*
Y71544D01*
X42760Y71555D01*
X42763Y71569D01*
X42766Y71586D01*
X42769Y71605D01*
X42780Y71655D01*
X42796Y71711D01*
X42818Y71772D01*
X42846Y71838D01*
X42882Y71902D01*
Y71904D01*
X42888Y71910D01*
X42893Y71921D01*
X42904Y71932D01*
X42915Y71952D01*
X42932Y71971D01*
X42952Y71996D01*
X42974Y72024D01*
X42999Y72057D01*
X43029Y72090D01*
X43062Y72129D01*
X43101Y72170D01*
X43143Y72212D01*
X43190Y72259D01*
X43240Y72309D01*
X43295Y72361D01*
X43298Y72364D01*
X43306Y72373D01*
X43317Y72384D01*
X43334Y72400D01*
X43356Y72417D01*
X43378Y72439D01*
X43428Y72489D01*
X43478Y72541D01*
X43528Y72594D01*
X43550Y72616D01*
X43572Y72641D01*
X43589Y72661D01*
X43600Y72677D01*
X43602Y72683D01*
X43611Y72697D01*
X43625Y72719D01*
X43639Y72749D01*
X43652Y72782D01*
X43666Y72821D01*
X43674Y72860D01*
X43677Y72902D01*
Y72904D01*
Y72907D01*
Y72921D01*
X43674Y72946D01*
X43669Y72974D01*
X43661Y73004D01*
X43650Y73035D01*
X43633Y73065D01*
X43611Y73093D01*
X43608Y73096D01*
X43600Y73104D01*
X43583Y73115D01*
X43564Y73126D01*
X43536Y73137D01*
X43505Y73148D01*
X43470Y73156D01*
X43428Y73159D01*
X43409D01*
X43386Y73156D01*
X43361Y73151D01*
X43331Y73143D01*
X43301Y73129D01*
X43270Y73112D01*
X43242Y73090D01*
X43240Y73087D01*
X43231Y73076D01*
X43220Y73059D01*
X43209Y73035D01*
X43195Y73004D01*
X43184Y72963D01*
X43173Y72916D01*
X43168Y72860D01*
X42802Y72896D01*
Y72899D01*
X42805Y72910D01*
Y72924D01*
X42810Y72946D01*
X42813Y72971D01*
X42821Y72999D01*
X42830Y73029D01*
X42838Y73065D01*
X42866Y73134D01*
X42899Y73206D01*
X42921Y73242D01*
X42946Y73276D01*
X42974Y73303D01*
X43004Y73331D01*
X43007Y73334D01*
X43012Y73336D01*
X43021Y73342D01*
X43035Y73353D01*
X43051Y73361D01*
X43073Y73373D01*
X43095Y73386D01*
X43123Y73397D01*
X43154Y73411D01*
X43187Y73422D01*
X43259Y73445D01*
X43345Y73458D01*
X43389Y73461D01*
X43436Y73464D01*
X43464D01*
X43483Y73461D01*
D02*
G37*
G36*
X41844Y73450D02*
X41874D01*
X41905Y73447D01*
X41941D01*
X42013Y73439D01*
X42087Y73431D01*
X42156Y73417D01*
X42187Y73409D01*
X42215Y73400D01*
X42217D01*
X42220Y73397D01*
X42237Y73389D01*
X42262Y73375D01*
X42295Y73359D01*
X42331Y73331D01*
X42367Y73300D01*
X42403Y73262D01*
X42436Y73215D01*
Y73212D01*
X42439Y73209D01*
X42445Y73201D01*
X42450Y73193D01*
X42464Y73165D01*
X42481Y73129D01*
X42494Y73084D01*
X42508Y73035D01*
X42519Y72976D01*
X42522Y72916D01*
Y72913D01*
Y72907D01*
Y72893D01*
X42519Y72879D01*
Y72860D01*
X42517Y72841D01*
X42505Y72791D01*
X42492Y72733D01*
X42469Y72675D01*
X42436Y72614D01*
X42417Y72586D01*
X42395Y72558D01*
X42392Y72555D01*
X42389Y72553D01*
X42381Y72544D01*
X42370Y72536D01*
X42359Y72525D01*
X42342Y72511D01*
X42323Y72497D01*
X42301Y72483D01*
X42276Y72467D01*
X42245Y72453D01*
X42215Y72439D01*
X42182Y72425D01*
X42143Y72411D01*
X42104Y72400D01*
X42062Y72389D01*
X42015Y72381D01*
X42018D01*
X42021Y72378D01*
X42037Y72367D01*
X42060Y72353D01*
X42087Y72334D01*
X42121Y72309D01*
X42154Y72284D01*
X42190Y72254D01*
X42220Y72220D01*
X42223Y72218D01*
X42237Y72204D01*
X42254Y72181D01*
X42278Y72148D01*
X42312Y72107D01*
X42328Y72079D01*
X42348Y72051D01*
X42370Y72021D01*
X42392Y71987D01*
X42417Y71949D01*
X42442Y71910D01*
X42677Y71536D01*
X42212D01*
X41935Y71952D01*
X41932Y71954D01*
X41929Y71963D01*
X41921Y71974D01*
X41910Y71987D01*
X41899Y72004D01*
X41885Y72026D01*
X41855Y72071D01*
X41819Y72120D01*
X41785Y72165D01*
X41755Y72206D01*
X41741Y72220D01*
X41730Y72234D01*
X41727Y72237D01*
X41722Y72242D01*
X41711Y72254D01*
X41697Y72267D01*
X41677Y72278D01*
X41658Y72292D01*
X41636Y72303D01*
X41614Y72314D01*
X41611D01*
X41603Y72317D01*
X41589Y72323D01*
X41567Y72325D01*
X41539Y72331D01*
X41506Y72334D01*
X41467Y72337D01*
X41342D01*
Y71536D01*
X40954D01*
Y73453D01*
X41819D01*
X41844Y73450D01*
D02*
G37*
G36*
X49895Y48536D02*
X49526D01*
Y49924D01*
X49523Y49921D01*
X49518Y49916D01*
X49507Y49907D01*
X49490Y49893D01*
X49471Y49877D01*
X49449Y49860D01*
X49421Y49841D01*
X49391Y49819D01*
X49357Y49796D01*
X49321Y49774D01*
X49283Y49749D01*
X49241Y49727D01*
X49152Y49686D01*
X49053Y49647D01*
Y49979D01*
X49055D01*
X49058Y49982D01*
X49066Y49985D01*
X49078Y49988D01*
X49105Y50001D01*
X49144Y50018D01*
X49191Y50040D01*
X49244Y50071D01*
X49302Y50109D01*
X49363Y50154D01*
X49366Y50156D01*
X49371Y50159D01*
X49380Y50168D01*
X49391Y50179D01*
X49421Y50206D01*
X49454Y50242D01*
X49493Y50287D01*
X49532Y50342D01*
X49568Y50400D01*
X49595Y50464D01*
X49895D01*
Y48536D01*
D02*
G37*
G36*
X47995Y50450D02*
X48025D01*
X48055Y50447D01*
X48091D01*
X48164Y50439D01*
X48238Y50431D01*
X48307Y50417D01*
X48338Y50409D01*
X48366Y50400D01*
X48368D01*
X48371Y50397D01*
X48388Y50389D01*
X48413Y50375D01*
X48446Y50359D01*
X48482Y50331D01*
X48518Y50301D01*
X48554Y50262D01*
X48587Y50215D01*
Y50212D01*
X48590Y50209D01*
X48596Y50201D01*
X48601Y50192D01*
X48615Y50165D01*
X48632Y50129D01*
X48645Y50085D01*
X48659Y50035D01*
X48670Y49976D01*
X48673Y49916D01*
Y49913D01*
Y49907D01*
Y49893D01*
X48670Y49880D01*
Y49860D01*
X48668Y49841D01*
X48656Y49791D01*
X48643Y49733D01*
X48621Y49674D01*
X48587Y49614D01*
X48568Y49586D01*
X48546Y49558D01*
X48543Y49555D01*
X48540Y49553D01*
X48532Y49544D01*
X48521Y49536D01*
X48510Y49525D01*
X48493Y49511D01*
X48474Y49497D01*
X48452Y49483D01*
X48427Y49467D01*
X48396Y49453D01*
X48366Y49439D01*
X48332Y49425D01*
X48294Y49411D01*
X48255Y49400D01*
X48213Y49389D01*
X48166Y49381D01*
X48169D01*
X48172Y49378D01*
X48188Y49367D01*
X48210Y49353D01*
X48238Y49334D01*
X48272Y49309D01*
X48305Y49284D01*
X48341Y49253D01*
X48371Y49220D01*
X48374Y49218D01*
X48388Y49204D01*
X48404Y49182D01*
X48429Y49148D01*
X48463Y49107D01*
X48479Y49079D01*
X48499Y49051D01*
X48521Y49021D01*
X48543Y48987D01*
X48568Y48949D01*
X48593Y48910D01*
X48828Y48536D01*
X48363D01*
X48086Y48952D01*
X48083Y48954D01*
X48080Y48963D01*
X48072Y48974D01*
X48061Y48987D01*
X48050Y49004D01*
X48036Y49026D01*
X48006Y49071D01*
X47969Y49121D01*
X47936Y49165D01*
X47906Y49206D01*
X47892Y49220D01*
X47881Y49234D01*
X47878Y49237D01*
X47873Y49242D01*
X47861Y49253D01*
X47848Y49267D01*
X47828Y49278D01*
X47809Y49292D01*
X47787Y49303D01*
X47765Y49314D01*
X47762D01*
X47754Y49317D01*
X47740Y49323D01*
X47717Y49325D01*
X47690Y49331D01*
X47657Y49334D01*
X47618Y49337D01*
X47493D01*
Y48536D01*
X47105D01*
Y50453D01*
X47969D01*
X47995Y50450D01*
D02*
G37*
G36*
X19479Y91255D02*
Y91252D01*
Y91244D01*
Y91233D01*
Y91216D01*
Y91197D01*
X19477Y91172D01*
X19474Y91119D01*
X19468Y91061D01*
X19460Y91000D01*
X19449Y90939D01*
X19435Y90886D01*
Y90884D01*
X19432Y90878D01*
X19429Y90870D01*
X19424Y90859D01*
X19410Y90828D01*
X19388Y90790D01*
X19360Y90748D01*
X19324Y90704D01*
X19283Y90659D01*
X19230Y90618D01*
X19227D01*
X19224Y90612D01*
X19216Y90610D01*
X19202Y90601D01*
X19188Y90596D01*
X19172Y90587D01*
X19150Y90576D01*
X19127Y90568D01*
X19100Y90560D01*
X19072Y90548D01*
X19006Y90535D01*
X18928Y90524D01*
X18842Y90518D01*
X18814D01*
X18795Y90521D01*
X18770Y90524D01*
X18745Y90526D01*
X18715Y90532D01*
X18681Y90537D01*
X18609Y90557D01*
X18573Y90571D01*
X18537Y90584D01*
X18501Y90604D01*
X18468Y90623D01*
X18435Y90648D01*
X18405Y90676D01*
X18402Y90679D01*
X18399Y90684D01*
X18391Y90693D01*
X18380Y90706D01*
X18369Y90723D01*
X18357Y90742D01*
X18343Y90767D01*
X18330Y90792D01*
X18313Y90825D01*
X18299Y90859D01*
X18288Y90898D01*
X18277Y90939D01*
X18266Y90983D01*
X18258Y91033D01*
X18255Y91086D01*
X18252Y91141D01*
X18620Y91183D01*
Y91180D01*
Y91175D01*
Y91166D01*
X18623Y91155D01*
Y91127D01*
X18629Y91091D01*
X18634Y91053D01*
X18643Y91014D01*
X18654Y90981D01*
X18668Y90950D01*
X18670Y90945D01*
X18679Y90934D01*
X18692Y90917D01*
X18715Y90900D01*
X18740Y90881D01*
X18773Y90864D01*
X18812Y90853D01*
X18856Y90848D01*
X18878D01*
X18900Y90850D01*
X18925Y90856D01*
X18956Y90864D01*
X18986Y90878D01*
X19014Y90895D01*
X19036Y90920D01*
X19039Y90922D01*
X19044Y90936D01*
X19053Y90956D01*
X19064Y90986D01*
X19069Y91006D01*
X19075Y91028D01*
X19078Y91053D01*
X19083Y91080D01*
X19086Y91114D01*
X19089Y91147D01*
X19091Y91186D01*
Y91227D01*
Y92471D01*
X19479D01*
Y91255D01*
D02*
G37*
G36*
X20748Y90554D02*
X20380D01*
Y91942D01*
X20377Y91939D01*
X20371Y91934D01*
X20360Y91925D01*
X20344Y91911D01*
X20324Y91895D01*
X20302Y91878D01*
X20274Y91859D01*
X20244Y91837D01*
X20211Y91814D01*
X20175Y91792D01*
X20136Y91767D01*
X20094Y91745D01*
X20006Y91704D01*
X19906Y91665D01*
Y91997D01*
X19909D01*
X19911Y92000D01*
X19920Y92003D01*
X19931Y92005D01*
X19958Y92019D01*
X19997Y92036D01*
X20044Y92058D01*
X20097Y92089D01*
X20155Y92127D01*
X20216Y92172D01*
X20219Y92175D01*
X20224Y92177D01*
X20233Y92186D01*
X20244Y92197D01*
X20274Y92224D01*
X20308Y92260D01*
X20346Y92305D01*
X20385Y92360D01*
X20421Y92418D01*
X20449Y92482D01*
X20748D01*
Y90554D01*
D02*
G37*
G36*
X60845Y77492D02*
X60875Y77489D01*
X60909Y77483D01*
X60947Y77478D01*
X60989Y77469D01*
X61033Y77458D01*
X61080Y77445D01*
X61127Y77428D01*
X61177Y77406D01*
X61224Y77384D01*
X61269Y77356D01*
X61316Y77323D01*
X61357Y77287D01*
X61360D01*
X61363Y77281D01*
X61371Y77273D01*
X61379Y77264D01*
X61391Y77251D01*
X61402Y77234D01*
X61432Y77195D01*
X61463Y77145D01*
X61496Y77084D01*
X61526Y77015D01*
X61554Y76935D01*
X61172Y76844D01*
Y76846D01*
X61169Y76849D01*
Y76857D01*
X61164Y76868D01*
X61155Y76893D01*
X61141Y76927D01*
X61122Y76965D01*
X61097Y77004D01*
X61064Y77043D01*
X61028Y77076D01*
X61022Y77079D01*
X61008Y77090D01*
X60986Y77104D01*
X60956Y77121D01*
X60917Y77137D01*
X60873Y77151D01*
X60823Y77162D01*
X60767Y77165D01*
X60748D01*
X60731Y77162D01*
X60715Y77159D01*
X60693Y77157D01*
X60646Y77145D01*
X60590Y77126D01*
X60532Y77098D01*
X60501Y77082D01*
X60474Y77062D01*
X60446Y77037D01*
X60421Y77010D01*
Y77007D01*
X60416Y77001D01*
X60410Y76993D01*
X60402Y76979D01*
X60391Y76963D01*
X60379Y76943D01*
X60369Y76918D01*
X60357Y76891D01*
X60343Y76857D01*
X60332Y76821D01*
X60321Y76780D01*
X60310Y76736D01*
X60302Y76686D01*
X60296Y76633D01*
X60294Y76575D01*
X60291Y76511D01*
Y76508D01*
Y76494D01*
Y76475D01*
X60294Y76453D01*
Y76422D01*
X60299Y76386D01*
X60302Y76350D01*
X60308Y76309D01*
X60324Y76223D01*
X60346Y76137D01*
X60360Y76096D01*
X60379Y76057D01*
X60399Y76021D01*
X60421Y75990D01*
X60424Y75987D01*
X60427Y75985D01*
X60435Y75977D01*
X60446Y75965D01*
X60474Y75943D01*
X60513Y75915D01*
X60560Y75885D01*
X60618Y75863D01*
X60684Y75844D01*
X60720Y75841D01*
X60759Y75838D01*
X60773D01*
X60784Y75841D01*
X60814Y75844D01*
X60850Y75849D01*
X60889Y75863D01*
X60934Y75880D01*
X60978Y75902D01*
X61022Y75935D01*
X61028Y75941D01*
X61042Y75954D01*
X61061Y75977D01*
X61083Y76010D01*
X61111Y76054D01*
X61136Y76107D01*
X61161Y76170D01*
X61183Y76245D01*
X61560Y76129D01*
Y76126D01*
X61557Y76115D01*
X61551Y76098D01*
X61543Y76076D01*
X61532Y76051D01*
X61521Y76021D01*
X61507Y75987D01*
X61490Y75951D01*
X61452Y75877D01*
X61402Y75799D01*
X61341Y75724D01*
X61308Y75691D01*
X61272Y75661D01*
X61269Y75658D01*
X61263Y75655D01*
X61252Y75647D01*
X61235Y75636D01*
X61216Y75625D01*
X61191Y75614D01*
X61164Y75600D01*
X61133Y75586D01*
X61097Y75569D01*
X61058Y75555D01*
X61017Y75544D01*
X60972Y75533D01*
X60925Y75522D01*
X60873Y75514D01*
X60820Y75511D01*
X60762Y75508D01*
X60745D01*
X60726Y75511D01*
X60698Y75514D01*
X60668Y75517D01*
X60629Y75522D01*
X60587Y75530D01*
X60540Y75542D01*
X60493Y75555D01*
X60443Y75572D01*
X60391Y75594D01*
X60338Y75619D01*
X60285Y75647D01*
X60233Y75683D01*
X60183Y75722D01*
X60136Y75769D01*
X60133Y75771D01*
X60125Y75780D01*
X60114Y75796D01*
X60097Y75816D01*
X60080Y75844D01*
X60058Y75874D01*
X60036Y75913D01*
X60014Y75957D01*
X59992Y76004D01*
X59970Y76057D01*
X59947Y76118D01*
X59931Y76181D01*
X59914Y76248D01*
X59903Y76323D01*
X59895Y76400D01*
X59892Y76483D01*
Y76486D01*
Y76489D01*
Y76506D01*
X59895Y76530D01*
Y76564D01*
X59900Y76603D01*
X59906Y76650D01*
X59911Y76699D01*
X59922Y76758D01*
X59936Y76816D01*
X59953Y76877D01*
X59972Y76938D01*
X59997Y77001D01*
X60025Y77062D01*
X60058Y77121D01*
X60094Y77176D01*
X60138Y77228D01*
X60141Y77231D01*
X60150Y77240D01*
X60163Y77253D01*
X60183Y77270D01*
X60208Y77289D01*
X60238Y77312D01*
X60272Y77337D01*
X60313Y77362D01*
X60357Y77386D01*
X60404Y77411D01*
X60460Y77434D01*
X60515Y77453D01*
X60579Y77469D01*
X60643Y77483D01*
X60715Y77492D01*
X60787Y77494D01*
X60820D01*
X60845Y77492D01*
D02*
G37*
G36*
X63022Y77090D02*
X62327D01*
X62269Y76763D01*
X62271D01*
X62274Y76766D01*
X62291Y76774D01*
X62316Y76783D01*
X62346Y76796D01*
X62385Y76807D01*
X62427Y76816D01*
X62474Y76824D01*
X62521Y76827D01*
X62546D01*
X62562Y76824D01*
X62582Y76821D01*
X62607Y76819D01*
X62634Y76813D01*
X62665Y76805D01*
X62729Y76783D01*
X62765Y76769D01*
X62798Y76752D01*
X62834Y76730D01*
X62870Y76705D01*
X62903Y76677D01*
X62936Y76647D01*
X62939Y76644D01*
X62945Y76639D01*
X62953Y76627D01*
X62964Y76614D01*
X62975Y76597D01*
X62992Y76575D01*
X63006Y76550D01*
X63022Y76522D01*
X63039Y76492D01*
X63053Y76456D01*
X63069Y76417D01*
X63080Y76378D01*
X63091Y76334D01*
X63100Y76287D01*
X63105Y76237D01*
X63108Y76184D01*
Y76181D01*
Y76173D01*
Y76162D01*
X63105Y76145D01*
Y76123D01*
X63100Y76098D01*
X63097Y76071D01*
X63091Y76043D01*
X63075Y75977D01*
X63050Y75904D01*
X63033Y75866D01*
X63017Y75830D01*
X62994Y75794D01*
X62969Y75758D01*
X62967Y75755D01*
X62961Y75747D01*
X62950Y75735D01*
X62936Y75719D01*
X62917Y75700D01*
X62892Y75677D01*
X62864Y75655D01*
X62834Y75633D01*
X62798Y75608D01*
X62759Y75586D01*
X62717Y75564D01*
X62670Y75544D01*
X62621Y75528D01*
X62568Y75517D01*
X62510Y75508D01*
X62449Y75506D01*
X62424D01*
X62404Y75508D01*
X62382Y75511D01*
X62354Y75514D01*
X62327Y75517D01*
X62294Y75522D01*
X62227Y75539D01*
X62152Y75567D01*
X62116Y75580D01*
X62080Y75600D01*
X62047Y75622D01*
X62014Y75647D01*
X62011Y75650D01*
X62006Y75652D01*
X61997Y75661D01*
X61986Y75672D01*
X61975Y75688D01*
X61958Y75705D01*
X61945Y75724D01*
X61928Y75747D01*
X61909Y75774D01*
X61892Y75802D01*
X61861Y75868D01*
X61834Y75943D01*
X61826Y75985D01*
X61817Y76029D01*
X62183Y76068D01*
Y76062D01*
X62186Y76048D01*
X62191Y76024D01*
X62199Y75996D01*
X62211Y75965D01*
X62227Y75932D01*
X62249Y75902D01*
X62274Y75871D01*
X62277Y75868D01*
X62288Y75860D01*
X62305Y75849D01*
X62327Y75835D01*
X62352Y75821D01*
X62382Y75810D01*
X62418Y75802D01*
X62454Y75799D01*
X62460D01*
X62474Y75802D01*
X62496Y75805D01*
X62524Y75810D01*
X62554Y75821D01*
X62587Y75838D01*
X62621Y75863D01*
X62651Y75893D01*
X62654Y75899D01*
X62665Y75910D01*
X62676Y75932D01*
X62692Y75965D01*
X62706Y76004D01*
X62720Y76051D01*
X62729Y76109D01*
X62731Y76176D01*
Y76179D01*
Y76184D01*
Y76192D01*
Y76206D01*
X62729Y76237D01*
X62720Y76276D01*
X62712Y76320D01*
X62698Y76364D01*
X62679Y76406D01*
X62651Y76442D01*
X62648Y76445D01*
X62637Y76456D01*
X62618Y76469D01*
X62595Y76489D01*
X62565Y76506D01*
X62529Y76519D01*
X62488Y76530D01*
X62443Y76533D01*
X62427D01*
X62415Y76530D01*
X62388Y76525D01*
X62349Y76517D01*
X62305Y76500D01*
X62258Y76475D01*
X62233Y76459D01*
X62208Y76439D01*
X62183Y76417D01*
X62158Y76392D01*
X61861Y76433D01*
X62050Y77434D01*
X63022D01*
Y77090D01*
D02*
G37*
G36*
X57335Y50490D02*
X57366Y50488D01*
X57399Y50482D01*
X57438Y50476D01*
X57479Y50468D01*
X57524Y50457D01*
X57571Y50443D01*
X57618Y50427D01*
X57668Y50404D01*
X57715Y50382D01*
X57759Y50355D01*
X57806Y50321D01*
X57848Y50285D01*
X57850D01*
X57853Y50280D01*
X57862Y50271D01*
X57870Y50263D01*
X57881Y50249D01*
X57892Y50233D01*
X57922Y50194D01*
X57953Y50144D01*
X57986Y50083D01*
X58017Y50014D01*
X58044Y49933D01*
X57662Y49842D01*
Y49845D01*
X57659Y49848D01*
Y49856D01*
X57654Y49867D01*
X57645Y49892D01*
X57632Y49925D01*
X57612Y49964D01*
X57587Y50003D01*
X57554Y50042D01*
X57518Y50075D01*
X57512Y50078D01*
X57499Y50089D01*
X57477Y50103D01*
X57446Y50119D01*
X57407Y50136D01*
X57363Y50150D01*
X57313Y50161D01*
X57258Y50163D01*
X57238D01*
X57222Y50161D01*
X57205Y50158D01*
X57183Y50155D01*
X57136Y50144D01*
X57080Y50125D01*
X57022Y50097D01*
X56992Y50080D01*
X56964Y50061D01*
X56936Y50036D01*
X56911Y50008D01*
Y50006D01*
X56906Y50000D01*
X56900Y49992D01*
X56892Y49978D01*
X56881Y49961D01*
X56870Y49942D01*
X56859Y49917D01*
X56848Y49889D01*
X56834Y49856D01*
X56823Y49820D01*
X56812Y49778D01*
X56801Y49734D01*
X56792Y49684D01*
X56787Y49632D01*
X56784Y49573D01*
X56781Y49510D01*
Y49507D01*
Y49493D01*
Y49474D01*
X56784Y49452D01*
Y49421D01*
X56789Y49385D01*
X56792Y49349D01*
X56798Y49308D01*
X56814Y49222D01*
X56837Y49136D01*
X56850Y49094D01*
X56870Y49055D01*
X56889Y49019D01*
X56911Y48989D01*
X56914Y48986D01*
X56917Y48983D01*
X56925Y48975D01*
X56936Y48964D01*
X56964Y48942D01*
X57003Y48914D01*
X57050Y48884D01*
X57108Y48862D01*
X57174Y48842D01*
X57211Y48839D01*
X57249Y48837D01*
X57263D01*
X57274Y48839D01*
X57305Y48842D01*
X57341Y48848D01*
X57380Y48862D01*
X57424Y48878D01*
X57468Y48900D01*
X57512Y48934D01*
X57518Y48939D01*
X57532Y48953D01*
X57551Y48975D01*
X57573Y49008D01*
X57601Y49053D01*
X57626Y49105D01*
X57651Y49169D01*
X57673Y49244D01*
X58050Y49127D01*
Y49125D01*
X58047Y49114D01*
X58042Y49097D01*
X58033Y49075D01*
X58022Y49050D01*
X58011Y49019D01*
X57997Y48986D01*
X57981Y48950D01*
X57942Y48875D01*
X57892Y48798D01*
X57831Y48723D01*
X57798Y48690D01*
X57762Y48659D01*
X57759Y48656D01*
X57753Y48654D01*
X57742Y48645D01*
X57726Y48634D01*
X57706Y48623D01*
X57681Y48612D01*
X57654Y48598D01*
X57623Y48584D01*
X57587Y48568D01*
X57548Y48554D01*
X57507Y48543D01*
X57463Y48532D01*
X57415Y48521D01*
X57363Y48513D01*
X57310Y48510D01*
X57252Y48507D01*
X57235D01*
X57216Y48510D01*
X57188Y48513D01*
X57158Y48515D01*
X57119Y48521D01*
X57078Y48529D01*
X57030Y48540D01*
X56983Y48554D01*
X56934Y48571D01*
X56881Y48593D01*
X56828Y48618D01*
X56776Y48645D01*
X56723Y48682D01*
X56673Y48720D01*
X56626Y48767D01*
X56623Y48770D01*
X56615Y48778D01*
X56604Y48795D01*
X56587Y48814D01*
X56571Y48842D01*
X56549Y48873D01*
X56526Y48911D01*
X56504Y48956D01*
X56482Y49003D01*
X56460Y49055D01*
X56438Y49116D01*
X56421Y49180D01*
X56405Y49247D01*
X56393Y49321D01*
X56385Y49399D01*
X56382Y49482D01*
Y49485D01*
Y49488D01*
Y49504D01*
X56385Y49529D01*
Y49562D01*
X56391Y49601D01*
X56396Y49648D01*
X56402Y49698D01*
X56413Y49756D01*
X56427Y49814D01*
X56443Y49875D01*
X56463Y49936D01*
X56488Y50000D01*
X56515Y50061D01*
X56549Y50119D01*
X56585Y50174D01*
X56629Y50227D01*
X56632Y50230D01*
X56640Y50238D01*
X56654Y50252D01*
X56673Y50269D01*
X56698Y50288D01*
X56729Y50310D01*
X56762Y50335D01*
X56803Y50360D01*
X56848Y50385D01*
X56895Y50410D01*
X56950Y50432D01*
X57006Y50451D01*
X57069Y50468D01*
X57133Y50482D01*
X57205Y50490D01*
X57277Y50493D01*
X57310D01*
X57335Y50490D01*
D02*
G37*
G36*
X59380Y49247D02*
X59618D01*
Y48925D01*
X59380D01*
Y48540D01*
X59025D01*
Y48925D01*
X58238D01*
Y49244D01*
X59069Y50465D01*
X59380D01*
Y49247D01*
D02*
G37*
G36*
X52863Y50492D02*
X52893Y50489D01*
X52927Y50483D01*
X52965Y50478D01*
X53007Y50469D01*
X53051Y50458D01*
X53098Y50445D01*
X53145Y50428D01*
X53195Y50406D01*
X53242Y50384D01*
X53287Y50356D01*
X53334Y50323D01*
X53375Y50287D01*
X53378D01*
X53381Y50281D01*
X53389Y50273D01*
X53398Y50265D01*
X53409Y50251D01*
X53420Y50234D01*
X53450Y50195D01*
X53481Y50145D01*
X53514Y50085D01*
X53544Y50015D01*
X53572Y49935D01*
X53190Y49843D01*
Y49846D01*
X53187Y49849D01*
Y49857D01*
X53181Y49868D01*
X53173Y49893D01*
X53159Y49927D01*
X53140Y49965D01*
X53115Y50004D01*
X53082Y50043D01*
X53046Y50076D01*
X53040Y50079D01*
X53026Y50090D01*
X53004Y50104D01*
X52974Y50121D01*
X52935Y50137D01*
X52891Y50151D01*
X52841Y50162D01*
X52785Y50165D01*
X52766D01*
X52749Y50162D01*
X52733Y50159D01*
X52711Y50156D01*
X52663Y50145D01*
X52608Y50126D01*
X52550Y50098D01*
X52519Y50082D01*
X52492Y50062D01*
X52464Y50037D01*
X52439Y50010D01*
Y50007D01*
X52434Y50001D01*
X52428Y49993D01*
X52420Y49979D01*
X52409Y49963D01*
X52398Y49943D01*
X52386Y49918D01*
X52375Y49891D01*
X52362Y49857D01*
X52350Y49821D01*
X52339Y49780D01*
X52328Y49735D01*
X52320Y49686D01*
X52314Y49633D01*
X52312Y49575D01*
X52309Y49511D01*
Y49508D01*
Y49494D01*
Y49475D01*
X52312Y49453D01*
Y49422D01*
X52317Y49386D01*
X52320Y49350D01*
X52325Y49309D01*
X52342Y49223D01*
X52364Y49137D01*
X52378Y49096D01*
X52398Y49057D01*
X52417Y49021D01*
X52439Y48990D01*
X52442Y48987D01*
X52445Y48985D01*
X52453Y48976D01*
X52464Y48965D01*
X52492Y48943D01*
X52530Y48915D01*
X52578Y48885D01*
X52636Y48863D01*
X52702Y48844D01*
X52738Y48841D01*
X52777Y48838D01*
X52791D01*
X52802Y48841D01*
X52832Y48844D01*
X52868Y48849D01*
X52907Y48863D01*
X52952Y48880D01*
X52996Y48902D01*
X53040Y48935D01*
X53046Y48941D01*
X53060Y48954D01*
X53079Y48976D01*
X53101Y49010D01*
X53129Y49054D01*
X53154Y49107D01*
X53179Y49170D01*
X53201Y49245D01*
X53578Y49129D01*
Y49126D01*
X53575Y49115D01*
X53569Y49098D01*
X53561Y49076D01*
X53550Y49051D01*
X53539Y49021D01*
X53525Y48987D01*
X53508Y48952D01*
X53470Y48877D01*
X53420Y48799D01*
X53359Y48724D01*
X53325Y48691D01*
X53290Y48661D01*
X53287Y48658D01*
X53281Y48655D01*
X53270Y48647D01*
X53254Y48636D01*
X53234Y48625D01*
X53209Y48614D01*
X53181Y48600D01*
X53151Y48586D01*
X53115Y48569D01*
X53076Y48555D01*
X53035Y48544D01*
X52990Y48533D01*
X52943Y48522D01*
X52891Y48514D01*
X52838Y48511D01*
X52780Y48508D01*
X52763D01*
X52744Y48511D01*
X52716Y48514D01*
X52686Y48517D01*
X52647Y48522D01*
X52605Y48531D01*
X52558Y48542D01*
X52511Y48555D01*
X52461Y48572D01*
X52409Y48594D01*
X52356Y48619D01*
X52303Y48647D01*
X52251Y48683D01*
X52201Y48722D01*
X52154Y48769D01*
X52151Y48772D01*
X52143Y48780D01*
X52132Y48796D01*
X52115Y48816D01*
X52098Y48844D01*
X52076Y48874D01*
X52054Y48913D01*
X52032Y48957D01*
X52010Y49004D01*
X51988Y49057D01*
X51965Y49118D01*
X51949Y49182D01*
X51932Y49248D01*
X51921Y49323D01*
X51913Y49400D01*
X51910Y49483D01*
Y49486D01*
Y49489D01*
Y49505D01*
X51913Y49531D01*
Y49564D01*
X51918Y49602D01*
X51924Y49650D01*
X51929Y49699D01*
X51941Y49758D01*
X51954Y49816D01*
X51971Y49877D01*
X51990Y49938D01*
X52015Y50001D01*
X52043Y50062D01*
X52076Y50121D01*
X52112Y50176D01*
X52157Y50229D01*
X52159Y50231D01*
X52168Y50240D01*
X52182Y50253D01*
X52201Y50270D01*
X52226Y50289D01*
X52256Y50312D01*
X52289Y50336D01*
X52331Y50362D01*
X52375Y50386D01*
X52422Y50411D01*
X52478Y50433D01*
X52533Y50453D01*
X52597Y50469D01*
X52661Y50483D01*
X52733Y50492D01*
X52805Y50494D01*
X52838D01*
X52863Y50492D01*
D02*
G37*
G36*
X54478Y50467D02*
X54503Y50464D01*
X54528Y50461D01*
X54558Y50456D01*
X54589Y50447D01*
X54658Y50428D01*
X54694Y50414D01*
X54733Y50395D01*
X54769Y50375D01*
X54802Y50353D01*
X54838Y50326D01*
X54868Y50295D01*
X54871Y50292D01*
X54874Y50289D01*
X54882Y50281D01*
X54891Y50270D01*
X54913Y50242D01*
X54938Y50204D01*
X54963Y50156D01*
X54982Y50101D01*
X54999Y50040D01*
X55001Y50010D01*
X55004Y49976D01*
Y49974D01*
Y49965D01*
X55001Y49951D01*
X54999Y49935D01*
X54996Y49913D01*
X54990Y49888D01*
X54982Y49860D01*
X54971Y49830D01*
X54954Y49799D01*
X54938Y49766D01*
X54915Y49733D01*
X54888Y49699D01*
X54855Y49666D01*
X54818Y49633D01*
X54777Y49602D01*
X54727Y49572D01*
X54730D01*
X54735Y49569D01*
X54744D01*
X54755Y49564D01*
X54785Y49555D01*
X54821Y49539D01*
X54863Y49517D01*
X54907Y49489D01*
X54952Y49453D01*
X54990Y49411D01*
X54996Y49406D01*
X55007Y49389D01*
X55021Y49364D01*
X55040Y49328D01*
X55059Y49287D01*
X55073Y49234D01*
X55084Y49179D01*
X55090Y49115D01*
Y49112D01*
Y49104D01*
Y49090D01*
X55087Y49073D01*
X55084Y49051D01*
X55079Y49026D01*
X55073Y48996D01*
X55068Y48965D01*
X55046Y48899D01*
X55029Y48863D01*
X55012Y48824D01*
X54990Y48788D01*
X54965Y48752D01*
X54938Y48716D01*
X54904Y48683D01*
X54902Y48680D01*
X54896Y48674D01*
X54885Y48666D01*
X54871Y48655D01*
X54852Y48641D01*
X54832Y48627D01*
X54805Y48611D01*
X54777Y48594D01*
X54747Y48578D01*
X54711Y48561D01*
X54672Y48547D01*
X54633Y48533D01*
X54589Y48522D01*
X54544Y48514D01*
X54494Y48508D01*
X54445Y48506D01*
X54420D01*
X54400Y48508D01*
X54378Y48511D01*
X54353Y48514D01*
X54325Y48519D01*
X54292Y48525D01*
X54226Y48542D01*
X54154Y48569D01*
X54115Y48586D01*
X54082Y48605D01*
X54046Y48630D01*
X54013Y48655D01*
X54010Y48658D01*
X54004Y48663D01*
X53996Y48672D01*
X53985Y48683D01*
X53971Y48697D01*
X53957Y48716D01*
X53940Y48735D01*
X53924Y48760D01*
X53907Y48788D01*
X53888Y48816D01*
X53857Y48882D01*
X53832Y48960D01*
X53821Y49001D01*
X53816Y49046D01*
X54170Y49090D01*
Y49087D01*
Y49084D01*
X54173Y49068D01*
X54179Y49043D01*
X54187Y49013D01*
X54201Y48979D01*
X54215Y48943D01*
X54237Y48910D01*
X54262Y48880D01*
X54264Y48877D01*
X54276Y48868D01*
X54292Y48857D01*
X54312Y48846D01*
X54339Y48832D01*
X54370Y48821D01*
X54403Y48813D01*
X54442Y48810D01*
X54447D01*
X54461Y48813D01*
X54481Y48816D01*
X54508Y48821D01*
X54539Y48832D01*
X54569Y48846D01*
X54602Y48868D01*
X54633Y48896D01*
X54636Y48899D01*
X54647Y48913D01*
X54658Y48932D01*
X54675Y48957D01*
X54688Y48990D01*
X54702Y49032D01*
X54711Y49079D01*
X54713Y49132D01*
Y49134D01*
Y49137D01*
Y49154D01*
X54711Y49179D01*
X54705Y49212D01*
X54694Y49248D01*
X54680Y49284D01*
X54661Y49320D01*
X54636Y49353D01*
X54633Y49356D01*
X54622Y49367D01*
X54605Y49381D01*
X54586Y49395D01*
X54558Y49411D01*
X54528Y49422D01*
X54494Y49433D01*
X54456Y49436D01*
X54428D01*
X54409Y49433D01*
X54384Y49431D01*
X54353Y49425D01*
X54323Y49417D01*
X54287Y49409D01*
X54325Y49705D01*
X54350D01*
X54378Y49708D01*
X54411Y49711D01*
X54447Y49719D01*
X54486Y49730D01*
X54522Y49747D01*
X54555Y49769D01*
X54558Y49771D01*
X54569Y49782D01*
X54580Y49796D01*
X54597Y49819D01*
X54611Y49843D01*
X54625Y49874D01*
X54633Y49910D01*
X54636Y49951D01*
Y49957D01*
Y49968D01*
X54633Y49985D01*
X54627Y50007D01*
X54622Y50032D01*
X54611Y50057D01*
X54597Y50085D01*
X54577Y50107D01*
X54575Y50109D01*
X54566Y50115D01*
X54555Y50126D01*
X54536Y50137D01*
X54514Y50145D01*
X54489Y50156D01*
X54456Y50162D01*
X54422Y50165D01*
X54406D01*
X54389Y50162D01*
X54367Y50156D01*
X54342Y50148D01*
X54314Y50137D01*
X54287Y50121D01*
X54262Y50098D01*
X54259Y50095D01*
X54251Y50087D01*
X54240Y50071D01*
X54226Y50049D01*
X54212Y50024D01*
X54201Y49990D01*
X54190Y49951D01*
X54181Y49907D01*
X53843Y49963D01*
Y49965D01*
X53846Y49971D01*
Y49979D01*
X53849Y49993D01*
X53857Y50024D01*
X53868Y50065D01*
X53885Y50109D01*
X53902Y50156D01*
X53924Y50201D01*
X53949Y50242D01*
X53952Y50248D01*
X53963Y50259D01*
X53979Y50278D01*
X54001Y50303D01*
X54029Y50328D01*
X54062Y50356D01*
X54104Y50384D01*
X54148Y50409D01*
X54151D01*
X54154Y50411D01*
X54170Y50417D01*
X54198Y50428D01*
X54231Y50439D01*
X54273Y50450D01*
X54323Y50461D01*
X54375Y50467D01*
X54434Y50469D01*
X54458D01*
X54478Y50467D01*
D02*
G37*
G36*
X62373Y92990D02*
X62403Y92988D01*
X62436Y92982D01*
X62475Y92976D01*
X62517Y92968D01*
X62561Y92957D01*
X62608Y92943D01*
X62655Y92927D01*
X62705Y92904D01*
X62752Y92882D01*
X62796Y92854D01*
X62844Y92821D01*
X62885Y92785D01*
X62888D01*
X62891Y92780D01*
X62899Y92772D01*
X62907Y92763D01*
X62918Y92749D01*
X62929Y92733D01*
X62960Y92694D01*
X62990Y92644D01*
X63024Y92583D01*
X63054Y92514D01*
X63082Y92434D01*
X62700Y92342D01*
Y92345D01*
X62697Y92348D01*
Y92356D01*
X62691Y92367D01*
X62683Y92392D01*
X62669Y92425D01*
X62650Y92464D01*
X62625Y92503D01*
X62591Y92541D01*
X62555Y92575D01*
X62550Y92577D01*
X62536Y92589D01*
X62514Y92602D01*
X62483Y92619D01*
X62445Y92636D01*
X62400Y92650D01*
X62350Y92661D01*
X62295Y92663D01*
X62276D01*
X62259Y92661D01*
X62242Y92658D01*
X62220Y92655D01*
X62173Y92644D01*
X62118Y92625D01*
X62060Y92597D01*
X62029Y92580D01*
X62001Y92561D01*
X61974Y92536D01*
X61949Y92508D01*
Y92506D01*
X61943Y92500D01*
X61938Y92492D01*
X61929Y92478D01*
X61918Y92461D01*
X61907Y92442D01*
X61896Y92417D01*
X61885Y92389D01*
X61871Y92356D01*
X61860Y92320D01*
X61849Y92278D01*
X61838Y92234D01*
X61830Y92184D01*
X61824Y92132D01*
X61821Y92073D01*
X61819Y92010D01*
Y92007D01*
Y91993D01*
Y91974D01*
X61821Y91952D01*
Y91921D01*
X61827Y91885D01*
X61830Y91849D01*
X61835Y91808D01*
X61852Y91722D01*
X61874Y91636D01*
X61888Y91594D01*
X61907Y91555D01*
X61927Y91519D01*
X61949Y91489D01*
X61952Y91486D01*
X61954Y91483D01*
X61963Y91475D01*
X61974Y91464D01*
X62001Y91442D01*
X62040Y91414D01*
X62087Y91384D01*
X62146Y91361D01*
X62212Y91342D01*
X62248Y91339D01*
X62287Y91337D01*
X62301D01*
X62312Y91339D01*
X62342Y91342D01*
X62378Y91348D01*
X62417Y91361D01*
X62461Y91378D01*
X62506Y91400D01*
X62550Y91434D01*
X62555Y91439D01*
X62569Y91453D01*
X62589Y91475D01*
X62611Y91508D01*
X62638Y91553D01*
X62664Y91605D01*
X62688Y91669D01*
X62710Y91744D01*
X63087Y91627D01*
Y91625D01*
X63085Y91614D01*
X63079Y91597D01*
X63071Y91575D01*
X63060Y91550D01*
X63048Y91519D01*
X63035Y91486D01*
X63018Y91450D01*
X62979Y91375D01*
X62929Y91298D01*
X62868Y91223D01*
X62835Y91190D01*
X62799Y91159D01*
X62796Y91157D01*
X62791Y91154D01*
X62780Y91145D01*
X62763Y91134D01*
X62744Y91123D01*
X62719Y91112D01*
X62691Y91098D01*
X62661Y91084D01*
X62625Y91068D01*
X62586Y91054D01*
X62544Y91043D01*
X62500Y91032D01*
X62453Y91021D01*
X62400Y91013D01*
X62348Y91010D01*
X62290Y91007D01*
X62273D01*
X62253Y91010D01*
X62226Y91013D01*
X62195Y91015D01*
X62156Y91021D01*
X62115Y91029D01*
X62068Y91040D01*
X62021Y91054D01*
X61971Y91071D01*
X61918Y91093D01*
X61866Y91118D01*
X61813Y91145D01*
X61760Y91181D01*
X61711Y91220D01*
X61664Y91267D01*
X61661Y91270D01*
X61652Y91278D01*
X61641Y91295D01*
X61625Y91314D01*
X61608Y91342D01*
X61586Y91373D01*
X61564Y91411D01*
X61542Y91456D01*
X61519Y91503D01*
X61497Y91555D01*
X61475Y91616D01*
X61458Y91680D01*
X61442Y91747D01*
X61431Y91821D01*
X61422Y91899D01*
X61420Y91982D01*
Y91985D01*
Y91988D01*
Y92004D01*
X61422Y92029D01*
Y92062D01*
X61428Y92101D01*
X61434Y92148D01*
X61439Y92198D01*
X61450Y92256D01*
X61464Y92314D01*
X61481Y92375D01*
X61500Y92436D01*
X61525Y92500D01*
X61553Y92561D01*
X61586Y92619D01*
X61622Y92674D01*
X61666Y92727D01*
X61669Y92730D01*
X61677Y92738D01*
X61691Y92752D01*
X61711Y92769D01*
X61735Y92788D01*
X61766Y92810D01*
X61799Y92835D01*
X61841Y92860D01*
X61885Y92885D01*
X61932Y92910D01*
X61988Y92932D01*
X62043Y92952D01*
X62107Y92968D01*
X62170Y92982D01*
X62242Y92990D01*
X62314Y92993D01*
X62348D01*
X62373Y92990D01*
D02*
G37*
G36*
X64018Y92965D02*
X64043Y92963D01*
X64071Y92960D01*
X64101Y92954D01*
X64134Y92949D01*
X64206Y92929D01*
X64278Y92902D01*
X64317Y92885D01*
X64350Y92866D01*
X64386Y92841D01*
X64417Y92813D01*
X64420Y92810D01*
X64425Y92808D01*
X64431Y92796D01*
X64442Y92785D01*
X64456Y92772D01*
X64469Y92752D01*
X64483Y92733D01*
X64500Y92708D01*
X64528Y92652D01*
X64555Y92589D01*
X64566Y92553D01*
X64572Y92514D01*
X64578Y92472D01*
X64580Y92431D01*
Y92425D01*
Y92409D01*
X64578Y92384D01*
X64575Y92353D01*
X64569Y92314D01*
X64561Y92273D01*
X64550Y92229D01*
X64533Y92184D01*
X64530Y92179D01*
X64525Y92165D01*
X64514Y92140D01*
X64497Y92109D01*
X64478Y92073D01*
X64453Y92032D01*
X64422Y91988D01*
X64386Y91940D01*
X64384Y91938D01*
X64372Y91924D01*
X64356Y91904D01*
X64331Y91877D01*
X64298Y91843D01*
X64256Y91799D01*
X64206Y91752D01*
X64145Y91694D01*
X64143Y91691D01*
X64137Y91688D01*
X64129Y91680D01*
X64118Y91669D01*
X64087Y91641D01*
X64051Y91608D01*
X64015Y91572D01*
X63979Y91536D01*
X63946Y91506D01*
X63935Y91492D01*
X63924Y91481D01*
X63921Y91478D01*
X63915Y91472D01*
X63907Y91461D01*
X63896Y91447D01*
X63871Y91417D01*
X63849Y91381D01*
X64580D01*
Y91040D01*
X63292D01*
Y91043D01*
Y91049D01*
X63295Y91060D01*
X63298Y91073D01*
X63301Y91090D01*
X63303Y91110D01*
X63314Y91159D01*
X63331Y91215D01*
X63353Y91276D01*
X63381Y91342D01*
X63417Y91406D01*
Y91409D01*
X63422Y91414D01*
X63428Y91425D01*
X63439Y91436D01*
X63450Y91456D01*
X63467Y91475D01*
X63486Y91500D01*
X63508Y91528D01*
X63533Y91561D01*
X63564Y91594D01*
X63597Y91633D01*
X63636Y91675D01*
X63677Y91716D01*
X63724Y91763D01*
X63774Y91813D01*
X63830Y91866D01*
X63832Y91868D01*
X63841Y91877D01*
X63852Y91888D01*
X63868Y91904D01*
X63891Y91921D01*
X63913Y91943D01*
X63963Y91993D01*
X64012Y92046D01*
X64062Y92098D01*
X64085Y92120D01*
X64107Y92145D01*
X64123Y92165D01*
X64134Y92181D01*
X64137Y92187D01*
X64145Y92201D01*
X64159Y92223D01*
X64173Y92254D01*
X64187Y92287D01*
X64201Y92326D01*
X64209Y92364D01*
X64212Y92406D01*
Y92409D01*
Y92411D01*
Y92425D01*
X64209Y92450D01*
X64204Y92478D01*
X64195Y92508D01*
X64184Y92539D01*
X64168Y92569D01*
X64145Y92597D01*
X64143Y92600D01*
X64134Y92608D01*
X64118Y92619D01*
X64098Y92630D01*
X64071Y92641D01*
X64040Y92652D01*
X64004Y92661D01*
X63963Y92663D01*
X63943D01*
X63921Y92661D01*
X63896Y92655D01*
X63866Y92647D01*
X63835Y92633D01*
X63805Y92616D01*
X63777Y92594D01*
X63774Y92591D01*
X63766Y92580D01*
X63755Y92564D01*
X63744Y92539D01*
X63730Y92508D01*
X63719Y92467D01*
X63708Y92420D01*
X63702Y92364D01*
X63337Y92400D01*
Y92403D01*
X63339Y92414D01*
Y92428D01*
X63345Y92450D01*
X63348Y92475D01*
X63356Y92503D01*
X63364Y92533D01*
X63373Y92569D01*
X63400Y92638D01*
X63433Y92711D01*
X63456Y92747D01*
X63481Y92780D01*
X63508Y92808D01*
X63539Y92835D01*
X63542Y92838D01*
X63547Y92841D01*
X63555Y92846D01*
X63569Y92857D01*
X63586Y92866D01*
X63608Y92877D01*
X63630Y92891D01*
X63658Y92902D01*
X63688Y92915D01*
X63722Y92927D01*
X63794Y92949D01*
X63880Y92963D01*
X63924Y92965D01*
X63971Y92968D01*
X63999D01*
X64018Y92965D01*
D02*
G37*
G36*
X43024Y92490D02*
X43054Y92488D01*
X43087Y92482D01*
X43126Y92476D01*
X43168Y92468D01*
X43212Y92457D01*
X43259Y92443D01*
X43306Y92427D01*
X43356Y92404D01*
X43403Y92382D01*
X43447Y92355D01*
X43494Y92321D01*
X43536Y92285D01*
X43539D01*
X43542Y92280D01*
X43550Y92272D01*
X43558Y92263D01*
X43569Y92249D01*
X43580Y92233D01*
X43611Y92194D01*
X43641Y92144D01*
X43674Y92083D01*
X43705Y92014D01*
X43733Y91934D01*
X43350Y91842D01*
Y91845D01*
X43348Y91848D01*
Y91856D01*
X43342Y91867D01*
X43334Y91892D01*
X43320Y91925D01*
X43301Y91964D01*
X43276Y92003D01*
X43242Y92041D01*
X43206Y92075D01*
X43201Y92077D01*
X43187Y92089D01*
X43165Y92102D01*
X43134Y92119D01*
X43096Y92136D01*
X43051Y92150D01*
X43001Y92161D01*
X42946Y92163D01*
X42927D01*
X42910Y92161D01*
X42893Y92158D01*
X42871Y92155D01*
X42824Y92144D01*
X42769Y92125D01*
X42711Y92097D01*
X42680Y92080D01*
X42652Y92061D01*
X42625Y92036D01*
X42600Y92008D01*
Y92005D01*
X42594Y92000D01*
X42589Y91992D01*
X42580Y91978D01*
X42569Y91961D01*
X42558Y91942D01*
X42547Y91917D01*
X42536Y91889D01*
X42522Y91856D01*
X42511Y91820D01*
X42500Y91778D01*
X42489Y91734D01*
X42481Y91684D01*
X42475Y91632D01*
X42472Y91573D01*
X42470Y91510D01*
Y91507D01*
Y91493D01*
Y91474D01*
X42472Y91452D01*
Y91421D01*
X42478Y91385D01*
X42481Y91349D01*
X42486Y91307D01*
X42503Y91222D01*
X42525Y91136D01*
X42539Y91094D01*
X42558Y91055D01*
X42578Y91019D01*
X42600Y90989D01*
X42603Y90986D01*
X42605Y90983D01*
X42614Y90975D01*
X42625Y90964D01*
X42652Y90942D01*
X42691Y90914D01*
X42738Y90884D01*
X42796Y90861D01*
X42863Y90842D01*
X42899Y90839D01*
X42938Y90837D01*
X42952D01*
X42963Y90839D01*
X42993Y90842D01*
X43029Y90848D01*
X43068Y90861D01*
X43112Y90878D01*
X43156Y90900D01*
X43201Y90934D01*
X43206Y90939D01*
X43220Y90953D01*
X43240Y90975D01*
X43262Y91008D01*
X43290Y91053D01*
X43314Y91105D01*
X43339Y91169D01*
X43361Y91244D01*
X43738Y91127D01*
Y91125D01*
X43735Y91114D01*
X43730Y91097D01*
X43722Y91075D01*
X43711Y91050D01*
X43699Y91019D01*
X43686Y90986D01*
X43669Y90950D01*
X43630Y90875D01*
X43580Y90798D01*
X43519Y90723D01*
X43486Y90690D01*
X43450Y90659D01*
X43447Y90657D01*
X43442Y90654D01*
X43431Y90645D01*
X43414Y90634D01*
X43395Y90623D01*
X43370Y90612D01*
X43342Y90598D01*
X43312Y90584D01*
X43276Y90568D01*
X43237Y90554D01*
X43195Y90543D01*
X43151Y90532D01*
X43104Y90521D01*
X43051Y90513D01*
X42999Y90510D01*
X42941Y90507D01*
X42924D01*
X42904Y90510D01*
X42877Y90513D01*
X42846Y90515D01*
X42807Y90521D01*
X42766Y90529D01*
X42719Y90540D01*
X42672Y90554D01*
X42622Y90571D01*
X42569Y90593D01*
X42517Y90618D01*
X42464Y90645D01*
X42411Y90681D01*
X42362Y90720D01*
X42314Y90767D01*
X42312Y90770D01*
X42303Y90778D01*
X42292Y90795D01*
X42276Y90814D01*
X42259Y90842D01*
X42237Y90873D01*
X42215Y90911D01*
X42193Y90956D01*
X42170Y91003D01*
X42148Y91055D01*
X42126Y91116D01*
X42110Y91180D01*
X42093Y91247D01*
X42082Y91321D01*
X42074Y91399D01*
X42071Y91482D01*
Y91485D01*
Y91487D01*
Y91504D01*
X42074Y91529D01*
Y91562D01*
X42079Y91601D01*
X42085Y91648D01*
X42090Y91698D01*
X42101Y91756D01*
X42115Y91814D01*
X42132Y91875D01*
X42151Y91936D01*
X42176Y92000D01*
X42204Y92061D01*
X42237Y92119D01*
X42273Y92175D01*
X42317Y92227D01*
X42320Y92230D01*
X42328Y92238D01*
X42342Y92252D01*
X42362Y92269D01*
X42386Y92288D01*
X42417Y92310D01*
X42450Y92335D01*
X42492Y92360D01*
X42536Y92385D01*
X42583Y92410D01*
X42638Y92432D01*
X42694Y92452D01*
X42758Y92468D01*
X42821Y92482D01*
X42893Y92490D01*
X42965Y92493D01*
X42999D01*
X43024Y92490D01*
D02*
G37*
G36*
X44929Y90540D02*
X44561D01*
Y91928D01*
X44558Y91925D01*
X44553Y91920D01*
X44541Y91911D01*
X44525Y91897D01*
X44506Y91881D01*
X44483Y91864D01*
X44456Y91845D01*
X44425Y91823D01*
X44392Y91800D01*
X44356Y91778D01*
X44317Y91754D01*
X44276Y91731D01*
X44187Y91690D01*
X44087Y91651D01*
Y91983D01*
X44090D01*
X44093Y91986D01*
X44101Y91989D01*
X44112Y91992D01*
X44140Y92005D01*
X44179Y92022D01*
X44226Y92044D01*
X44278Y92075D01*
X44337Y92114D01*
X44398Y92158D01*
X44400Y92161D01*
X44406Y92163D01*
X44414Y92172D01*
X44425Y92183D01*
X44456Y92211D01*
X44489Y92247D01*
X44528Y92291D01*
X44566Y92346D01*
X44603Y92404D01*
X44630Y92468D01*
X44929D01*
Y90540D01*
D02*
G37*
%LPC*%
G36*
X7450Y93641D02*
X7180D01*
Y92285D01*
X7544D01*
X7583Y92288D01*
X7624D01*
X7666Y92294D01*
X7704Y92297D01*
X7737Y92303D01*
X7743D01*
X7755Y92308D01*
X7772Y92314D01*
X7796Y92323D01*
X7823Y92335D01*
X7849Y92350D01*
X7876Y92368D01*
X7903Y92388D01*
X7906Y92391D01*
X7914Y92400D01*
X7926Y92415D01*
X7941Y92436D01*
X7956Y92462D01*
X7977Y92495D01*
X7991Y92536D01*
X8009Y92584D01*
Y92587D01*
X8012Y92590D01*
Y92599D01*
X8015Y92610D01*
X8021Y92622D01*
X8024Y92640D01*
X8033Y92684D01*
X8039Y92738D01*
X8048Y92800D01*
X8051Y92877D01*
X8054Y92960D01*
Y92963D01*
Y92971D01*
Y92983D01*
Y92998D01*
Y93019D01*
X8051Y93043D01*
X8048Y93093D01*
X8042Y93152D01*
X8036Y93214D01*
X8024Y93270D01*
X8009Y93324D01*
Y93327D01*
X8006Y93330D01*
X8000Y93344D01*
X7991Y93368D01*
X7980Y93398D01*
X7962Y93427D01*
X7941Y93460D01*
X7917Y93493D01*
X7891Y93522D01*
X7888Y93525D01*
X7879Y93534D01*
X7861Y93546D01*
X7841Y93561D01*
X7811Y93578D01*
X7778Y93593D01*
X7743Y93608D01*
X7701Y93620D01*
X7698D01*
X7684Y93623D01*
X7660Y93626D01*
X7627Y93632D01*
X7607D01*
X7580Y93635D01*
X7553D01*
X7524Y93638D01*
X7488D01*
X7450Y93641D01*
D02*
G37*
G36*
X7284Y100510D02*
X7006Y99749D01*
X7571D01*
X7284Y100510D01*
D02*
G37*
G36*
X5102Y100640D02*
X4833D01*
Y99285D01*
X5197D01*
X5236Y99288D01*
X5277D01*
X5319Y99294D01*
X5357Y99297D01*
X5390Y99303D01*
X5395D01*
X5407Y99309D01*
X5425Y99314D01*
X5449Y99323D01*
X5475Y99335D01*
X5502Y99350D01*
X5529Y99368D01*
X5555Y99388D01*
X5558Y99391D01*
X5567Y99400D01*
X5579Y99415D01*
X5594Y99436D01*
X5609Y99462D01*
X5629Y99495D01*
X5644Y99536D01*
X5662Y99584D01*
Y99587D01*
X5665Y99590D01*
Y99599D01*
X5668Y99610D01*
X5674Y99622D01*
X5677Y99640D01*
X5686Y99684D01*
X5692Y99738D01*
X5700Y99800D01*
X5703Y99877D01*
X5706Y99960D01*
Y99963D01*
Y99971D01*
Y99983D01*
Y99998D01*
Y100019D01*
X5703Y100043D01*
X5700Y100093D01*
X5694Y100152D01*
X5689Y100214D01*
X5677Y100270D01*
X5662Y100324D01*
Y100327D01*
X5659Y100330D01*
X5653Y100345D01*
X5644Y100368D01*
X5632Y100398D01*
X5615Y100427D01*
X5594Y100460D01*
X5570Y100493D01*
X5544Y100522D01*
X5541Y100525D01*
X5532Y100534D01*
X5514Y100546D01*
X5493Y100561D01*
X5464Y100578D01*
X5431Y100593D01*
X5395Y100608D01*
X5354Y100620D01*
X5351D01*
X5336Y100623D01*
X5313Y100626D01*
X5280Y100632D01*
X5259D01*
X5233Y100635D01*
X5206D01*
X5176Y100637D01*
X5141D01*
X5102Y100640D01*
D02*
G37*
G36*
X66535Y72688D02*
D01*
Y72022D01*
X66532Y72075D01*
X66526Y72126D01*
X66514Y72176D01*
X66502Y72220D01*
X66487Y72262D01*
X66470Y72300D01*
X66449Y72333D01*
X66428Y72365D01*
X66410Y72392D01*
X66390Y72419D01*
X66372Y72439D01*
X66357Y72457D01*
X66345Y72469D01*
X66333Y72478D01*
X66327Y72484D01*
X66325Y72487D01*
X66274Y72522D01*
X66215Y72552D01*
X66153Y72581D01*
X66085Y72602D01*
X66017Y72623D01*
X65949Y72638D01*
X65877Y72653D01*
X65809Y72664D01*
X65744Y72670D01*
X65685Y72676D01*
X65629Y72682D01*
X65582Y72685D01*
X65543Y72688D01*
X65487D01*
X65380Y72685D01*
X65283Y72679D01*
X65194Y72670D01*
X65111Y72655D01*
X65034Y72641D01*
X64966Y72626D01*
X64904Y72605D01*
X64850Y72587D01*
X64800Y72570D01*
X64762Y72552D01*
X64726Y72534D01*
X64697Y72519D01*
X64676Y72505D01*
X64661Y72496D01*
X64652Y72490D01*
X64649Y72487D01*
X64611Y72454D01*
X64578Y72419D01*
X64551Y72380D01*
X64525Y72342D01*
X64504Y72303D01*
X64489Y72265D01*
X64474Y72229D01*
X64463Y72191D01*
X64454Y72155D01*
X64448Y72126D01*
X64442Y72096D01*
X64439Y72072D01*
X64436Y72052D01*
Y72022D01*
X64439Y71969D01*
X64445Y71918D01*
X64457Y71868D01*
X64469Y71824D01*
X64486Y71782D01*
X64504Y71744D01*
X64522Y71711D01*
X64543Y71679D01*
X64563Y71652D01*
X64581Y71625D01*
X64599Y71605D01*
X64617Y71590D01*
X64628Y71575D01*
X64640Y71566D01*
X64646Y71560D01*
X64649Y71557D01*
X64699Y71522D01*
X64759Y71492D01*
X64821Y71466D01*
X64886Y71442D01*
X64954Y71424D01*
X65025Y71406D01*
X65093Y71395D01*
X65161Y71383D01*
X65226Y71377D01*
X65285Y71371D01*
X65342Y71365D01*
X65389Y71362D01*
X65428Y71359D01*
X65484D01*
X65590Y71362D01*
X65688Y71368D01*
X65780Y71377D01*
X65863Y71389D01*
X65937Y71400D01*
X66005Y71415D01*
X66064Y71433D01*
X66117Y71451D01*
X66162Y71466D01*
X66203Y71483D01*
X66236Y71498D01*
X66262Y71513D01*
X66280Y71522D01*
X66295Y71531D01*
X66304Y71537D01*
X66307Y71540D01*
X66348Y71575D01*
X66381Y71614D01*
X66413Y71652D01*
X66437Y71693D01*
X66461Y71732D01*
X66478Y71773D01*
X66493Y71812D01*
X66505Y71850D01*
X66517Y71886D01*
X66523Y71918D01*
X66529Y71948D01*
X66532Y71972D01*
Y71992D01*
X66535Y72010D01*
Y72688D01*
D02*
G37*
G36*
X66496Y70770D02*
X64436D01*
Y70450D01*
X64504Y70421D01*
X64566Y70382D01*
X64625Y70341D01*
X64673Y70299D01*
X64711Y70264D01*
X64741Y70231D01*
X64753Y70219D01*
X64762Y70211D01*
X64765Y70205D01*
X64767Y70202D01*
X64815Y70137D01*
X64856Y70074D01*
X64889Y70018D01*
X64913Y69968D01*
X64930Y69926D01*
X64945Y69897D01*
X64948Y69885D01*
X64951Y69876D01*
X64954Y69873D01*
Y69870D01*
X64436D01*
X65309D01*
X65268Y69977D01*
X65223Y70071D01*
X65200Y70116D01*
X65173Y70157D01*
X65149Y70196D01*
X65126Y70231D01*
X65102Y70264D01*
X65081Y70293D01*
X65064Y70317D01*
X65046Y70338D01*
X65031Y70356D01*
X65022Y70367D01*
X65016Y70373D01*
X65013Y70376D01*
X66496D01*
Y69870D01*
D01*
Y70770D01*
D02*
G37*
G36*
X65949Y69625D02*
X65555D01*
Y68852D01*
X65949D01*
Y69625D01*
D02*
G37*
G36*
X65833Y68606D02*
X65809D01*
D01*
D01*
D01*
X64474D01*
X65809D01*
X65753Y68603D01*
X65700Y68597D01*
X65650Y68589D01*
X65602Y68577D01*
X65561Y68565D01*
X65519Y68547D01*
X65481Y68532D01*
X65448Y68515D01*
X65419Y68497D01*
X65392Y68482D01*
X65368Y68464D01*
X65351Y68452D01*
X65336Y68441D01*
X65324Y68432D01*
X65318Y68426D01*
X65315Y68423D01*
X65283Y68387D01*
X65253Y68352D01*
X65226Y68313D01*
X65203Y68275D01*
X65185Y68239D01*
X65170Y68201D01*
X65146Y68133D01*
X65137Y68100D01*
X65132Y68071D01*
X65129Y68044D01*
X65126Y68023D01*
X65123Y68005D01*
Y67979D01*
X65126Y67928D01*
X65135Y67878D01*
X65143Y67834D01*
X65155Y67792D01*
X65170Y67760D01*
X65179Y67733D01*
X65188Y67715D01*
X65191Y67712D01*
Y67709D01*
X64842Y67772D01*
Y68515D01*
X64474D01*
Y67227D01*
Y67475D01*
X65543Y67274D01*
X65587Y67591D01*
X65561Y67618D01*
X65537Y67644D01*
X65516Y67671D01*
X65499Y67698D01*
X65472Y67748D01*
X65454Y67795D01*
X65445Y67837D01*
X65439Y67866D01*
X65437Y67878D01*
Y67896D01*
X65439Y67943D01*
X65451Y67988D01*
X65466Y68026D01*
X65484Y68059D01*
X65505Y68082D01*
X65519Y68103D01*
X65531Y68115D01*
X65534Y68118D01*
X65573Y68147D01*
X65617Y68168D01*
X65664Y68183D01*
X65712Y68192D01*
X65753Y68201D01*
X65786Y68204D01*
X65801D01*
X65809D01*
X65815D01*
X65818D01*
X65889Y68201D01*
X65952Y68192D01*
X66002Y68177D01*
X66043Y68162D01*
X66079Y68145D01*
X66102Y68133D01*
X66114Y68121D01*
X66120Y68118D01*
X66153Y68085D01*
X66179Y68050D01*
X66197Y68014D01*
X66209Y67982D01*
X66215Y67952D01*
X66218Y67928D01*
X66221Y67914D01*
Y67908D01*
X66218Y67869D01*
X66209Y67831D01*
X66197Y67798D01*
X66182Y67772D01*
X66168Y67748D01*
X66156Y67730D01*
X66147Y67718D01*
X66144Y67715D01*
X66111Y67689D01*
X66079Y67665D01*
X66043Y67647D01*
X66011Y67635D01*
X65981Y67627D01*
X65955Y67621D01*
X65940Y67618D01*
X65934D01*
X65975Y67227D01*
X66023Y67236D01*
X66067Y67245D01*
X66147Y67274D01*
X66218Y67307D01*
X66247Y67325D01*
X66277Y67345D01*
X66301Y67363D01*
X66321Y67378D01*
X66339Y67396D01*
X66357Y67407D01*
X66369Y67419D01*
X66378Y67428D01*
X66381Y67434D01*
X66384Y67437D01*
X66410Y67473D01*
X66434Y67508D01*
X66455Y67547D01*
X66470Y67585D01*
X66499Y67665D01*
X66517Y67736D01*
X66523Y67772D01*
X66526Y67801D01*
X66529Y67831D01*
X66532Y67854D01*
X66535Y67875D01*
Y67378D01*
Y67902D01*
X66532Y67967D01*
X66523Y68029D01*
X66511Y68085D01*
X66493Y68139D01*
X66473Y68189D01*
X66449Y68233D01*
X66425Y68275D01*
X66399Y68313D01*
X66375Y68346D01*
X66351Y68375D01*
X66327Y68402D01*
X66307Y68423D01*
X66289Y68437D01*
X66277Y68449D01*
X66268Y68455D01*
X66265Y68458D01*
X66227Y68485D01*
X66188Y68509D01*
X66150Y68526D01*
X66108Y68544D01*
X66031Y68571D01*
X65960Y68589D01*
X65931Y68594D01*
X65901Y68597D01*
X65875Y68603D01*
X65851D01*
X65833Y68606D01*
D02*
G37*
G36*
X66496Y66955D02*
X66132D01*
Y66173D01*
X66094Y66197D01*
X66061Y66223D01*
X66046Y66235D01*
X66034Y66244D01*
X66028Y66250D01*
X66026Y66253D01*
X66014Y66265D01*
X65999Y66277D01*
X65966Y66312D01*
X65928Y66351D01*
X65889Y66389D01*
X65854Y66428D01*
X65824Y66460D01*
X65812Y66472D01*
X65803Y66481D01*
X65801Y66487D01*
X65798Y66490D01*
X65735Y66555D01*
X65685Y66608D01*
X65638Y66653D01*
X65602Y66688D01*
X65573Y66715D01*
X65552Y66733D01*
X65537Y66744D01*
X65534Y66747D01*
X65484Y66786D01*
X65437Y66818D01*
X65392Y66845D01*
X65354Y66866D01*
X65321Y66883D01*
X65294Y66895D01*
X65280Y66901D01*
X65274Y66904D01*
X65226Y66922D01*
X65179Y66934D01*
X65135Y66943D01*
X65093Y66949D01*
X65061Y66952D01*
X65034Y66955D01*
X65641D01*
X64436D01*
X65010D01*
X64966Y66952D01*
X64921Y66946D01*
X64880Y66940D01*
X64842Y66928D01*
X64773Y66898D01*
X64714Y66869D01*
X64688Y66851D01*
X64667Y66836D01*
X64646Y66821D01*
X64631Y66807D01*
X64619Y66795D01*
X64608Y66789D01*
X64605Y66783D01*
X64602Y66780D01*
X64572Y66747D01*
X64546Y66709D01*
X64525Y66673D01*
X64507Y66632D01*
X64477Y66555D01*
X64457Y66478D01*
X64451Y66443D01*
X64445Y66410D01*
X64442Y66380D01*
X64439Y66354D01*
X64436Y66333D01*
Y66303D01*
X64439Y66253D01*
X64442Y66206D01*
X64457Y66114D01*
X64480Y66037D01*
X64492Y66001D01*
X64507Y65969D01*
X64519Y65939D01*
X64534Y65916D01*
X64546Y65892D01*
X64554Y65874D01*
X64566Y65859D01*
X64572Y65851D01*
X64575Y65845D01*
X64578Y65842D01*
X64608Y65809D01*
X64637Y65779D01*
X64673Y65753D01*
X64711Y65729D01*
X64788Y65694D01*
X64862Y65664D01*
X64901Y65655D01*
X64933Y65646D01*
X64963Y65637D01*
X64990Y65634D01*
X65013Y65628D01*
X65028D01*
X65040Y65626D01*
X65043D01*
X65081Y66016D01*
X65022Y66022D01*
X64972Y66034D01*
X64927Y66046D01*
X64895Y66061D01*
X64868Y66072D01*
X64850Y66084D01*
X64839Y66093D01*
X64836Y66096D01*
X64812Y66126D01*
X64794Y66158D01*
X64779Y66191D01*
X64771Y66223D01*
X64765Y66250D01*
X64762Y66274D01*
Y66294D01*
X64765Y66339D01*
X64773Y66377D01*
X64785Y66410D01*
X64797Y66439D01*
X64809Y66460D01*
X64821Y66478D01*
X64830Y66487D01*
X64833Y66490D01*
X64862Y66514D01*
X64895Y66531D01*
X64927Y66543D01*
X64960Y66552D01*
X64990Y66558D01*
X65016Y66561D01*
X65031D01*
X65034D01*
X65037D01*
X65081Y66558D01*
X65123Y66549D01*
X65164Y66534D01*
X65200Y66519D01*
X65232Y66505D01*
X65256Y66490D01*
X65271Y66481D01*
X65277Y66478D01*
X65294Y66466D01*
X65315Y66448D01*
X65342Y66425D01*
X65365Y66401D01*
X65422Y66348D01*
X65478Y66294D01*
X65531Y66241D01*
X65555Y66217D01*
X65573Y66194D01*
X65590Y66176D01*
X65602Y66164D01*
X65611Y66155D01*
X65614Y66152D01*
X65670Y66093D01*
X65724Y66040D01*
X65774Y65990D01*
X65818Y65945D01*
X65863Y65904D01*
X65904Y65868D01*
X65940Y65836D01*
X65975Y65809D01*
X66005Y65785D01*
X66031Y65765D01*
X66052Y65747D01*
X66073Y65735D01*
X66085Y65723D01*
X66097Y65717D01*
X66102Y65711D01*
X66105D01*
X66173Y65673D01*
X66245Y65643D01*
X66310Y65620D01*
X66369Y65602D01*
X66422Y65590D01*
X66443Y65587D01*
X66461Y65584D01*
X66475Y65581D01*
X66487Y65578D01*
X64436D01*
X66496D01*
Y66955D01*
D02*
G37*
G36*
X66535Y65365D02*
D01*
Y64699D01*
X66532Y64752D01*
X66526Y64803D01*
X66514Y64853D01*
X66502Y64897D01*
X66487Y64939D01*
X66470Y64977D01*
X66449Y65010D01*
X66428Y65042D01*
X66410Y65069D01*
X66390Y65096D01*
X66372Y65116D01*
X66357Y65134D01*
X66345Y65146D01*
X66333Y65155D01*
X66327Y65161D01*
X66325Y65164D01*
X66274Y65199D01*
X66215Y65229D01*
X66153Y65259D01*
X66085Y65279D01*
X66017Y65300D01*
X65949Y65315D01*
X65877Y65329D01*
X65809Y65341D01*
X65744Y65347D01*
X65685Y65353D01*
X65629Y65359D01*
X65582Y65362D01*
X65543Y65365D01*
X64436D01*
X65487D01*
X65380Y65362D01*
X65283Y65356D01*
X65194Y65347D01*
X65111Y65333D01*
X65034Y65318D01*
X64966Y65303D01*
X64904Y65282D01*
X64850Y65264D01*
X64800Y65247D01*
X64762Y65229D01*
X64726Y65211D01*
X64697Y65196D01*
X64676Y65181D01*
X64661Y65173D01*
X64652Y65167D01*
X64649Y65164D01*
X64611Y65131D01*
X64578Y65096D01*
X64551Y65057D01*
X64525Y65019D01*
X64504Y64980D01*
X64489Y64942D01*
X64474Y64906D01*
X64463Y64868D01*
X64454Y64832D01*
X64448Y64803D01*
X64442Y64773D01*
X64439Y64749D01*
X64436Y64729D01*
Y64699D01*
X64439Y64646D01*
X64445Y64595D01*
X64457Y64545D01*
X64469Y64501D01*
X64486Y64459D01*
X64504Y64421D01*
X64522Y64388D01*
X64543Y64356D01*
X64563Y64329D01*
X64581Y64302D01*
X64599Y64282D01*
X64617Y64267D01*
X64628Y64252D01*
X64640Y64243D01*
X64646Y64237D01*
X64649Y64234D01*
X64699Y64199D01*
X64759Y64169D01*
X64821Y64143D01*
X64886Y64119D01*
X64954Y64101D01*
X65025Y64083D01*
X65093Y64072D01*
X65161Y64060D01*
X65226Y64054D01*
X65285Y64048D01*
X65342Y64042D01*
X65389Y64039D01*
X65428Y64036D01*
X66535D01*
Y65365D01*
D02*
G37*
G36*
X66496Y63770D02*
X66132D01*
Y62988D01*
X66094Y63012D01*
X66061Y63038D01*
X66046Y63050D01*
X66034Y63059D01*
X66028Y63065D01*
X66026Y63068D01*
X66014Y63080D01*
X65999Y63092D01*
X65966Y63127D01*
X65928Y63166D01*
X65889Y63204D01*
X65854Y63243D01*
X65824Y63275D01*
X65812Y63287D01*
X65803Y63296D01*
X65801Y63302D01*
X65798Y63305D01*
X65735Y63370D01*
X65685Y63423D01*
X65638Y63468D01*
X65602Y63503D01*
X65573Y63530D01*
X65552Y63548D01*
X65537Y63559D01*
X65534Y63562D01*
X65484Y63601D01*
X65437Y63633D01*
X65392Y63660D01*
X65354Y63681D01*
X65321Y63699D01*
X65294Y63710D01*
X65280Y63716D01*
X65274Y63719D01*
X65226Y63737D01*
X65179Y63749D01*
X65135Y63758D01*
X65093Y63764D01*
X65061Y63767D01*
X65034Y63770D01*
X65641D01*
X64436D01*
X65010D01*
X64966Y63767D01*
X64921Y63761D01*
X64880Y63755D01*
X64842Y63743D01*
X64773Y63713D01*
X64714Y63684D01*
X64688Y63666D01*
X64667Y63651D01*
X64646Y63636D01*
X64631Y63622D01*
X64619Y63610D01*
X64608Y63604D01*
X64605Y63598D01*
X64602Y63595D01*
X64572Y63562D01*
X64546Y63524D01*
X64525Y63488D01*
X64507Y63447D01*
X64477Y63370D01*
X64457Y63293D01*
X64451Y63257D01*
X64445Y63225D01*
X64442Y63195D01*
X64439Y63169D01*
X64436Y63148D01*
Y63118D01*
X64439Y63068D01*
X64442Y63021D01*
X64457Y62929D01*
X64480Y62852D01*
X64492Y62817D01*
X64507Y62784D01*
X64519Y62754D01*
X64534Y62731D01*
X64546Y62707D01*
X64554Y62689D01*
X64566Y62674D01*
X64572Y62665D01*
X64575Y62660D01*
X64578Y62657D01*
X64608Y62624D01*
X64637Y62594D01*
X64673Y62568D01*
X64711Y62544D01*
X64788Y62509D01*
X64862Y62479D01*
X64901Y62470D01*
X64933Y62461D01*
X64963Y62452D01*
X64990Y62449D01*
X65013Y62444D01*
X65028D01*
X65040Y62441D01*
X65043D01*
X65081Y62831D01*
X65022Y62837D01*
X64972Y62849D01*
X64927Y62861D01*
X64895Y62876D01*
X64868Y62888D01*
X64850Y62899D01*
X64839Y62908D01*
X64836Y62911D01*
X64812Y62941D01*
X64794Y62973D01*
X64779Y63006D01*
X64771Y63038D01*
X64765Y63065D01*
X64762Y63089D01*
Y63109D01*
X64765Y63154D01*
X64773Y63192D01*
X64785Y63225D01*
X64797Y63255D01*
X64809Y63275D01*
X64821Y63293D01*
X64830Y63302D01*
X64833Y63305D01*
X64862Y63329D01*
X64895Y63346D01*
X64927Y63358D01*
X64960Y63367D01*
X64990Y63373D01*
X65016Y63376D01*
X65031D01*
X65034D01*
X65037D01*
X65081Y63373D01*
X65123Y63364D01*
X65164Y63349D01*
X65200Y63335D01*
X65232Y63320D01*
X65256Y63305D01*
X65271Y63296D01*
X65277Y63293D01*
X65294Y63281D01*
X65315Y63263D01*
X65342Y63240D01*
X65365Y63216D01*
X65422Y63163D01*
X65478Y63109D01*
X65531Y63056D01*
X65555Y63033D01*
X65573Y63009D01*
X65590Y62991D01*
X65602Y62979D01*
X65611Y62970D01*
X65614Y62967D01*
X65670Y62908D01*
X65724Y62855D01*
X65774Y62805D01*
X65818Y62760D01*
X65863Y62719D01*
X65904Y62683D01*
X65940Y62651D01*
X65975Y62624D01*
X66005Y62600D01*
X66031Y62580D01*
X66052Y62562D01*
X66073Y62550D01*
X66085Y62538D01*
X66097Y62532D01*
X66102Y62526D01*
X66105D01*
X66173Y62488D01*
X66245Y62458D01*
X66310Y62435D01*
X66369Y62417D01*
X66422Y62405D01*
X66443Y62402D01*
X66461Y62399D01*
X66475Y62396D01*
X66487Y62393D01*
X64436D01*
X66496D01*
Y63770D01*
D02*
G37*
G36*
X67100Y61283D02*
X64412D01*
Y60972D01*
X67100D01*
Y61283D01*
D02*
G37*
G36*
X65543Y59785D02*
X64436D01*
X65487D01*
X65380Y59782D01*
X65283Y59777D01*
X65194Y59768D01*
X65111Y59753D01*
X65034Y59738D01*
X64966Y59723D01*
X64904Y59703D01*
X64850Y59685D01*
X64800Y59667D01*
X64762Y59649D01*
X64726Y59632D01*
X64697Y59617D01*
X64676Y59602D01*
X64661Y59593D01*
X64652Y59587D01*
X64649Y59584D01*
X64611Y59552D01*
X64578Y59516D01*
X64551Y59478D01*
X64525Y59439D01*
X64504Y59401D01*
X64489Y59362D01*
X64474Y59327D01*
X64463Y59288D01*
X64454Y59253D01*
X64448Y59223D01*
X64442Y59193D01*
X64439Y59170D01*
X64436Y59149D01*
Y59119D01*
X64439Y59066D01*
X64445Y59016D01*
X64457Y58965D01*
X64469Y58921D01*
X64486Y58880D01*
X64504Y58841D01*
X64522Y58809D01*
X64543Y58776D01*
X64563Y58749D01*
X64581Y58723D01*
X64599Y58702D01*
X64617Y58687D01*
X64628Y58672D01*
X64640Y58664D01*
X64646Y58658D01*
X64649Y58655D01*
X64699Y58619D01*
X64759Y58590D01*
X64821Y58563D01*
X64886Y58539D01*
X64954Y58521D01*
X65025Y58504D01*
X65093Y58492D01*
X65161Y58480D01*
X65226Y58474D01*
X65285Y58468D01*
X65342Y58462D01*
X65389Y58459D01*
X65428Y58456D01*
X66535D01*
X65484D01*
X65590Y58459D01*
X65688Y58465D01*
X65780Y58474D01*
X65863Y58486D01*
X65937Y58498D01*
X66005Y58513D01*
X66064Y58530D01*
X66117Y58548D01*
X66162Y58563D01*
X66203Y58581D01*
X66236Y58596D01*
X66262Y58610D01*
X66280Y58619D01*
X66295Y58628D01*
X66304Y58634D01*
X66307Y58637D01*
X66348Y58672D01*
X66381Y58711D01*
X66413Y58749D01*
X66437Y58791D01*
X66461Y58829D01*
X66478Y58871D01*
X66493Y58909D01*
X66505Y58948D01*
X66517Y58983D01*
X66523Y59016D01*
X66529Y59045D01*
X66532Y59069D01*
Y59090D01*
X66535Y59108D01*
Y59119D01*
X66532Y59173D01*
X66526Y59223D01*
X66514Y59273D01*
X66502Y59318D01*
X66487Y59359D01*
X66470Y59398D01*
X66449Y59430D01*
X66428Y59463D01*
X66410Y59489D01*
X66390Y59516D01*
X66372Y59537D01*
X66357Y59555D01*
X66345Y59566D01*
X66333Y59575D01*
X66327Y59581D01*
X66325Y59584D01*
X66274Y59620D01*
X66215Y59649D01*
X66153Y59679D01*
X66085Y59700D01*
X66017Y59720D01*
X65949Y59735D01*
X65877Y59750D01*
X65809Y59762D01*
X65744Y59768D01*
X65685Y59774D01*
X65629Y59780D01*
X65582Y59782D01*
X65543Y59785D01*
D02*
G37*
G36*
X66496Y58137D02*
X66102D01*
Y57743D01*
X66496D01*
Y58137D01*
D02*
G37*
G36*
Y57071D02*
X64436D01*
Y56171D01*
Y56751D01*
X64504Y56722D01*
X64566Y56683D01*
X64625Y56642D01*
X64673Y56600D01*
X64711Y56565D01*
X64741Y56532D01*
X64753Y56521D01*
X64762Y56512D01*
X64765Y56506D01*
X64767Y56503D01*
X64815Y56438D01*
X64856Y56375D01*
X64889Y56319D01*
X64913Y56269D01*
X64930Y56227D01*
X64945Y56198D01*
X64948Y56186D01*
X64951Y56177D01*
X64954Y56174D01*
Y56171D01*
X64436D01*
X66496D01*
Y57071D01*
D02*
G37*
G36*
X64448Y55150D02*
Y53241D01*
X66496Y53975D01*
Y54422D01*
X64448Y55150D01*
D02*
G37*
G36*
X66496Y53099D02*
X66150D01*
Y51956D01*
X65593D01*
Y52983D01*
X65247D01*
Y51956D01*
X64794D01*
Y53060D01*
X64448D01*
Y53099D01*
D01*
D01*
Y51542D01*
X66496D01*
Y53099D01*
D02*
G37*
G36*
Y51317D02*
X66097Y51065D01*
X66055Y51039D01*
X66014Y51012D01*
X65978Y50988D01*
X65946Y50965D01*
X65916Y50944D01*
X65886Y50926D01*
X65842Y50891D01*
X65807Y50864D01*
X65783Y50846D01*
X65768Y50831D01*
X65765Y50828D01*
X65729Y50796D01*
X65697Y50757D01*
X65670Y50722D01*
X65644Y50686D01*
X65623Y50657D01*
X65608Y50633D01*
X65596Y50615D01*
X65593Y50612D01*
Y50609D01*
X65584Y50660D01*
X65573Y50704D01*
X65561Y50746D01*
X65546Y50787D01*
X65531Y50823D01*
X65516Y50855D01*
X65502Y50888D01*
X65484Y50914D01*
X65469Y50938D01*
X65454Y50959D01*
X65439Y50977D01*
X65428Y50988D01*
X65419Y51000D01*
X65410Y51009D01*
X65407Y51012D01*
X65404Y51015D01*
X65374Y51039D01*
X65345Y51059D01*
X65280Y51095D01*
X65217Y51119D01*
X65155Y51133D01*
X65102Y51145D01*
X65081Y51148D01*
X65061D01*
X65046Y51151D01*
X65031D01*
X65025D01*
X65022D01*
X64957Y51148D01*
X64895Y51136D01*
X64842Y51121D01*
X64794Y51107D01*
X64756Y51089D01*
X64726Y51074D01*
X64717Y51068D01*
X64708Y51062D01*
X64705Y51059D01*
X64702D01*
X64652Y51024D01*
X64611Y50985D01*
X64578Y50947D01*
X64548Y50908D01*
X64531Y50873D01*
X64516Y50846D01*
X64507Y50828D01*
X64504Y50826D01*
Y50823D01*
X64495Y50793D01*
X64486Y50760D01*
X64472Y50686D01*
X64463Y50607D01*
X64454Y50529D01*
Y50491D01*
X64451Y50459D01*
Y50426D01*
X64448Y50399D01*
Y50426D01*
Y49476D01*
X66496D01*
Y51317D01*
D02*
G37*
G36*
X67100Y48227D02*
X64412D01*
Y47916D01*
X67100D01*
Y48227D01*
D02*
G37*
G36*
X66496Y46685D02*
X64448D01*
Y46270D01*
X66496D01*
Y46685D01*
D02*
G37*
G36*
Y45847D02*
X64448D01*
Y45025D01*
Y45465D01*
X65827D01*
X64448Y44618D01*
Y44219D01*
X66496D01*
Y44618D01*
Y44601D01*
X65146D01*
X66496Y45432D01*
Y45847D01*
D02*
G37*
G36*
Y43822D02*
X64448D01*
Y43408D01*
X66496D01*
Y43822D01*
D02*
G37*
G36*
Y43002D02*
X64448D01*
Y41031D01*
X66496D01*
Y41649D01*
Y41413D01*
X64886D01*
X66496Y41815D01*
Y42215D01*
X64886Y42617D01*
X66496Y42620D01*
Y43002D01*
D02*
G37*
G36*
X65949Y40806D02*
X65555D01*
Y40033D01*
X65949D01*
Y40806D01*
D02*
G37*
G36*
X66535Y39699D02*
Y38823D01*
X66532Y38917D01*
X66520Y39006D01*
X66505Y39092D01*
X66487Y39166D01*
X66478Y39199D01*
X66470Y39228D01*
X66461Y39255D01*
X66455Y39279D01*
X66449Y39296D01*
X66443Y39308D01*
X66440Y39317D01*
Y39320D01*
X66404Y39409D01*
X66366Y39483D01*
X66327Y39548D01*
X66295Y39604D01*
X66265Y39646D01*
X66253Y39660D01*
X66242Y39675D01*
X66233Y39684D01*
X66227Y39693D01*
X66221Y39699D01*
X65398D01*
Y38808D01*
X65744D01*
Y39281D01*
X66008D01*
X66034Y39246D01*
X66058Y39208D01*
X66079Y39169D01*
X66097Y39134D01*
X66111Y39104D01*
X66123Y39077D01*
X66129Y39062D01*
X66132Y39059D01*
Y39057D01*
X66150Y39009D01*
X66162Y38962D01*
X66171Y38917D01*
X66176Y38879D01*
X66179Y38843D01*
X66182Y38820D01*
Y38796D01*
X66179Y38749D01*
X66173Y38701D01*
X66165Y38660D01*
X66153Y38618D01*
X66123Y38544D01*
X66108Y38515D01*
X66091Y38485D01*
X66073Y38459D01*
X66058Y38435D01*
X66040Y38417D01*
X66028Y38399D01*
X66017Y38388D01*
X66008Y38379D01*
X66002Y38373D01*
X65999Y38370D01*
X65963Y38343D01*
X65922Y38317D01*
X65881Y38296D01*
X65836Y38278D01*
X65744Y38249D01*
X65655Y38231D01*
X65614Y38225D01*
X65573Y38219D01*
X65540Y38216D01*
X65508Y38213D01*
X65484Y38210D01*
X65463D01*
X65451D01*
X65448D01*
X65386Y38213D01*
X65330Y38216D01*
X65274Y38225D01*
X65223Y38234D01*
X65179Y38245D01*
X65137Y38260D01*
X65099Y38275D01*
X65064Y38290D01*
X65034Y38302D01*
X65007Y38317D01*
X64987Y38331D01*
X64969Y38343D01*
X64954Y38352D01*
X64945Y38361D01*
X64939Y38364D01*
X64936Y38367D01*
X64907Y38399D01*
X64877Y38432D01*
X64856Y38467D01*
X64836Y38503D01*
X64818Y38539D01*
X64803Y38574D01*
X64782Y38642D01*
X64776Y38675D01*
X64771Y38704D01*
X64767Y38731D01*
X64765Y38755D01*
X64762Y38772D01*
Y38799D01*
X64765Y38864D01*
X64776Y38920D01*
X64788Y38971D01*
X64806Y39015D01*
X64821Y39048D01*
X64836Y39074D01*
X64847Y39089D01*
X64850Y39095D01*
X64886Y39136D01*
X64924Y39172D01*
X64963Y39202D01*
X65001Y39222D01*
X65037Y39240D01*
X65064Y39252D01*
X65081Y39258D01*
X65084Y39261D01*
X65087D01*
X65010Y39672D01*
X64960Y39660D01*
X64910Y39643D01*
X64865Y39625D01*
X64824Y39601D01*
X64782Y39581D01*
X64747Y39557D01*
X64714Y39533D01*
X64685Y39509D01*
X64658Y39486D01*
X64634Y39465D01*
X64614Y39447D01*
X64599Y39430D01*
X64587Y39415D01*
X64575Y39403D01*
X64572Y39397D01*
X64569Y39394D01*
X64540Y39353D01*
X64516Y39308D01*
X64495Y39261D01*
X64477Y39211D01*
X64448Y39113D01*
X64430Y39018D01*
X64421Y38974D01*
X64418Y38932D01*
X64415Y38894D01*
X64412Y38861D01*
X64409Y38835D01*
Y39059D01*
Y38835D01*
Y38799D01*
X64412Y38693D01*
X64424Y38598D01*
X64433Y38556D01*
X64442Y38515D01*
X64451Y38476D01*
X64460Y38444D01*
X64472Y38414D01*
X64480Y38385D01*
X64489Y38364D01*
X64495Y38343D01*
X64504Y38328D01*
X64507Y38317D01*
X64513Y38311D01*
Y38308D01*
X64566Y38216D01*
X64599Y38177D01*
X64628Y38139D01*
X64661Y38103D01*
X64693Y38071D01*
X64726Y38041D01*
X64756Y38015D01*
X64785Y37994D01*
X64812Y37973D01*
X64836Y37955D01*
X64856Y37941D01*
X64874Y37932D01*
X64886Y37923D01*
X64895Y37920D01*
X64898Y37917D01*
X64945Y37893D01*
X64992Y37873D01*
X65090Y37840D01*
X65188Y37816D01*
X65274Y37802D01*
X65315Y37796D01*
X65351Y37790D01*
X65383Y37787D01*
X65413D01*
X65434Y37784D01*
X66535D01*
Y39699D01*
D02*
G37*
G36*
X66496Y37636D02*
D01*
X64448Y36813D01*
Y36375D01*
X66496Y35581D01*
X64448D01*
X66496D01*
Y37636D01*
D02*
G37*
G36*
Y35371D02*
X64448D01*
Y34750D01*
X65848Y34386D01*
X64448Y34019D01*
Y33400D01*
X66496D01*
Y35371D01*
D02*
G37*
%LPD*%
G36*
X65614Y72271D02*
X65670D01*
X65721Y72268D01*
X65768Y72265D01*
X65809Y72262D01*
X65848Y72256D01*
X65881Y72253D01*
X65910Y72250D01*
X65934Y72244D01*
X65955Y72241D01*
X65972Y72238D01*
X65984Y72235D01*
X65996D01*
X65999Y72232D01*
X66002D01*
X66043Y72220D01*
X66076Y72206D01*
X66105Y72191D01*
X66126Y72179D01*
X66144Y72167D01*
X66156Y72155D01*
X66162Y72149D01*
X66165Y72146D01*
X66179Y72126D01*
X66191Y72105D01*
X66197Y72084D01*
X66203Y72063D01*
X66206Y72049D01*
X66209Y72034D01*
Y72022D01*
X66206Y71995D01*
X66203Y71972D01*
X66194Y71951D01*
X66185Y71933D01*
X66179Y71918D01*
X66171Y71907D01*
X66168Y71901D01*
X66165Y71898D01*
X66144Y71880D01*
X66117Y71862D01*
X66088Y71847D01*
X66058Y71833D01*
X66031Y71824D01*
X66008Y71815D01*
X65993Y71812D01*
X65987Y71809D01*
X65957Y71803D01*
X65925Y71797D01*
X65889Y71791D01*
X65851Y71788D01*
X65768Y71782D01*
X65685Y71779D01*
X65647Y71776D01*
X65608D01*
X65576Y71773D01*
X65546D01*
X65522D01*
X65502D01*
X65490D01*
X65487D01*
X65422D01*
X65359Y71776D01*
X65306D01*
X65253Y71779D01*
X65209Y71782D01*
X65164Y71785D01*
X65129Y71788D01*
X65093Y71794D01*
X65064Y71797D01*
X65040Y71800D01*
X65019Y71803D01*
X65001Y71806D01*
X64990Y71809D01*
X64978D01*
X64975Y71812D01*
X64972D01*
X64930Y71824D01*
X64895Y71839D01*
X64868Y71850D01*
X64845Y71865D01*
X64830Y71877D01*
X64818Y71886D01*
X64812Y71892D01*
X64809Y71895D01*
X64794Y71916D01*
X64782Y71939D01*
X64773Y71960D01*
X64767Y71981D01*
X64765Y71995D01*
X64762Y72010D01*
Y72022D01*
X64765Y72049D01*
X64767Y72072D01*
X64776Y72093D01*
X64785Y72111D01*
X64794Y72126D01*
X64800Y72137D01*
X64806Y72143D01*
X64809Y72146D01*
X64830Y72164D01*
X64856Y72182D01*
X64886Y72197D01*
X64916Y72211D01*
X64945Y72220D01*
X64969Y72229D01*
X64984Y72232D01*
X64987Y72235D01*
X64990D01*
X65016Y72241D01*
X65049Y72247D01*
X65087Y72253D01*
X65126Y72259D01*
X65206Y72265D01*
X65289Y72268D01*
X65327Y72271D01*
X65365D01*
X65398Y72274D01*
X65428D01*
X65451D01*
X65472D01*
X65484D01*
X65487D01*
X65552D01*
X65614Y72271D01*
D02*
G37*
G36*
Y64948D02*
X65670D01*
X65721Y64945D01*
X65768Y64942D01*
X65809Y64939D01*
X65848Y64933D01*
X65881Y64930D01*
X65910Y64927D01*
X65934Y64921D01*
X65955Y64918D01*
X65972Y64915D01*
X65984Y64912D01*
X65996D01*
X65999Y64909D01*
X66002D01*
X66043Y64897D01*
X66076Y64883D01*
X66105Y64868D01*
X66126Y64856D01*
X66144Y64844D01*
X66156Y64832D01*
X66162Y64826D01*
X66165Y64823D01*
X66179Y64803D01*
X66191Y64782D01*
X66197Y64761D01*
X66203Y64741D01*
X66206Y64726D01*
X66209Y64711D01*
Y64699D01*
X66206Y64672D01*
X66203Y64649D01*
X66194Y64628D01*
X66185Y64610D01*
X66179Y64595D01*
X66171Y64584D01*
X66168Y64578D01*
X66165Y64575D01*
X66144Y64557D01*
X66117Y64539D01*
X66088Y64524D01*
X66058Y64510D01*
X66031Y64501D01*
X66008Y64492D01*
X65993Y64489D01*
X65987Y64486D01*
X65957Y64480D01*
X65925Y64474D01*
X65889Y64468D01*
X65851Y64465D01*
X65768Y64459D01*
X65685Y64456D01*
X65647Y64453D01*
X65608D01*
X65576Y64450D01*
X65546D01*
X65522D01*
X65502D01*
X65490D01*
X65487D01*
X65422D01*
X65359Y64453D01*
X65306D01*
X65253Y64456D01*
X65209Y64459D01*
X65164Y64462D01*
X65129Y64465D01*
X65093Y64471D01*
X65064Y64474D01*
X65040Y64477D01*
X65019Y64480D01*
X65001Y64483D01*
X64990Y64486D01*
X64978D01*
X64975Y64489D01*
X64972D01*
X64930Y64501D01*
X64895Y64516D01*
X64868Y64527D01*
X64845Y64542D01*
X64830Y64554D01*
X64818Y64563D01*
X64812Y64569D01*
X64809Y64572D01*
X64794Y64592D01*
X64782Y64616D01*
X64773Y64637D01*
X64767Y64658D01*
X64765Y64672D01*
X64762Y64687D01*
Y64699D01*
X64765Y64726D01*
X64767Y64749D01*
X64776Y64770D01*
X64785Y64788D01*
X64794Y64803D01*
X64800Y64815D01*
X64806Y64820D01*
X64809Y64823D01*
X64830Y64841D01*
X64856Y64859D01*
X64886Y64874D01*
X64916Y64889D01*
X64945Y64897D01*
X64969Y64906D01*
X64984Y64909D01*
X64987Y64912D01*
X64990D01*
X65016Y64918D01*
X65049Y64924D01*
X65087Y64930D01*
X65126Y64936D01*
X65206Y64942D01*
X65289Y64945D01*
X65327Y64948D01*
X65365D01*
X65398Y64951D01*
X65428D01*
X65451D01*
X65472D01*
X65484D01*
X65487D01*
X65552D01*
X65614Y64948D01*
D02*
G37*
G36*
X66535Y64036D02*
X65484D01*
X65590Y64039D01*
X65688Y64045D01*
X65780Y64054D01*
X65863Y64066D01*
X65937Y64077D01*
X66005Y64092D01*
X66064Y64110D01*
X66117Y64128D01*
X66162Y64143D01*
X66203Y64160D01*
X66236Y64175D01*
X66262Y64190D01*
X66280Y64199D01*
X66295Y64208D01*
X66304Y64214D01*
X66307Y64217D01*
X66348Y64252D01*
X66381Y64291D01*
X66413Y64329D01*
X66437Y64371D01*
X66461Y64409D01*
X66478Y64450D01*
X66493Y64489D01*
X66505Y64527D01*
X66517Y64563D01*
X66523Y64595D01*
X66529Y64625D01*
X66532Y64649D01*
Y64669D01*
X66535Y64687D01*
Y64036D01*
D02*
G37*
G36*
X65614Y59368D02*
X65670D01*
X65721Y59365D01*
X65768Y59362D01*
X65809Y59359D01*
X65848Y59353D01*
X65881Y59350D01*
X65910Y59347D01*
X65934Y59341D01*
X65955Y59338D01*
X65972Y59336D01*
X65984Y59333D01*
X65996D01*
X65999Y59330D01*
X66002D01*
X66043Y59318D01*
X66076Y59303D01*
X66105Y59288D01*
X66126Y59276D01*
X66144Y59264D01*
X66156Y59253D01*
X66162Y59247D01*
X66165Y59244D01*
X66179Y59223D01*
X66191Y59202D01*
X66197Y59182D01*
X66203Y59161D01*
X66206Y59146D01*
X66209Y59131D01*
Y59119D01*
X66206Y59093D01*
X66203Y59069D01*
X66194Y59048D01*
X66185Y59031D01*
X66179Y59016D01*
X66171Y59004D01*
X66168Y58998D01*
X66165Y58995D01*
X66144Y58977D01*
X66117Y58960D01*
X66088Y58945D01*
X66058Y58930D01*
X66031Y58921D01*
X66008Y58912D01*
X65993Y58909D01*
X65987Y58906D01*
X65957Y58900D01*
X65925Y58894D01*
X65889Y58889D01*
X65851Y58886D01*
X65768Y58880D01*
X65685Y58877D01*
X65647Y58874D01*
X65608D01*
X65576Y58871D01*
X65546D01*
X65522D01*
X65502D01*
X65490D01*
X65487D01*
X65422D01*
X65359Y58874D01*
X65306D01*
X65253Y58877D01*
X65209Y58880D01*
X65164Y58883D01*
X65129Y58886D01*
X65093Y58891D01*
X65064Y58894D01*
X65040Y58897D01*
X65019Y58900D01*
X65001Y58903D01*
X64990Y58906D01*
X64978D01*
X64975Y58909D01*
X64972D01*
X64930Y58921D01*
X64895Y58936D01*
X64868Y58948D01*
X64845Y58963D01*
X64830Y58974D01*
X64818Y58983D01*
X64812Y58989D01*
X64809Y58992D01*
X64794Y59013D01*
X64782Y59037D01*
X64773Y59057D01*
X64767Y59078D01*
X64765Y59093D01*
X64762Y59108D01*
Y59119D01*
X64765Y59146D01*
X64767Y59170D01*
X64776Y59190D01*
X64785Y59208D01*
X64794Y59223D01*
X64800Y59235D01*
X64806Y59241D01*
X64809Y59244D01*
X64830Y59262D01*
X64856Y59279D01*
X64886Y59294D01*
X64916Y59309D01*
X64945Y59318D01*
X64969Y59327D01*
X64984Y59330D01*
X64987Y59333D01*
X64990D01*
X65016Y59338D01*
X65049Y59344D01*
X65087Y59350D01*
X65126Y59356D01*
X65206Y59362D01*
X65289Y59365D01*
X65327Y59368D01*
X65365D01*
X65398Y59371D01*
X65428D01*
X65451D01*
X65472D01*
X65484D01*
X65487D01*
X65552D01*
X65614Y59368D01*
D02*
G37*
G36*
X66496Y56171D02*
X65309D01*
X65268Y56278D01*
X65223Y56373D01*
X65200Y56417D01*
X65173Y56458D01*
X65149Y56497D01*
X65126Y56532D01*
X65102Y56565D01*
X65081Y56595D01*
X65064Y56618D01*
X65046Y56639D01*
X65031Y56657D01*
X65022Y56669D01*
X65016Y56674D01*
X65013Y56677D01*
X66496D01*
Y56171D01*
D02*
G37*
G36*
X65963Y54209D02*
X64448Y53688D01*
Y54709D01*
X65963Y54209D01*
D02*
G37*
G36*
X66496Y49890D02*
X65641D01*
Y50023D01*
X65644Y50065D01*
X65647Y50100D01*
X65653Y50130D01*
X65655Y50154D01*
X65661Y50168D01*
X65664Y50177D01*
Y50180D01*
X65676Y50204D01*
X65688Y50228D01*
X65703Y50248D01*
X65715Y50269D01*
X65729Y50284D01*
X65741Y50296D01*
X65747Y50302D01*
X65750Y50305D01*
X65765Y50316D01*
X65780Y50331D01*
X65824Y50364D01*
X65872Y50399D01*
X65925Y50438D01*
X65972Y50470D01*
X65996Y50485D01*
X66014Y50497D01*
X66028Y50509D01*
X66040Y50518D01*
X66049Y50521D01*
X66052Y50524D01*
X66496Y50820D01*
Y49890D01*
D02*
G37*
G36*
X65084Y50722D02*
X65114Y50719D01*
X65140Y50710D01*
X65164Y50704D01*
X65182Y50695D01*
X65194Y50686D01*
X65203Y50683D01*
X65206Y50681D01*
X65226Y50663D01*
X65244Y50645D01*
X65271Y50607D01*
X65280Y50592D01*
X65285Y50577D01*
X65291Y50568D01*
Y50565D01*
X65294Y50550D01*
X65300Y50527D01*
X65303Y50503D01*
X65306Y50476D01*
X65309Y50414D01*
X65312Y50352D01*
X65315Y50293D01*
Y49890D01*
X64794D01*
Y50364D01*
X64797Y50390D01*
Y50455D01*
X64800Y50482D01*
Y50500D01*
X64803Y50509D01*
Y50512D01*
X64812Y50547D01*
X64824Y50580D01*
X64836Y50607D01*
X64850Y50627D01*
X64865Y50645D01*
X64874Y50660D01*
X64883Y50666D01*
X64886Y50669D01*
X64910Y50686D01*
X64939Y50701D01*
X64966Y50710D01*
X64992Y50719D01*
X65016Y50722D01*
X65034Y50725D01*
X65046D01*
X65052D01*
X65084Y50722D01*
D02*
G37*
G36*
X65848Y42017D02*
X64448Y41649D01*
Y42381D01*
X65848Y42017D01*
D02*
G37*
G36*
X66535Y37784D02*
X65466D01*
X65576Y37790D01*
X65676Y37802D01*
X65768Y37822D01*
X65812Y37831D01*
X65851Y37843D01*
X65886Y37855D01*
X65919Y37864D01*
X65946Y37876D01*
X65969Y37884D01*
X65987Y37890D01*
X66002Y37896D01*
X66011Y37902D01*
X66014D01*
X66102Y37953D01*
X66179Y38009D01*
X66247Y38068D01*
X66301Y38127D01*
X66325Y38154D01*
X66345Y38180D01*
X66363Y38201D01*
X66375Y38222D01*
X66387Y38237D01*
X66395Y38251D01*
X66399Y38257D01*
X66401Y38260D01*
X66425Y38308D01*
X66446Y38352D01*
X66478Y38450D01*
X66502Y38544D01*
X66517Y38630D01*
X66523Y38672D01*
X66529Y38707D01*
X66532Y38740D01*
Y38769D01*
X66535Y38790D01*
Y37784D01*
D02*
G37*
G36*
X65685Y36313D02*
X64924Y36591D01*
X65685Y36878D01*
Y36313D01*
D02*
G37*
G36*
X66496Y36020D02*
X66031Y36188D01*
Y37011D01*
X66496Y37189D01*
Y36020D01*
D02*
G37*
G36*
Y34584D02*
X64886Y34987D01*
X66496Y34990D01*
Y34584D01*
D02*
G37*
G36*
Y33782D02*
X64886D01*
X66496Y34184D01*
Y33782D01*
D02*
G37*
%LPC*%
G36*
X28493Y91921D02*
X28047Y91262D01*
X28493D01*
Y91921D01*
D02*
G37*
G36*
X41785Y73129D02*
X41342D01*
Y72641D01*
X41719D01*
X41774Y72644D01*
X41832Y72647D01*
X41891Y72650D01*
X41916Y72652D01*
X41938Y72655D01*
X41960Y72661D01*
X41974Y72663D01*
X41976D01*
X41985Y72669D01*
X41999Y72675D01*
X42013Y72683D01*
X42048Y72708D01*
X42065Y72724D01*
X42082Y72744D01*
X42085Y72746D01*
X42087Y72755D01*
X42096Y72766D01*
X42104Y72782D01*
X42109Y72805D01*
X42118Y72830D01*
X42121Y72857D01*
X42123Y72888D01*
Y72893D01*
Y72904D01*
X42121Y72921D01*
X42118Y72943D01*
X42109Y72968D01*
X42101Y72993D01*
X42087Y73021D01*
X42071Y73043D01*
X42068Y73046D01*
X42062Y73054D01*
X42048Y73062D01*
X42032Y73076D01*
X42013Y73090D01*
X41987Y73101D01*
X41957Y73112D01*
X41924Y73120D01*
X41921D01*
X41913Y73123D01*
X41896D01*
X41871Y73126D01*
X41810D01*
X41785Y73129D01*
D02*
G37*
G36*
X47936Y50129D02*
X47493D01*
Y49641D01*
X47870D01*
X47925Y49644D01*
X47983Y49647D01*
X48042Y49650D01*
X48066Y49652D01*
X48089Y49655D01*
X48111Y49661D01*
X48125Y49663D01*
X48127D01*
X48136Y49669D01*
X48150Y49674D01*
X48164Y49683D01*
X48199Y49708D01*
X48216Y49724D01*
X48233Y49744D01*
X48235Y49747D01*
X48238Y49755D01*
X48247Y49766D01*
X48255Y49782D01*
X48260Y49805D01*
X48269Y49830D01*
X48272Y49857D01*
X48274Y49888D01*
Y49893D01*
Y49904D01*
X48272Y49921D01*
X48269Y49943D01*
X48260Y49968D01*
X48252Y49993D01*
X48238Y50021D01*
X48222Y50043D01*
X48219Y50046D01*
X48213Y50054D01*
X48199Y50062D01*
X48183Y50076D01*
X48164Y50090D01*
X48138Y50101D01*
X48108Y50112D01*
X48075Y50121D01*
X48072D01*
X48064Y50123D01*
X48047D01*
X48022Y50126D01*
X47961D01*
X47936Y50129D01*
D02*
G37*
G36*
X59025Y49906D02*
X58579Y49247D01*
X59025D01*
Y49906D01*
D02*
G37*
%LPD*%
D10*
X48116Y57457D02*
G03*
X48116Y57457I-100J0D01*
G01*
D11*
X1000Y90500D02*
Y104500D01*
X3000Y40000D02*
X3500Y41000D01*
X4000Y40000D01*
X8500Y34500D02*
X9500Y35000D01*
X8500Y35500D02*
X9500Y35000D01*
X3500D02*
X9500D01*
X3500D02*
Y41000D01*
X12224Y89075D02*
X17815D01*
Y82126D02*
Y89075D01*
X12185Y56595D02*
X17815D01*
Y63543D01*
X1870Y60827D02*
Y84803D01*
X27059Y79646D02*
X28059D01*
D12*
X45616Y59057D02*
X60416D01*
X45616D02*
Y73857D01*
X60416D01*
Y59057D02*
Y73857D01*
X27350Y69550D02*
Y70640D01*
Y69550D02*
X29733D01*
X27350Y74360D02*
Y75450D01*
X29733D01*
X29809Y81596D02*
Y87696D01*
X25309Y81596D02*
Y87696D01*
X46710Y91250D02*
X50700D01*
X46710Y84750D02*
Y91250D01*
X55520D02*
X59510D01*
Y84750D02*
Y91250D01*
X51918Y84750D02*
X54303D01*
M02*
