G04*
G04 #@! TF.GenerationSoftware,Altium Limited,Altium Designer,25.1.2 (22)*
G04*
G04 Layer_Physical_Order=2*
G04 Layer_Color=16711680*
%FSLAX25Y25*%
%MOIN*%
G70*
G04*
G04 #@! TF.SameCoordinates,42F2E889-0947-43C6-B176-334B337A30E9*
G04*
G04*
G04 #@! TF.FilePolarity,Positive*
G04*
G01*
G75*
%ADD30C,0.19685*%
%ADD31C,0.02000*%
G36*
X68898Y31496D02*
X0D01*
Y114173D01*
X68898D01*
Y31496D01*
D02*
G37*
%LPC*%
G36*
X34318Y113205D02*
X33965D01*
Y102862D01*
X44307D01*
Y103216D01*
X44040Y104901D01*
X43513Y106524D01*
X42738Y108045D01*
X41735Y109426D01*
X40528Y110632D01*
X39147Y111636D01*
X37627Y112410D01*
X36004Y112938D01*
X34318Y113205D01*
D02*
G37*
G36*
X32965D02*
X32611D01*
X30926Y112938D01*
X29302Y112410D01*
X27782Y111636D01*
X26401Y110632D01*
X25194Y109426D01*
X24191Y108045D01*
X23416Y106524D01*
X22889Y104901D01*
X22622Y103216D01*
Y102862D01*
X32965D01*
Y113205D01*
D02*
G37*
G36*
X44307Y101862D02*
X33965D01*
Y91520D01*
X34318D01*
X36004Y91787D01*
X37627Y92314D01*
X39147Y93089D01*
X40528Y94092D01*
X41735Y95299D01*
X42738Y96680D01*
X43513Y98200D01*
X44040Y99823D01*
X44307Y101509D01*
Y101862D01*
D02*
G37*
G36*
X32965D02*
X22622D01*
Y101509D01*
X22889Y99823D01*
X23416Y98200D01*
X24191Y96680D01*
X25194Y95299D01*
X26401Y94092D01*
X27782Y93089D01*
X29302Y92314D01*
X30926Y91787D01*
X32611Y91520D01*
X32965D01*
Y101862D01*
D02*
G37*
G36*
X34318Y54150D02*
X33965D01*
Y43807D01*
X44307D01*
Y44160D01*
X44040Y45846D01*
X43513Y47469D01*
X42738Y48990D01*
X41735Y50371D01*
X40528Y51577D01*
X39147Y52580D01*
X37627Y53355D01*
X36004Y53883D01*
X34318Y54150D01*
D02*
G37*
G36*
X32965D02*
X32611D01*
X30926Y53883D01*
X29302Y53355D01*
X27782Y52580D01*
X26401Y51577D01*
X25194Y50371D01*
X24191Y48990D01*
X23416Y47469D01*
X22889Y45846D01*
X22622Y44160D01*
Y43807D01*
X32965D01*
Y54150D01*
D02*
G37*
G36*
X44307Y42807D02*
X33965D01*
Y32465D01*
X34318D01*
X36004Y32732D01*
X37627Y33259D01*
X39147Y34034D01*
X40528Y35037D01*
X41735Y36244D01*
X42738Y37624D01*
X43513Y39145D01*
X44040Y40768D01*
X44307Y42454D01*
Y42807D01*
D02*
G37*
G36*
X32965D02*
X22622D01*
Y42454D01*
X22889Y40768D01*
X23416Y39145D01*
X24191Y37624D01*
X25194Y36244D01*
X26401Y35037D01*
X27782Y34034D01*
X29302Y33259D01*
X30926Y32732D01*
X32611Y32465D01*
X32965D01*
Y42807D01*
D02*
G37*
%LPD*%
D30*
X33465Y102362D02*
D03*
Y43307D02*
D03*
D31*
X60000Y108000D02*
D03*
Y100000D02*
D03*
Y92000D02*
D03*
Y44000D02*
D03*
Y36000D02*
D03*
X52000Y108000D02*
D03*
Y100000D02*
D03*
Y44000D02*
D03*
Y36000D02*
D03*
X44000Y108000D02*
D03*
Y76000D02*
D03*
Y52000D02*
D03*
Y36000D02*
D03*
X36000Y76000D02*
D03*
Y60000D02*
D03*
X28000Y68000D02*
D03*
Y60000D02*
D03*
X20000Y108000D02*
D03*
Y100000D02*
D03*
Y92000D02*
D03*
Y60000D02*
D03*
Y52000D02*
D03*
Y44000D02*
D03*
Y36000D02*
D03*
X12000Y108000D02*
D03*
Y100000D02*
D03*
Y92000D02*
D03*
Y84000D02*
D03*
Y76000D02*
D03*
Y68000D02*
D03*
Y52000D02*
D03*
Y44000D02*
D03*
Y36000D02*
D03*
X4000Y108000D02*
D03*
Y100000D02*
D03*
Y92000D02*
D03*
Y76000D02*
D03*
Y68000D02*
D03*
Y52000D02*
D03*
Y44000D02*
D03*
Y36000D02*
D03*
X27500Y85500D02*
D03*
X24980Y72726D02*
D03*
X51500Y74000D02*
D03*
X59000D02*
D03*
X56500D02*
D03*
X59500Y50500D02*
D03*
X57000D02*
D03*
X54500D02*
D03*
X52000D02*
D03*
X64500Y90000D02*
D03*
X62000D02*
D03*
X52000Y85500D02*
D03*
Y83000D02*
D03*
Y80500D02*
D03*
X42500Y81500D02*
D03*
X45000D02*
D03*
X27500Y90000D02*
D03*
X13000Y58000D02*
D03*
Y87500D02*
D03*
X16000Y62500D02*
D03*
X18500D02*
D03*
X21000D02*
D03*
M02*
