M48
;Layer_Color=9474304
;FILE_FORMAT=2:5
INCH,LZ
;TYPE=PLATED
T01F00S00C0.00800
T02F00S00C0.08661
%
T01
X0004Y00045
X0012
X002
Y00125
Y00205
X0012
Y00125
X0004
Y00205
X0044
X0052Y0019
X00545
X0052Y00125
Y00045
X0044
X006
Y00125
X00595Y0019
X0057
X00565Y00425
X0059
X006Y00605
X0062Y00585
X00645
X006Y00685
Y00765
X0052
X0044
X0049Y00675
X0052Y0054
Y0051
X0047Y005
X0044
X00415
X0036Y00445
X002498Y0041226
X0028Y00365
Y00285
X002
X0021Y0031
X00185
X0016
X0013Y00265
X0012Y00365
Y00445
Y00525
X0013Y0056
X0012Y00605
X002
Y00685
Y00765
X0012
Y00685
X0004
Y00765
Y00605
Y00445
Y00365
X00275Y0054
Y00585
X00515Y00425
X0052Y00365
X00455Y00345
X0037Y0027
T02
X0033465Y0011807
Y0070862
M30
