G04*
G04 #@! TF.GenerationSoftware,Altium Limited,Altium Designer,25.1.2 (22)*
G04*
G04 Layer_Color=8421504*
%FSLAX25Y25*%
%MOIN*%
G70*
G04*
G04 #@! TF.SameCoordinates,1637AFDE-E8FF-450D-8CC4-05FB25B5BF06*
G04*
G04*
G04 #@! TF.FilePolarity,Positive*
G04*
G01*
G75*
%ADD13R,0.02559X0.01772*%
%ADD14R,0.02000X0.02700*%
%ADD15C,0.02000*%
%ADD16R,0.01200X0.01800*%
%ADD17R,0.01800X0.01200*%
%ADD18R,0.10630X0.03937*%
%ADD19R,0.06693X0.02362*%
%ADD20R,0.02362X0.02126*%
%ADD21R,0.02126X0.02362*%
%ADD22R,0.02000X0.01100*%
%ADD23R,0.01400X0.01987*%
%ADD24R,0.02200X0.05000*%
D13*
X56500Y68654D02*
D03*
Y72000D02*
D03*
X42469Y37937D02*
D03*
Y34591D02*
D03*
X48500Y25000D02*
D03*
Y21654D02*
D03*
D14*
X51500Y68000D02*
D03*
Y72000D02*
D03*
D15*
X34000Y27000D02*
D03*
D16*
X50063Y29937D02*
D03*
X52031D02*
D03*
X54000D02*
D03*
X55968D02*
D03*
Y39976D02*
D03*
X54000D02*
D03*
X52031D02*
D03*
X50063D02*
D03*
D17*
X58035Y32004D02*
D03*
Y33972D02*
D03*
Y35941D02*
D03*
Y37909D02*
D03*
X47996D02*
D03*
Y35941D02*
D03*
Y33972D02*
D03*
Y32004D02*
D03*
D18*
X6201Y26669D02*
D03*
Y56000D02*
D03*
D19*
X18799Y33953D02*
D03*
Y38874D02*
D03*
Y48717D02*
D03*
Y43795D02*
D03*
D20*
X58000Y21598D02*
D03*
Y25000D02*
D03*
X53500Y21598D02*
D03*
Y25000D02*
D03*
X63000Y52500D02*
D03*
Y55902D02*
D03*
X43500D02*
D03*
Y52500D02*
D03*
D21*
X57402Y45000D02*
D03*
X54000D02*
D03*
D22*
X27250Y41000D02*
D03*
X31750Y42575D02*
D03*
Y39425D02*
D03*
D23*
X27559Y50002D02*
D03*
Y56289D02*
D03*
D24*
X53110Y60400D02*
D03*
X56713Y52600D02*
D03*
X49508D02*
D03*
M02*
